<svg width="227" height="133" viewBox="0 0 227 133" fill="none" xmlns="http://www.w3.org/2000/svg">
<path d="M0 130.783L56.0987 0H79.7481L136.213 130.783H103.948L92.7645 103.075H42.349L31.5326 130.783H0ZM83.048 78.6917L67.0984 38.0528L51.3321 78.6917H83.048Z" fill="#DFDFDF"/>
<path d="M201.701 130.783V119.515H201.334C195.284 129.121 184.284 133 173.101 133C156.418 133 141.385 123.394 141.385 105.292C141.385 74.2583 178.784 73.7042 201.701 73.7042C201.701 63.9139 193.634 57.6333 184.101 57.6333C175.118 57.6333 167.601 61.6972 161.735 68.3472L147.069 53.2C157.152 43.5944 171.818 38.7917 186.301 38.7917C218.384 38.7917 227 55.2319 227 85.1569V130.783H201.701ZM201.701 91.4375H194.917C186.484 91.4375 167.785 92.1764 167.785 104.368C167.785 111.018 174.751 114.158 180.801 114.158C191.618 114.158 201.701 108.432 201.701 97.3486V91.4375Z" fill="#DFDFDF"/>
</svg>
