<svg width="32" height="32" viewBox="0 0 32 32" fill="none" xmlns="http://www.w3.org/2000/svg">
<g clip-path="url(#clip0_352_133)">
<path d="M27.3125 0H4.6875C2.10303 0 0 2.10303 0 4.6875V27.3125C0 29.897 2.10303 32 4.6875 32H27.3125C29.897 32 32 29.897 32 27.3125V4.6875C32 2.10303 29.897 0 27.3125 0ZM11.3125 25.375H7.5625V12.25H11.3125V25.375ZM11.3125 10.375H7.5625V6.625H11.3125V10.375ZM24.4375 25.375H20.6875V17.875C20.6875 16.8413 19.8462 16 18.8125 16C17.7788 16 16.9375 16.8413 16.9375 17.875V25.375H13.1875V12.25H16.9375V12.9568C17.9199 12.6514 18.5581 12.25 19.75 12.25C22.2932 12.2527 24.4375 14.5342 24.4375 17.2305V25.375Z" fill="#DBFFC4"/>
</g>
<defs>
<clipPath id="clip0_352_133">
<rect width="32" height="32" fill="white"/>
</clipPath>
</defs>
</svg>
