<svg width="32" height="32" viewBox="0 0 32 32" fill="none" xmlns="http://www.w3.org/2000/svg">
<g clip-path="url(#clip0_352_125)">
<path d="M11.4724 14.6778H8.70508V11.8614H11.4724C11.4724 11.8614 13.1087 11.8232 13.1087 13.2705C13.1087 14.7178 11.4724 14.6778 11.4724 14.6778Z" fill="#DBFFC4"/>
<path d="M13.5905 18.2642C13.5905 19.9897 11.6414 19.946 11.6414 19.946H8.70508V16.586H11.636C11.636 16.586 13.5905 16.5442 13.5905 18.2642Z" fill="#DBFFC4"/>
<path d="M21.5091 14.7036C20.5109 14.7036 19.6909 15.4509 19.5273 16.6218H23.4909C23.3345 15.4545 22.5055 14.7036 21.5091 14.7036ZM21.5091 14.7036C20.5109 14.7036 19.6909 15.4509 19.5273 16.6218H23.4909C23.3345 15.4545 22.5055 14.7036 21.5091 14.7036ZM29.0309 0H2.96909C2.18164 0 1.42644 0.312814 0.869627 0.869627C0.312814 1.42644 0 2.18164 0 2.96909L0 29.0309C0 29.8184 0.312814 30.5736 0.869627 31.1304C1.42644 31.6872 2.18164 32 2.96909 32H29.0309C29.8184 32 30.5736 31.6872 31.1304 31.1304C31.6872 30.5736 32 29.8184 32 29.0309V2.96909C32 2.18164 31.6872 1.42644 31.1304 0.869627C30.5736 0.312814 29.8184 0 29.0309 0ZM18.9927 10.5455H24V11.7927H18.9927V10.5455ZM14.2164 21.5873C13.5273 21.9273 12.6618 22.0345 11.8527 22.0345H6V9.74182H12.4345C13.2309 9.74182 15.6964 10.2164 15.7073 12.5855C15.7073 14.2218 14.7982 14.9709 14.0145 15.3309C14.0145 15.3309 16.0582 15.9382 16.2218 17.7455C16.3855 19.5527 16.0618 20.6764 14.2164 21.5873ZM25.9727 18.1964H19.5273C19.4655 19.6164 20.5036 20.4636 21.6836 20.4636C22.0942 20.4645 22.4972 20.3536 22.8496 20.1429C23.2019 19.9321 23.4902 19.6294 23.6836 19.2673H25.7945C25.2145 21.38 23.5145 22.26 21.5055 22.26C18.8745 22.26 17.0036 20.1509 17.0036 17.5473C17.0036 14.9436 19.02 12.8327 21.5055 12.8327C23.9909 12.8327 26 14.9436 26 17.5473C26 17.7727 26 17.9873 25.9727 18.1964ZM21.5091 14.7036C20.5109 14.7036 19.6909 15.4509 19.5273 16.6218H23.4909C23.3345 15.4545 22.5055 14.7036 21.5091 14.7036Z" fill="#DBFFC4"/>
</g>
<defs>
<clipPath id="clip0_352_125">
<rect width="32" height="32" fill="white"/>
</clipPath>
</defs>
</svg>
