<svg width="54" height="53" viewBox="0 0 54 53" fill="none" xmlns="http://www.w3.org/2000/svg">
<path d="M46.287 11.395H32.7969C32.3755 11.3934 31.9605 11.2929 31.585 11.1016C31.2096 10.9103 30.8844 10.6336 30.6355 10.2936L26.2216 4.19861C25.7411 3.53787 25.1108 3.00048 24.3824 2.63052C23.654 2.26056 22.8482 2.06858 22.0312 2.07032H7.71297C6.34972 2.07251 5.04294 2.61503 4.07898 3.57899C3.11502 4.54295 2.5725 5.84974 2.57031 7.21298V45.787C2.5725 47.1503 3.11502 48.4571 4.07898 49.421C5.04294 50.385 6.34972 50.9275 7.71297 50.9297H46.287C47.6503 50.9275 48.9571 50.385 49.921 49.421C50.885 48.4571 51.4275 47.1503 51.4297 45.787V16.5625C51.4319 15.8854 51.3005 15.2145 51.0431 14.5882C50.7858 13.9618 50.4075 13.3924 49.9298 12.9125C49.4522 12.4325 48.8846 12.0514 48.2595 11.7911C47.6344 11.5307 46.9642 11.3961 46.287 11.395ZM48.9453 45.787C48.9453 46.4921 48.6652 47.1682 48.1667 47.6667C47.6682 48.1653 46.9921 48.4453 46.287 48.4453H7.71297C7.00795 48.4453 6.3318 48.1653 5.83328 47.6667C5.33476 47.1682 5.05469 46.4921 5.05469 45.787V22.4753C5.05469 21.7703 5.33476 21.0942 5.83328 20.5956C6.3318 20.0971 7.00795 19.817 7.71297 19.817H46.287C46.9921 19.817 47.6682 20.0971 48.1667 20.5956C48.6652 21.0942 48.9453 21.7703 48.9453 22.4753V45.787Z" fill="#FAFAFA"/>
<path d="M36.1999 33.655H32.4237V23.8997C32.4237 23.5702 32.2928 23.2543 32.0598 23.0213C31.8269 22.7883 31.5109 22.6575 31.1815 22.6575H22.8588C22.5294 22.6575 22.2134 22.7883 21.9805 23.0213C21.7475 23.2543 21.6166 23.5702 21.6166 23.8997V33.655H17.799C17.5544 33.6544 17.3152 33.7266 17.1118 33.8622C16.9083 33.9978 16.7497 34.1909 16.6562 34.4168C16.5618 34.6442 16.5366 34.8943 16.5837 35.1359C16.6308 35.3775 16.7482 35.5998 16.9212 35.775L26.1216 45.0251C26.3545 45.2577 26.6703 45.3884 26.9994 45.3884C27.3286 45.3884 27.6444 45.2577 27.8773 45.0251L37.0777 35.775C37.2507 35.5998 37.3681 35.3775 37.4152 35.1359C37.4623 34.8943 37.4371 34.6442 37.3427 34.4168C37.2492 34.1909 37.0906 33.9978 36.8871 33.8622C36.6837 33.7266 36.4445 33.6544 36.1999 33.655Z" fill="#FAFAFA"/>
</svg>
