<svg width="675" height="104" viewBox="0 0 675 104" fill="none" xmlns="http://www.w3.org/2000/svg">
<rect width="675" height="104" rx="52" fill="#060C18"/>
<path d="M120.5 23H81.5C75.701 23 71 27.701 71 33.5V70.5C71 76.299 75.701 81 81.5 81H120.5C126.299 81 131 76.299 131 70.5V33.5C131 27.701 126.299 23 120.5 23Z" fill="#330000"/>
<path d="M101.197 59H92.2497L89.9397 65.67C89.913 65.89 89.7739 66 89.5222 66H85.3222C85.0422 66 84.9447 65.8625 85.0297 65.5875L93.1347 41.515C93.3636 40.782 93.4766 40.0178 93.4697 39.25C93.4652 39.2161 93.4685 39.1816 93.4795 39.1492C93.4904 39.1168 93.5087 39.0874 93.5329 39.0632C93.5571 39.039 93.5865 39.0207 93.6189 39.0098C93.6513 38.9988 93.6858 38.9955 93.7197 39H99.5997C99.7697 39 99.8672 39.07 99.8947 39.205L108.965 65.63C109.05 65.88 108.98 66 108.755 66H104.052C103.965 66.0052 103.879 65.9841 103.804 65.9396C103.729 65.895 103.669 65.829 103.632 65.75L101.197 59ZM93.2497 54.5H100.22C100.052 54.1325 96.9172 44.0175 96.6922 43.165H96.6522L93.2497 54.5Z" fill="#FF9A00"/>
<path d="M113.978 44C113.583 44.0169 113.19 43.9545 112.82 43.8167C112.45 43.6788 112.112 43.4683 111.825 43.1975C111.544 42.912 111.326 42.5712 111.184 42.1968C111.042 41.8223 110.979 41.4224 111 41.0225C110.981 40.6175 111.047 40.213 111.193 39.8348C111.339 39.4565 111.562 39.1126 111.848 38.825C112.137 38.5496 112.478 38.3348 112.852 38.1931C113.225 38.0514 113.623 37.9858 114.023 38C114.422 37.9792 114.822 38.0418 115.197 38.1838C115.571 38.3258 115.912 38.5442 116.198 38.825C116.471 39.1194 116.683 39.4655 116.82 39.8428C116.958 40.2202 117.019 40.6212 117 41.0225C117.021 41.4224 116.958 41.8223 116.816 42.1968C116.674 42.5712 116.456 42.912 116.175 43.1975C115.881 43.4708 115.535 43.6826 115.157 43.8204C114.78 43.9582 114.379 44.0193 113.978 44Z" fill="#FF9A00"/>
<path d="M111.499 65.625V46.335C111.493 46.2895 111.497 46.243 111.511 46.1992C111.525 46.1555 111.55 46.1158 111.582 46.0832C111.615 46.0507 111.655 46.0262 111.699 46.0117C111.742 45.9973 111.789 45.9933 111.834 46H116.164C116.21 45.9938 116.256 45.9982 116.299 46.0128C116.343 46.0275 116.382 46.052 116.415 46.0844C116.447 46.1168 116.472 46.1563 116.486 46.1998C116.501 46.2433 116.505 46.2896 116.499 46.335V65.665C116.506 65.7106 116.502 65.757 116.488 65.8008C116.473 65.8445 116.449 65.8842 116.416 65.9168C116.383 65.9493 116.344 65.9738 116.3 65.9883C116.256 66.0027 116.21 66.0067 116.164 66H111.874C111.823 66.0071 111.772 66.0022 111.723 65.9859C111.674 65.9695 111.63 65.9421 111.594 65.9058C111.557 65.8694 111.53 65.8252 111.513 65.7765C111.497 65.7277 111.492 65.6759 111.499 65.625Z" fill="#FF9A00"/>
<g clip-path="url(#clip0_106_186)">
<path d="M238.625 22.75H277.375C283.25 22.75 288 27.5 288 33.375V70.6251C288 76.5 283.25 81.2501 277.375 81.2501H238.625C232.75 81.25 228 76.5 228 70.625V33.375C228 27.5 232.75 22.75 238.625 22.75Z" fill="#001834"/>
<path d="M241.5 63.775V38.05C241.5 37.8751 241.575 37.775 241.75 37.775C242.175 37.775 242.575 37.775 243.15 37.75C243.75 37.7251 244.375 37.7251 245.05 37.7C245.725 37.6749 246.45 37.675 247.225 37.65C248 37.625 248.75 37.625 249.5 37.625C251.55 37.625 253.25 37.875 254.65 38.4C255.9 38.825 257.05 39.525 258 40.4499C258.8 41.25 259.425 42.225 259.825 43.2999C260.2 44.3499 260.4 45.4249 260.4 46.5499C260.4 48.6999 259.9 50.4748 258.9 51.8749C257.9 53.2749 256.5 54.3249 254.875 54.9249C253.175 55.5499 251.3 55.7749 249.25 55.7749C248.65 55.7749 248.25 55.7749 248 55.7499C247.75 55.725 247.4 55.725 246.925 55.725V63.75C246.95 63.9249 246.825 64.0749 246.65 64.1C246.625 64.1 246.6 64.1 246.55 64.1H241.8C241.6 64.1 241.5 64 241.5 63.775ZM246.95 42.6001V51.0001C247.3 51.025 247.625 51.0501 247.925 51.0501H249.25C250.976 51.0501 252.97 50.6444 254.175 49.2752C255.212 48.0968 255.215 45.7598 254.375 44.4752C253.378 42.9502 251.384 42.5084 249.675 42.5502C249.025 42.5502 248.45 42.5502 247.975 42.5751C247.475 42.55 247.125 42.575 246.95 42.6001Z" fill="#00A9FF"/>
<path d="M276 49.4749C275.25 49.075 274.45 48.7999 273.6 48.625C272.675 48.4249 271.75 48.3 270.8 48.3C270.3 48.275 269.775 48.35 269.3 48.475C268.975 48.55 268.7 48.7249 268.525 48.975C268.4 49.175 268.325 49.425 268.325 49.65C268.325 49.875 268.425 50.1 268.575 50.3C268.8 50.5751 269.1 50.8001 269.425 50.975C270 51.275 270.6 51.5501 271.2 51.8C272.55 52.25 273.85 52.875 275.05 53.625C275.875 54.15 276.55 54.85 277.025 55.7C277.425 56.5001 277.625 57.375 277.6 58.275C277.625 59.45 277.275 60.625 276.625 61.6C275.925 62.5999 274.95 63.375 273.825 63.825C272.6 64.35 271.1 64.625 269.3 64.625C268.15 64.625 267.025 64.5251 265.9 64.3001C265.025 64.1501 264.151 63.875 263.35 63.5C263.176 63.4001 263.05 63.225 263.075 63.0251V58.6751C263.075 58.6001 263.1 58.5001 263.175 58.4501C263.25 58.4 263.325 58.4251 263.4 58.475C264.375 59.0501 265.4 59.45 266.5 59.7C267.45 59.95 268.45 60.075 269.45 60.075C270.4 60.075 271.075 59.95 271.525 59.725C271.925 59.55 272.2 59.125 272.2 58.675C272.2 58.3249 272 58 271.6 57.675C271.2 57.35 270.375 56.975 269.15 56.5C267.875 56.05 266.7 55.45 265.6 54.7C264.825 54.15 264.175 53.425 263.7 52.575C263.3 51.775 263.1 50.9 263.125 50.025C263.125 48.95 263.425 47.925 263.975 47C264.6 46.0001 265.525 45.2 266.6 44.7C267.775 44.1 269.25 43.825 271.025 43.825C272.05 43.825 273.1 43.9 274.125 44.05C274.875 44.1499 275.6 44.35 276.275 44.625C276.375 44.65 276.475 44.75 276.525 44.85C276.55 44.95 276.575 45.05 276.575 45.15V49.225C276.575 49.3249 276.525 49.425 276.45 49.4749C276.225 49.525 276.1 49.525 276 49.4749Z" fill="#00A9FF"/>
</g>
<rect x="385" y="22" width="60" height="60" rx="14" fill="black"/>
<path d="M415.046 52C415.046 48.4227 417.946 45.5227 421.523 45.5227C425.1 45.5227 428 48.4228 428 52C428 55.5773 425.1 58.4772 421.523 58.4772C417.946 58.4772 415.046 55.5773 415.046 52Z" fill="#00BCFF"/>
<path d="M402.091 64.9545C402.091 61.3772 404.991 58.4772 408.568 58.4772L412.02 56.6548L415.045 58.4772V64.9545C415.045 68.5318 412.145 71.4317 408.568 71.4317C404.991 71.4317 402.091 68.5318 402.091 64.9545Z" fill="#00CF7F"/>
<path d="M415.045 32.5681L411.521 38.6914L415.045 45.5226H421.432C425.009 45.5226 427.909 42.6227 427.909 39.0454C427.909 35.4681 425.009 32.5681 421.432 32.5681H415.045Z" fill="#FF7361"/>
<path d="M402 39.0454C402 42.6227 404.9 45.5226 408.477 45.5226L411.913 46.8498L415.045 45.5226V32.5681H408.477C404.9 32.5681 402 35.4681 402 39.0454Z" fill="#FF4D12"/>
<path d="M402.091 52C402.091 55.5774 404.991 58.4773 408.568 58.4773H415.045V45.5227H408.568C404.991 45.5227 402.091 48.4228 402.091 52Z" fill="#B659FF"/>
<path d="M593.5 23H554.5C548.701 23 544 27.701 544 33.5V70.5C544 76.299 548.701 81 554.5 81H593.5C599.299 81 604 76.299 604 70.5V33.5C604 27.701 599.299 23 593.5 23Z" fill="#49021F"/>
<path d="M566 39.5V65.625C566 65.875 565.888 66 565.665 66H561.335C561.11 66 561 65.875 561 65.625V39.5C560.994 39.4545 560.998 39.408 561.012 39.3643C561.026 39.3206 561.051 39.2808 561.083 39.2483C561.116 39.2157 561.156 39.1912 561.199 39.1768C561.243 39.1623 561.29 39.1583 561.335 39.165H565.708C565.903 39.165 566 39.2775 566 39.5Z" fill="#FF3366"/>
<path d="M578.96 66.5001C576.058 66.5001 573.825 65.6776 572.09 64.0351C570.355 62.3926 569.485 59.9651 569.485 56.7501C569.485 53.8284 570.418 51.4284 572.283 49.5501C573.238 48.5631 574.386 47.7831 575.655 47.2584C576.924 46.7337 578.287 46.4756 579.66 46.5001C580.274 46.4891 580.887 46.5546 581.485 46.6951V38.2351C581.481 38.2034 581.484 38.1711 581.494 38.1407C581.504 38.1103 581.521 38.0826 581.543 38.0599C581.566 38.0371 581.593 38.0199 581.624 38.0095C581.654 37.9991 581.686 37.9959 581.718 38.0001H586.29C586.42 38.0001 586.485 38.0776 586.485 38.2351V61.9226C586.485 62.9226 586.918 63.7751 586.985 64.5051C586.999 64.5773 586.987 64.6522 586.952 64.7166C586.916 64.7809 586.859 64.8308 586.79 64.8576C584.545 65.9526 581.603 66.5001 578.96 66.5001ZM581.485 62.6276V50.5351C581.323 50.2501 580.463 50.0001 579.583 50.0001C578.854 49.9813 578.13 50.1253 577.464 50.4216C576.798 50.7178 576.207 51.1589 575.733 51.7126C574.58 53.063 573.958 54.787 573.983 56.5626C573.983 58.7526 574.733 60.2526 575.713 61.2951C576.176 61.8261 576.746 62.2527 577.386 62.5467C578.026 62.8406 578.721 62.9951 579.425 63.0001C580.36 63.0001 581.273 62.8601 581.485 62.6276Z" fill="#FF3366"/>
<defs>
<clipPath id="clip0_106_186">
<rect width="60" height="60" fill="white" transform="translate(228 22)"/>
</clipPath>
</defs>
</svg>
