<svg width="108" height="51" viewBox="0 0 108 51" fill="none" xmlns="http://www.w3.org/2000/svg">
<path fill-rule="evenodd" clip-rule="evenodd" d="M74.2642 0.999445C71.4432 1.73818 68.7564 3.26896 66.2455 5.59487C62.3607 9.12484 60.5282 12.9405 60.4005 17.7648L60.3463 20.2442L57.6765 20.6988C51.837 21.6707 47.7774 21.7933 39.3535 21.167C28.9034 20.3569 27.0861 19.9597 10.7162 14.5954C5.05124 12.7683 0.382604 11.3147 0.315375 11.3721C0.243665 11.4333 0.697863 11.9871 1.34296 12.6257C4.25435 15.5835 14.0586 19.7733 24.5868 22.5819C28.045 23.492 29.4443 23.6959 37.6385 24.3051C47.5985 25.0455 51.1698 24.8867 57.7295 23.5439C59.3395 23.1728 60.71 22.9169 60.7727 22.9216C60.8353 22.9262 61.27 23.7406 61.7617 24.6923C64.21 29.8703 70.1876 33.6468 77.9992 34.943C79.9509 35.2836 81.8428 35.524 82.2426 35.4539C82.6065 35.4144 83.9268 35.3836 85.1177 35.3432L87.3254 35.3451L87.413 36.82C87.4846 37.6074 87.954 39.3104 88.4868 40.5564C91.1445 46.9272 98.5815 51.0035 105.994 50.1527C108.853 49.8119 108.482 49.489 103.84 48.1331C95.8048 45.8385 92.7754 43.6207 90.9321 38.7165C90.574 37.7747 90.2709 36.5458 90.2499 35.9244C90.2294 34.8454 90.2986 34.8173 91.9824 34.356C96.8868 33.0899 101.006 30.4217 101.641 28.0854C101.972 26.7372 101.303 25.1234 100.07 24.3786C98.874 23.6366 96.0873 23.4627 94.7283 24.0148C91.8045 25.2326 89.0562 28.0983 88.0832 30.967L87.618 32.3676L85.4029 32.465C82.434 32.5396 76.7587 31.7558 74.3817 30.926C69.9167 29.3877 65.8119 26.1083 64.7397 23.2539C64.4698 22.4809 64.3152 21.8496 64.3866 21.7925C64.4558 21.7644 65.6113 21.297 66.9011 20.7731C72.7082 18.4301 77.9177 14.8655 80.5848 11.3407C82.3731 9.02347 83.0229 7.34126 82.9501 5.21432C82.8853 1.68193 78.971 -0.206446 74.2678 1.00803L74.2642 0.999445ZM80.1965 4.08613C80.7822 4.62053 80.9137 5.05462 80.7999 6.19012C80.516 9.10589 77.4157 12.6983 73.0121 15.2455C70.0162 16.982 64.3026 19.3652 63.8962 19.0729C63.4898 18.7806 63.7404 15.8624 64.3039 14.0407C64.8696 12.19 66.2898 9.91195 67.8645 8.26522C71.6871 4.27304 78.0732 2.1021 80.2007 4.08644L80.1965 4.08613ZM98.5516 26.6743C99.7377 27.5445 96.5926 29.9897 92.7504 31.1392C91.4368 31.5324 90.973 31.5604 90.9946 31.2708C91.0355 30.7205 92.9342 28.216 93.7714 27.6252C95.5117 26.3485 97.5855 25.9494 98.5516 26.6743Z" fill="#DBFFC4"/>
</svg>
