<svg width="54" height="54" viewBox="0 0 54 54" fill="none" xmlns="http://www.w3.org/2000/svg">
<path d="M48.9373 24.75V38.25C49.0695 39.39 48.9421 40.5451 48.5648 41.6289C48.1875 42.7128 47.57 43.6972 46.7585 44.5087C45.947 45.3202 44.9626 45.9377 43.8787 46.315C42.7949 46.6923 41.6398 46.8197 40.4998 46.6875H13.4998C12.3599 46.8197 11.2047 46.6923 10.1209 46.315C9.03711 45.9377 8.05264 45.3202 7.24115 44.5087C6.42966 43.6972 5.81217 42.7128 5.43487 41.6289C5.05756 40.5451 4.93021 39.39 5.06234 38.25V15.75C4.93021 14.61 5.05756 13.4549 5.43487 12.3711C5.81217 11.2873 6.42966 10.3028 7.24115 9.49134C8.05264 8.67985 9.03711 8.06236 10.1209 7.68506C11.2047 7.30775 12.3599 7.1804 13.4998 7.31253H31.4998C31.9474 7.31253 32.3766 7.49032 32.6931 7.80679C33.0095 8.12325 33.1873 8.55248 33.1873 9.00003C33.1873 9.44758 33.0095 9.8768 32.6931 10.1933C32.3766 10.5097 31.9474 10.6875 31.4998 10.6875H13.4998C9.95159 10.6875 8.43734 12.2018 8.43734 15.75V36.5625L14.1523 30.8475C14.5772 30.426 15.1514 30.1894 15.7498 30.1894C16.3483 30.1894 16.9225 30.426 17.3473 30.8475L19.4623 32.9625C19.6726 33.1687 19.9554 33.2841 20.2498 33.2841C20.5443 33.2841 20.827 33.1687 21.0373 32.9625L32.1523 21.8475C32.5772 21.426 33.1514 21.1894 33.7498 21.1894C34.3483 21.1894 34.9225 21.426 35.3473 21.8475L45.5623 32.0625V24.75C45.5623 24.3025 45.7401 23.8733 46.0566 23.5568C46.3731 23.2403 46.8023 23.0625 47.2498 23.0625C47.6974 23.0625 48.1266 23.2403 48.4431 23.5568C48.7595 23.8733 48.9373 24.3025 48.9373 24.75ZM17.9841 17.4375C17.2371 17.4396 16.5214 17.7381 15.9943 18.2674C15.4672 18.7968 15.1717 19.5137 15.1727 20.2607C15.1738 21.0077 15.4712 21.7238 15.9998 22.2517C16.5284 22.7795 17.2449 23.076 17.992 23.076C18.739 23.076 19.4555 22.7795 19.9841 22.2517C20.5127 21.7238 20.8102 21.0077 20.8112 20.2607C20.8123 19.5137 20.5168 18.7968 19.9896 18.2674C19.4625 17.7381 18.7469 17.4396 17.9998 17.4375H17.9841ZM41.6923 11.3175L42.1873 10.8248V15.75C42.1873 16.1976 42.3651 16.6268 42.6816 16.9433C42.9981 17.2597 43.4273 17.4375 43.8748 17.4375C44.3224 17.4375 44.7516 17.2597 45.0681 16.9433C45.3845 16.6268 45.5623 16.1976 45.5623 15.75V10.8248L46.0573 11.3175C46.3772 11.6156 46.8003 11.7779 47.2375 11.7702C47.6747 11.7625 48.0918 11.5854 48.401 11.2762C48.7102 10.967 48.8873 10.5499 48.895 10.1127C48.9027 9.67553 48.7404 9.25242 48.4423 8.93253L45.0673 5.55753C44.7506 5.24206 44.3218 5.06494 43.8748 5.06494C43.4278 5.06494 42.999 5.24206 42.6823 5.55753L39.3073 8.93253C39.0093 9.25242 38.847 9.67553 38.8547 10.1127C38.8624 10.5499 39.0395 10.967 39.3487 11.2762C39.6579 11.5854 40.075 11.7625 40.5122 11.7702C40.9493 11.7779 41.3724 11.6156 41.6923 11.3175Z" fill="#FAFAFA"/>
</svg>
