<svg width="62" height="42" viewBox="0 0 62 42" fill="none" xmlns="http://www.w3.org/2000/svg">
<g clip-path="url(#clip0_399_462)">
<g opacity="0.36">
<mask id="mask0_399_462" style="mask-type:luminance" maskUnits="userSpaceOnUse" x="0" y="0" width="62" height="42">
<path d="M0.000938416 0H61.9609V41.56H0.000938416V0Z" fill="white"/>
</mask>
<g mask="url(#mask0_399_462)">
<path d="M0.000938416 19.7001C0.000938416 9.46014 7.98094 5.30014 17.7009 2.00014L22.9109 0.270143C26.0309 -0.769857 28.1209 1.31014 28.1209 5.65014V35.6701C28.1209 39.4901 26.0409 41.5701 22.2209 41.5701H5.91094C2.09094 41.5701 0.0109367 39.4901 0.0109367 35.6701V19.7001H0.000938416ZM61.9609 5.64014V35.6601C61.9609 39.4801 59.8809 41.5601 56.0609 41.5601H39.7509C35.9309 41.5601 33.8509 39.4801 33.8509 35.6601V19.6901C33.8509 9.45014 41.8309 5.29014 51.5509 1.99014L56.7509 0.270143C59.8809 -0.779857 61.9609 1.31014 61.9609 5.64014Z" fill="#DE8385"/>
</g>
</g>
</g>
<defs>
<clipPath id="clip0_399_462">
<rect width="61.96" height="41.57" fill="white" transform="matrix(-1 0 0 1 61.9609 0)"/>
</clipPath>
</defs>
</svg>
