<svg width="1211" height="194" viewBox="0 0 1211 194" fill="none" xmlns="http://www.w3.org/2000/svg">
<g clip-path="url(#clip0_153_70)">
<path d="M496.379 53.9195C496.379 53.9195 496.379 53.8634 496.373 53.8354C496.373 53.8298 496.373 53.8186 496.373 53.813C496.373 53.8466 496.379 53.8859 496.384 53.9195H496.379Z" fill="#7649B7"/>
<path d="M496.35 53.6113C496.344 53.5329 496.333 53.4544 496.327 53.376C496.327 53.3424 496.322 53.3088 496.316 53.2752C496.316 53.292 496.316 53.3088 496.316 53.3256C496.305 53.2136 496.294 53.1072 496.282 53.0007C496.31 53.2696 496.333 53.5385 496.361 53.8073C496.361 53.8185 496.361 53.8297 496.361 53.8353C496.361 53.869 496.367 53.9026 496.372 53.9362C496.372 53.8746 496.361 53.8185 496.356 53.7569C496.356 53.7121 496.344 53.6617 496.344 53.6169L496.35 53.6113Z" fill="#7649B7"/>
<path d="M781.82 150.818C781.82 150.858 781.814 150.897 781.809 150.936C781.809 150.919 781.809 150.908 781.809 150.891C781.809 150.869 781.809 150.841 781.814 150.818H781.82Z" fill="#7649B7"/>
<path d="M1317.44 108.225C1302.8 110.471 1286.2 113.025 1261.59 115.031C1239.17 116.862 1230.54 116.543 1214.87 115.977C1197.92 115.361 1172.29 114.426 1111.59 115.602C1097.3 115.882 1086.07 116.179 1077.05 116.414C1053.44 117.042 1042.67 117.327 1022.22 116.173C1003.75 115.137 992.026 113.731 983.464 112.706C970.064 111.099 963.944 110.365 951.21 113.053C950.736 113.154 950.154 113.277 949.475 113.423C939.681 115.535 909.869 121.971 895.497 117.652L895.259 117.579C893.615 117.081 888.613 115.557 881.724 114.846C876.841 114.342 871.896 114.342 867.018 114.846C866.939 114.851 866.866 114.868 866.792 114.891C866.532 114.633 866.17 114.566 865.899 114.829C865.679 115.042 865.453 115.216 865.221 115.417C865.012 115.591 864.82 115.815 864.616 116.022C864.255 116.386 863.938 116.823 863.61 117.232C863.299 117.624 863.017 118.05 862.706 118.442C862.288 118.98 861.881 119.501 861.44 120.01C861.061 120.397 860.683 120.761 860.265 121.063C860.157 121.114 860.05 121.153 859.937 121.181C859.92 121.181 859.897 121.181 859.88 121.175C859.79 121.097 859.711 121.007 859.632 120.907C859.711 120.996 859.795 121.08 859.88 121.17C859.722 120.991 859.586 120.783 859.456 120.565C859.123 119.915 858.778 119.282 858.411 118.66C858.19 118.308 857.959 117.971 857.71 117.663C857.495 117.411 857.28 117.159 857.054 116.924C856.585 116.537 856.071 116.129 855.506 116.106C855.229 116.061 854.963 116.078 854.692 116.151C854.477 116.274 854.263 116.403 854.053 116.532C853.861 116.739 853.669 116.946 853.483 117.159C853.302 117.383 853.143 117.63 853.008 117.915C852.674 118.515 852.448 119.148 852.211 119.82C851.815 120.923 851.476 122.072 851.148 123.226C850.764 124.564 850.38 125.909 850.007 127.259C849.402 129.477 848.826 131.712 848.181 133.919C847.955 134.669 847.729 135.42 847.515 136.171C847.356 136.675 847.181 137.14 846.972 137.588C846.932 137.487 846.898 137.38 846.865 137.274C846.882 137.324 846.893 137.375 846.91 137.431C846.164 134.955 845.327 132.535 844.367 130.211C843.88 129.034 843.31 127.942 842.705 126.872C842.434 126.396 842.089 125.993 841.767 125.595C841.507 125.287 841.23 125.035 840.913 124.856C840.8 124.794 840.687 124.732 840.574 124.671C840.326 124.604 840.083 124.587 839.834 124.615C839.727 124.637 839.63 124.654 839.523 124.676C839.286 124.766 839.048 124.884 838.822 125.029C838.523 125.337 838.268 125.623 838.008 125.987C837.607 126.553 837.212 127.13 836.782 127.656C836.68 127.752 836.579 127.841 836.471 127.925C836.432 127.942 836.398 127.953 836.358 127.97C836.336 127.942 836.307 127.908 836.285 127.88C836.222 127.752 836.172 127.623 836.126 127.488C835.669 125.864 835.341 124.167 834.979 122.497C834.719 121.31 834.448 120.122 834.177 118.935C833.481 115.837 832.792 112.701 831.876 109.715C831.639 108.925 831.419 108.124 831.142 107.357C830.995 107.049 830.842 106.752 830.678 106.466C830.396 106.096 830.136 105.8 829.791 105.553C829.214 105.144 828.508 105.015 827.881 105.262C827.129 105.547 826.649 106.5 826.389 107.458C825.756 109.799 825.383 112.275 824.925 114.689C824.597 116.42 824.292 118.162 823.953 119.893C823.755 120.89 823.563 121.887 823.365 122.884C823.309 122.447 823.246 122.01 823.19 121.573C822.981 120.044 822.772 118.52 822.534 116.991C822.32 115.624 822.076 114.23 821.743 112.908C821.596 112.336 821.41 111.81 821.155 111.317C820.924 110.858 820.647 110.471 820.375 110.062C820.076 109.609 819.607 109.362 819.166 109.362C818.544 109.362 818.013 109.833 817.691 110.544C817.487 110.986 817.29 111.423 817.12 111.9C816.917 112.46 816.804 113.048 816.702 113.653C816.555 114.471 816.481 115.322 816.368 116.157C816.204 117.338 816.041 118.526 815.882 119.708C815.6 121.848 815.323 123.993 815.035 126.133C814.724 128.452 814.424 130.782 814.085 133.09C813.972 133.829 813.865 134.574 813.752 135.313C813.61 132.49 813.452 129.667 813.294 126.844C813.136 124.004 812.904 121.175 812.712 118.341C812.486 115.081 812.169 111.821 811.745 108.611C811.497 106.774 811.271 104.937 810.892 103.139C810.711 102.276 810.445 101.453 810.174 100.641C809.892 99.8116 809.462 99.0554 809.106 98.2768C808.62 97.1845 807.552 96.686 806.732 97.403C806.371 97.7167 805.964 98.0079 805.653 98.4169C805.342 98.8426 805.116 99.2403 804.907 99.7668C804.506 100.786 804.432 101.996 804.28 103.122C804.02 104.943 803.793 106.769 803.579 108.606C803.33 110.695 803.081 112.796 802.85 114.891C802.318 119.663 801.81 124.441 801.312 129.219C800.923 132.944 800.566 136.68 800.188 140.405C800.063 141.638 799.933 142.87 799.809 144.108C799.781 143.676 799.747 143.245 799.719 142.814C799.43 138.708 799.125 134.591 798.781 130.491C798.532 127.522 798.283 124.553 798.035 121.579C797.888 119.82 797.69 118.078 797.503 116.33C797.198 113.49 796.904 110.65 796.605 107.81C796.412 105.979 796.158 104.153 795.915 102.338C795.717 100.893 795.469 99.4755 795.169 98.064C794.824 96.434 794.282 94.9048 793.728 93.3924C793.564 92.9499 793.411 92.5129 793.259 92.0648C792.914 91.0566 791.902 90.5412 791.162 90.8717C790.399 91.2078 789.608 91.4487 789.02 92.2665C788.749 92.6474 788.529 93.1571 788.359 93.6332C788.167 94.1654 788.048 94.7199 787.941 95.2913C787.839 95.8346 787.788 96.3947 787.709 96.9437C787.619 97.6215 787.489 98.288 787.381 98.9658C787.149 100.478 786.991 101.996 786.793 103.514C786.471 106.046 786.166 108.567 785.855 111.098C785.618 113.02 785.414 114.952 785.2 116.874C784.968 118.98 784.702 121.086 784.493 123.192C784.024 127.841 783.538 132.485 783.097 137.14C782.668 141.699 782.244 146.27 781.82 150.829C781.831 150.684 781.848 150.544 781.865 150.398C781.848 150.566 781.831 150.734 781.814 150.902C781.809 150.964 781.803 151.025 781.797 151.093C781.797 151.042 781.803 150.997 781.809 150.947C781.521 153.781 781.232 156.61 780.95 159.444C780.854 157.551 780.774 155.658 780.684 153.765C780.481 149.412 780.339 145.054 780.17 140.691C780.091 138.579 780.051 136.462 779.989 134.35C779.91 131.734 779.842 129.124 779.763 126.519C779.627 121.68 779.469 116.846 779.316 112.006C779.181 107.682 778.994 103.363 778.74 99.0498C778.649 97.4814 778.536 95.9242 778.406 94.3614C778.26 92.5802 778.146 90.7933 777.988 89.0176C777.836 87.3036 777.621 85.612 777.299 83.9483C776.993 82.3744 776.383 81.0356 775.812 79.624C775.541 78.9463 774.993 78.5262 774.439 78.5262C773.84 78.5262 773.399 78.9687 773.06 79.624C772.772 80.201 772.489 80.7443 772.252 81.3661C772.037 81.915 771.924 82.548 771.805 83.1417C771.63 84.038 771.557 84.9902 771.444 85.9033C771.257 87.3316 771.071 88.7544 770.884 90.1827C770.59 92.4457 770.325 94.7143 770.053 96.9773C769.822 98.9042 769.607 100.831 769.398 102.758C769.149 104.987 768.883 107.217 768.669 109.452C768.414 112.196 768.154 114.941 767.9 117.686C767.753 119.271 767.595 120.851 767.482 122.441C767.261 125.461 767.041 128.48 766.821 131.505C766.713 132.966 766.6 134.417 766.532 135.885C766.493 136.725 766.453 137.565 766.408 138.405C766.301 136.002 766.193 133.599 766.114 131.196C765.939 125.925 765.769 120.66 765.594 115.389C765.476 111.871 765.351 108.359 765.232 104.847C765.125 101.845 765.069 98.8426 764.916 95.8402C764.673 91.331 764.436 86.8163 764.198 82.3015C764.119 80.8788 764.051 79.456 763.972 78.0276C763.848 75.6302 763.639 73.2328 763.441 70.841C763.232 68.3596 762.955 65.9005 762.672 63.4359C762.548 61.9907 762.458 60.5344 762.186 59.1228C762.045 58.389 761.785 57.6776 761.485 57.0559C761.31 56.6526 761.084 56.3221 760.785 56.0812C760.429 55.7732 760.056 55.5659 759.666 55.3586C759.208 55.1066 758.586 55.2914 758.174 55.6275C757.744 55.9804 757.416 56.5686 757.281 57.2463C757.134 58.0249 756.975 58.8035 756.851 59.5877C756.744 60.2487 756.687 60.9265 756.619 61.5986C756.529 62.5565 756.444 63.5143 756.359 64.4778C756.224 65.9622 756.083 67.4465 755.947 68.9365C755.743 71.1771 755.557 73.4289 755.359 75.6694C754.969 80.2066 754.63 84.7494 754.274 89.2865C754.133 91.1238 754.025 92.9723 753.907 94.8151C753.715 97.7279 753.517 100.641 753.33 103.553C753.019 108.197 752.799 112.857 752.545 117.512C752.194 123.847 751.917 130.199 751.618 136.535C751.595 136.983 751.573 137.436 751.556 137.885C751.516 135.336 751.476 132.787 751.454 130.233C751.358 120.089 751.284 109.939 751.222 99.7892C751.2 96.5796 751.16 93.37 751.126 90.1603C751.086 86.7771 751.092 83.3938 751.007 80.0162C750.889 75.3222 750.77 70.6338 750.646 65.9398C750.595 63.8896 750.527 61.8395 750.448 59.7838C750.346 57.2015 750.227 54.6305 750.007 52.0706C749.9 50.8271 749.764 49.5836 749.589 48.3569C749.385 46.9565 749.018 45.5897 748.735 44.2118C748.549 43.2988 748.035 42.5594 747.373 42.3073C747.029 42.1785 746.684 42.1785 746.333 42.3073C745.887 42.4809 745.367 42.9515 745.169 43.562C744.779 44.7327 744.378 45.8698 744.158 47.1357C744.039 47.8023 743.982 48.5193 743.932 49.2083C743.881 49.8916 743.835 50.575 743.796 51.264C743.717 52.5747 743.615 53.8855 743.519 55.1962C743.372 57.2743 743.214 59.3581 743.078 61.4418C742.801 65.9061 742.507 70.3705 742.264 74.8404C742.027 79.2712 741.761 83.6963 741.558 88.127C741.298 93.6612 741.044 99.1954 740.784 104.735C740.637 107.928 740.529 111.132 740.405 114.331C740.264 117.927 740.128 121.523 739.987 125.119C739.84 128.95 739.687 132.776 739.54 136.607C739.484 135.7 739.433 134.787 739.376 133.88C739.105 129.281 738.805 124.682 738.557 120.083C738.28 114.879 737.997 109.687 737.715 104.483C737.534 101.078 737.438 97.6663 737.308 94.255C737.189 91.163 737.053 88.0598 736.963 84.9678C736.822 80.2626 736.686 75.5462 736.545 70.841C736.432 66.9816 736.319 63.1222 736.121 59.2684C736.059 58.0921 735.963 56.9158 735.929 55.7339C735.895 54.7089 735.906 53.6894 735.855 52.6644C735.805 51.6393 735.674 50.631 735.403 49.6732C735.217 49.0234 735.013 48.3737 734.657 47.8639C734.341 47.4326 733.934 47.0853 733.533 46.8277C732.984 46.4636 732.453 46.2843 731.848 46.5196C731.125 46.7941 730.503 47.6287 730.322 48.6481C730.085 49.9813 729.836 51.3032 729.661 52.6532C729.559 53.4149 729.492 54.1823 729.412 54.9441C729.367 55.4147 729.294 55.8852 729.277 56.3613C729.249 56.6638 729.22 56.9663 729.186 57.2687C729.062 58.5066 728.938 59.7446 728.813 60.9825C728.322 65.8949 727.87 70.8186 727.406 75.7367C726.977 80.3466 726.638 84.979 726.248 89.5946C725.858 94.2942 725.547 99.0162 725.202 103.721C724.597 111.877 724.066 120.038 723.546 128.2C723.523 128.592 723.495 128.989 723.473 129.382C723.263 121.596 723.122 113.815 722.981 106.024C722.8 95.9298 722.608 85.8416 722.41 75.7479C722.331 71.6868 722.207 67.6202 722.099 63.5591C722.031 61.0721 721.964 58.5963 721.896 56.1092C721.839 53.9975 721.76 51.8745 721.675 49.7628C721.613 48.228 721.528 46.7044 721.415 45.1696C721.28 43.3884 721.026 41.6407 720.777 39.8819C720.585 38.5151 719.545 37.5629 718.595 37.5629C717.646 37.5629 716.651 38.5207 716.414 39.8819C716.295 40.5933 716.171 41.2878 716.075 42.0048C715.973 42.7442 715.922 43.506 715.854 44.2454C715.747 45.4441 715.707 46.6596 715.628 47.8583C715.543 49.0906 715.453 50.3286 715.363 51.5609C715.221 53.499 715.086 55.4315 714.944 57.3696C714.605 62.0131 714.272 66.6511 713.95 71.3003C713.271 80.9964 712.61 90.6981 711.949 100.394C710.943 115.132 710.067 129.88 709.202 144.634C709.101 141.402 708.999 138.176 708.92 134.938C708.784 129.365 708.643 123.791 708.507 118.218C708.417 114.527 708.332 110.835 708.242 107.144C708.14 102.803 708.066 98.4561 707.931 94.115C707.75 88.4463 707.569 82.772 707.388 77.1034C707.253 72.8911 706.987 68.7013 706.766 64.4946C706.676 62.7077 706.58 60.9209 706.49 59.1396C706.45 58.3946 706.393 57.6552 706.354 56.9214C706.292 55.7115 706.23 54.5016 706.122 53.2917C706.015 52.0762 705.857 50.8943 705.608 49.718C705.461 49.029 705.235 48.3961 704.975 47.7799C704.862 47.5783 704.749 47.371 704.636 47.1637C704.432 46.8221 704.223 46.4748 704.02 46.1387C703.539 45.3321 702.612 45.0968 701.917 45.3601C701.205 45.629 700.589 46.4524 700.408 47.4662C700.177 48.7602 699.939 50.0429 699.781 51.3648C699.6 52.8828 699.504 54.4232 699.391 55.9524C699.301 57.1791 699.188 58.417 699.086 59.6437C698.922 61.621 698.752 63.5984 698.6 65.5813C698.244 70.1744 697.888 74.7676 697.577 79.372C696.944 88.6648 696.322 97.9575 695.729 107.262C695.169 116.106 694.593 124.951 694.011 133.79C693.711 138.366 693.451 142.948 693.106 147.513C692.7 152.868 692.293 158.223 691.891 163.567C691.874 163.763 691.863 163.959 691.846 164.155C691.846 164.054 691.835 163.959 691.829 163.858C691.727 162.105 691.626 160.352 691.547 158.593C691.354 154.162 691.1 149.732 690.987 145.295C690.84 139.783 690.693 134.277 690.546 128.76C690.512 127.522 690.518 126.267 690.501 125.029C690.467 121.831 690.439 118.627 690.405 115.428C690.365 111.827 690.309 108.225 690.315 104.629C690.326 98.5737 690.343 92.5241 690.354 86.469C690.377 77.4339 690.456 68.41 690.512 59.3805C690.541 54.6249 690.473 49.8692 690.45 45.1248C690.439 42.4417 690.422 39.7587 690.411 37.0756C690.399 34.6053 690.36 32.1351 690.32 29.6705C690.286 27.8164 690.219 25.9679 690.117 24.1195C690.026 22.4558 689.828 20.8146 689.648 19.1734C689.535 18.6244 689.337 18.1483 689.049 17.745C688.619 17.1345 688.02 16.7928 687.41 16.7928C686.409 16.7928 685.403 17.7786 685.172 19.1734C685.081 19.7335 684.985 20.2825 684.912 20.8482C684.799 21.6324 684.748 22.4446 684.68 23.24C684.618 23.9794 684.573 24.7188 684.516 25.447C684.42 26.6737 684.318 27.9004 684.228 29.1215C684.07 31.2445 683.906 33.3674 683.753 35.4904C683.403 40.274 683.052 45.0632 682.713 49.8468C682.125 58.2042 681.532 66.5671 681.035 74.9356C680.69 80.7555 680.345 86.581 680 92.4009C679.78 96.1595 679.61 99.918 679.413 103.677C679.249 106.909 679.085 110.129 678.921 113.356C678.853 114.739 678.768 116.134 678.712 117.529C678.542 121.786 678.367 126.049 678.192 130.306C678.073 124.861 677.949 119.411 677.83 113.961C677.802 112.701 677.802 111.435 677.796 110.169C677.762 106.97 677.734 103.761 677.706 100.562C677.672 96.8428 677.627 93.1235 677.604 89.4098C677.542 80.1842 677.502 70.9586 677.406 61.7275C677.372 57.9577 677.327 54.1879 677.288 50.4126C677.265 48.2504 677.265 46.0771 677.225 43.9149C677.163 40.8957 677.09 37.871 677.028 34.8574C676.994 33.2162 676.954 31.5806 676.92 29.9449C676.881 27.9732 676.7 26.0071 676.558 24.041C676.558 23.4585 676.451 22.9207 676.242 22.411C675.937 21.6884 675.439 21.1507 674.863 20.9266C673.671 20.4673 672.32 21.4756 672.015 23.1784C671.907 23.7946 671.8 24.4051 671.709 25.0269C671.602 25.8279 671.546 26.6513 671.489 27.4635C671.404 28.5614 671.376 29.6705 671.308 30.7796C671.223 32.1855 671.133 33.5803 671.048 34.9862C670.929 36.9579 670.799 38.9296 670.675 40.9013C670.376 45.6682 670.082 50.4294 669.794 55.1962C669.279 63.5703 668.782 71.9445 668.29 80.3242C667.154 99.7276 666.063 119.148 664.933 138.546C664.843 140.069 664.758 141.587 664.668 143.105C664.447 146.864 664.232 150.628 663.899 154.375C663.842 154.913 663.786 155.451 663.724 155.988C663.548 154.213 663.362 152.431 663.181 150.656C662.825 146.774 662.424 142.892 662.13 138.999C661.904 136.047 661.672 133.09 661.446 130.132C661.299 128.177 661.113 126.228 660.994 124.267C660.672 119.047 660.338 113.832 660.011 108.611C659.92 107.133 659.79 105.648 659.734 104.164C659.655 102.159 659.57 100.159 659.496 98.1592C659.281 92.8546 659.067 87.5613 658.852 82.2567C658.801 80.8788 658.824 79.4952 658.807 78.1229C658.773 74.8908 658.739 71.6476 658.705 68.41C658.671 64.8083 658.615 61.2121 658.626 57.6104C658.632 51.9306 658.648 46.2507 658.654 40.5765C658.654 37.8486 658.626 35.1263 658.609 32.3984C658.592 30.2754 658.581 28.1469 658.569 26.0239C658.552 23.4753 658.383 20.9546 658.253 18.4172C658.253 17.8458 658.146 17.3249 657.948 16.832C657.654 16.1262 657.162 15.5997 656.597 15.3812C655.388 14.9163 654.178 15.9414 653.822 17.577C653.686 18.1931 653.562 18.8037 653.449 19.4311C653.319 20.2041 653.279 21.0275 653.212 21.8117C653.093 23.1168 653.065 24.4387 652.991 25.7495C652.923 26.9538 652.844 28.1637 652.771 29.368C652.652 31.3005 652.539 33.2274 652.426 35.1599C652.177 39.6074 651.917 44.055 651.703 48.4969C651.477 53.1293 651.217 57.7617 651.03 62.3996C650.81 68.0291 650.584 73.6585 650.358 79.288C650.092 86.0377 649.911 92.793 649.713 99.5483C649.696 96.546 649.679 93.5436 649.662 90.5412C649.634 85.9313 649.685 81.3269 649.696 76.7225C649.719 67.2281 649.691 57.7337 649.662 48.2336C649.651 44.1838 649.527 40.1227 649.448 36.0673C649.414 34.4373 649.385 32.8185 649.295 31.1941C649.216 29.7041 649.143 28.2141 649.063 26.7297C648.962 24.7804 648.702 22.8647 648.493 20.9378C648.38 20.3833 648.182 19.9016 647.893 19.4927C647.453 18.8821 646.854 18.5348 646.232 18.5348C645.186 18.5348 644.248 19.5319 643.971 20.9378C643.847 21.5652 643.723 22.1758 643.627 22.8087C643.508 23.5705 643.468 24.3827 643.406 25.1557C643.304 26.4104 643.287 27.682 643.214 28.9423C643.14 30.1802 643.067 31.4181 642.994 32.656C642.875 34.5941 642.762 36.5266 642.643 38.4591C642.378 42.9179 642.112 47.3654 641.846 51.8185C641.23 62.0187 640.609 72.219 639.976 82.4192C639.41 91.5775 638.794 100.73 638.195 109.883C637.958 113.53 637.653 117.159 637.376 120.795C636.98 125.931 636.635 131.084 636.172 136.21C635.997 138.198 635.816 140.181 635.629 142.164C635.296 145.547 634.934 148.914 634.477 152.269C634.33 153.35 634.205 154.442 634.075 155.529C633.985 154.145 633.894 152.762 633.804 151.378C633.685 149.552 633.555 147.726 633.454 145.895C633.295 142.87 633.137 139.839 632.973 136.815C632.894 135.353 632.804 133.902 632.753 132.44C632.572 126.822 632.385 121.192 632.205 115.574C632.08 111.748 632.052 107.917 631.984 104.086C631.905 99.6828 631.809 95.2801 631.758 90.8829C631.696 85.668 631.639 80.4643 631.577 75.2493C631.47 65.7437 631.368 56.2325 631.266 46.7212C631.176 37.7757 631.074 28.8359 630.859 19.896C630.826 18.4172 630.164 17.1121 629.13 16.72C628.52 16.4847 627.853 16.6023 627.31 17.0504C626.83 17.4369 626.316 18.2211 626.225 19.0166C626.084 20.2657 626.005 21.5036 625.976 22.7695C625.954 23.5481 625.954 24.3267 625.926 25.0997C625.875 26.5785 625.818 28.0517 625.762 29.5304C625.683 31.6422 625.592 33.7595 625.507 35.8713C625.304 40.7837 625.083 45.7018 624.863 50.6142C624.501 58.6019 624.128 66.5783 623.755 74.566C623.111 88.4127 622.461 102.259 621.862 116.112C621.71 107.922 621.568 99.7332 621.455 91.5439C621.32 81.7638 621.212 71.9949 621.11 62.2148C621.065 57.9017 621.014 53.5886 620.963 49.2755C620.924 46.2451 620.884 43.2091 620.85 40.1676C620.828 38.3751 620.805 36.577 620.788 34.7846C620.766 32.9697 620.732 31.1605 620.67 29.3512C620.602 27.4971 620.404 25.6711 620.217 23.8394C620.11 23.3128 619.924 22.8591 619.647 22.467C619.234 21.8901 618.663 21.5652 618.081 21.5652C617.68 21.5652 617.313 21.7052 616.962 21.9853C616.516 22.3438 616.024 23.0832 615.945 23.8338C615.758 25.5254 615.589 27.2114 615.47 28.9143C615.385 30.1746 615.301 31.4461 615.216 32.7121C615.052 35.1431 614.882 37.5629 614.713 39.9939C614.447 43.9037 614.17 47.8247 613.91 51.7457C613.232 61.8227 612.554 71.8941 611.876 81.9599C611.288 90.6365 610.745 99.3187 610.186 107.99C609.886 112.611 609.598 117.221 609.304 121.842C609.072 125.494 608.858 129.152 608.586 132.804C607.965 141.257 607.405 149.709 606.608 158.134C606.535 158.896 606.456 159.657 606.365 160.413C606.314 159.54 606.264 158.666 606.207 157.792C606.1 155.966 605.981 154.14 605.885 152.308C605.636 147.687 605.359 143.066 605.139 138.445C604.879 132.938 604.613 127.415 604.353 121.909C604.173 118.106 604.076 114.28 603.952 110.471C603.85 107.374 603.754 104.282 603.653 101.184C603.619 100.125 603.573 99.0666 603.562 98.0023C603.489 92.2833 603.415 86.5698 603.342 80.8508C603.223 71.5524 603.257 62.2484 603.246 52.9444C603.223 36.3642 603.302 19.7727 603.336 3.1813C603.336 1.42805 602.285 -0.0283203 601.036 -0.0283203C599.787 -0.0283203 598.713 1.43365 598.741 3.1813C598.73 4.49764 598.724 5.80837 598.719 7.11911C598.702 7.92011 598.679 8.71552 598.662 9.51652C598.6 11.8299 598.555 14.1489 598.487 16.4623C598.363 20.7642 598.238 25.0605 598.114 29.3568C597.797 39.5962 597.47 49.83 597.131 60.0639C596.52 78.6606 595.876 97.2574 595.215 115.854C594.893 124.962 594.503 134.059 594.135 143.161C593.796 151.58 593.316 159.993 592.886 168.412C592.886 168.289 592.881 168.171 592.875 168.048C592.756 163.511 592.604 158.98 592.513 154.442C592.4 148.858 592.293 143.268 592.18 137.683C592.101 133.667 592.078 129.65 592.033 125.64C591.801 106.483 591.705 87.3092 591.547 68.1467C591.479 60.3663 591.383 52.5859 591.292 44.8055C591.259 41.9152 591.213 39.0193 591.162 36.1289C591.112 33.3898 591.066 30.6507 591.016 27.9116C590.999 27.0658 590.987 26.22 590.97 25.3742C590.936 23.4025 590.801 21.4308 590.71 19.4647C590.659 18.406 590.337 17.465 589.659 16.9048C589.326 16.6415 588.97 16.5071 588.591 16.5071C588.071 16.5071 587.438 16.7984 587.088 17.3753C586.771 17.8963 586.489 18.3444 586.33 19.0166C586.296 19.1846 586.251 19.347 586.217 19.5151C586.172 19.9464 586.133 20.3889 586.093 20.8202C586.042 21.3748 586.082 21.9573 586.059 22.5118C586.059 22.6463 586.042 22.7863 586.036 22.9207C585.957 24.1082 585.884 25.307 585.805 26.4945C585.669 28.567 585.522 30.6395 585.375 32.7121C585.036 37.6581 584.703 42.6154 584.375 47.5615C583.759 56.871 583.182 66.1862 582.606 75.507C582.058 84.3797 581.611 93.2579 581.125 102.136C580.888 106.517 580.718 110.902 580.509 115.283C580.328 119.187 580.131 123.086 579.972 126.99C579.758 132.233 579.543 137.464 579.328 142.696C579.255 144.483 579.181 146.264 579.108 148.051C578.887 153.462 578.689 158.896 578.203 164.278C578.215 164.127 578.232 163.976 578.249 163.819C578.147 164.878 578.045 165.937 577.977 167.001C577.915 167.936 577.864 168.86 577.785 169.785C577.774 169.897 577.757 170.014 577.746 170.126C577.672 169.561 577.61 168.995 577.548 168.435C577.418 167.281 577.299 166.116 577.169 164.956C576.932 162.867 576.694 160.783 576.457 158.688C576.084 155.411 575.796 152.112 575.468 148.824C575.095 144.102 574.705 139.38 574.326 134.653C574.292 134.266 574.287 133.863 574.264 133.471C574.202 132.16 574.134 130.844 574.072 129.533C573.914 126.334 573.761 123.136 573.603 119.943C573.541 118.722 573.456 117.501 573.45 116.28C573.445 113.63 573.428 110.992 573.416 108.348C573.405 105.307 573.394 102.265 573.383 99.2291C573.383 98.1872 573.383 97.1509 573.411 96.1091C573.592 90.2556 573.772 84.3965 573.953 78.543C574.072 74.7844 574.326 71.0427 574.541 67.3009C574.722 64.1809 574.903 61.0553 575.084 57.9353C575.146 56.8206 575.202 55.7059 575.287 54.5856C575.705 48.9898 576.129 43.394 576.553 37.7982C576.768 34.9358 576.977 32.0791 577.192 29.2224C577.339 27.3067 577.48 25.3854 577.621 23.4697C577.689 22.5455 577.757 21.6156 577.825 20.6858C577.926 19.4367 578.017 18.1819 578.068 16.9216C578.09 16.4175 578.096 15.919 578.09 15.4148C578.068 15.1572 578.039 14.8995 578.017 14.6418C577.983 14.1993 577.926 13.7456 577.864 13.3031C577.745 12.3733 577.016 11.7235 576.378 11.7235C575.739 11.7235 575.005 12.3733 574.891 13.3031C574.615 15.5269 574.417 17.7674 574.202 19.9968C573.761 24.4835 573.315 28.9703 572.868 33.457C572.642 35.7424 572.439 38.0278 572.224 40.3132C572.06 42.0945 571.873 43.8757 571.738 45.6626C571.506 48.6033 571.28 51.5385 571.048 54.4792C570.918 56.1428 570.76 57.8065 570.67 59.4701C570.658 59.6381 570.653 59.8062 570.641 59.9742C570.658 57.6776 570.63 55.3698 570.63 53.0733C570.625 50.7095 570.619 48.3512 570.602 45.9874C570.579 43.7525 570.568 41.5119 570.551 39.2769C570.534 37.815 570.523 36.353 570.506 34.8854C570.5 34.0956 570.54 33.3114 570.574 32.5272C570.602 31.8326 570.534 31.1437 570.432 30.4603C570.314 29.6817 569.963 29.0879 569.613 28.4942C569.234 27.85 568.488 27.6652 567.946 27.878C567.375 28.0965 566.894 28.7462 566.747 29.5472C566.369 31.5974 565.939 33.6251 565.685 35.72C565.47 37.4789 565.255 39.2321 565.041 40.9854C564.781 43.0635 564.504 45.1416 564.295 47.231C564.289 47.2926 564.283 47.3598 564.278 47.4214C564.266 45.8418 564.249 44.2678 564.238 42.6938C564.238 42.0608 564.238 41.4279 564.221 40.7893C564.108 37.6301 563.989 34.4597 563.876 31.3005C563.837 30.1858 563.797 29.0767 563.752 27.9564C563.673 26.0688 563.639 24.1811 563.532 22.2934C563.407 20.1144 563.136 17.9803 562.735 15.8685C562.622 15.2692 562.509 14.6698 562.401 14.0593C562.254 13.2135 561.814 12.4629 561.282 12.0316C560.751 11.6003 559.999 11.3874 559.406 11.6899C559.101 11.8411 558.796 11.9475 558.49 12.0764C557.846 12.3508 557.349 12.799 556.852 13.4151C556.676 13.7232 556.507 14.0369 556.331 14.3506C556.247 14.513 556.168 14.6866 556.094 14.8715C555.834 15.4932 555.653 16.199 555.478 16.8768C555.184 18.0419 555.088 19.3246 554.981 20.5401C554.885 21.5988 554.817 22.6687 554.726 23.7274C554.54 25.503 554.342 27.2675 554.19 29.0487C554.014 31.0764 553.884 33.1154 553.766 35.1599C553.636 37.35 553.494 39.5458 553.393 41.7416C553.37 42.1841 553.353 42.6266 553.331 43.0691C553.195 42.0328 553.059 40.9966 552.912 39.9659C552.748 38.7784 552.579 37.5853 552.415 36.3978C552.228 35.0591 552.053 33.7091 551.844 32.376C551.584 30.7123 551.115 29.1607 550.691 27.5699C550.476 26.7577 550.188 26.0968 549.64 25.6486C549.278 25.363 548.894 25.2173 548.476 25.2173C548.057 25.2173 547.679 25.363 547.317 25.6486C546.814 26.1864 546.277 26.6401 545.82 27.2507C545.294 27.9564 545.04 28.9815 544.768 29.8889C544.57 30.5667 544.463 31.2949 544.367 32.0007C544.231 33.0369 544.164 34.09 544.107 35.1375C544.028 36.7003 544.034 38.2631 543.949 39.8259C543.841 41.8536 543.694 43.8757 543.604 45.9034C543.372 51.0455 543.265 56.1933 543.152 61.341C543.078 64.6514 543.005 67.9563 542.932 71.2667C542.722 66.864 542.508 62.4669 542.253 58.0697C542.01 53.9359 541.79 49.7964 541.524 45.6682C541.349 42.8843 541.168 40.0947 540.993 37.3052C540.903 35.8993 540.818 34.4989 540.733 33.0929C540.643 31.5638 540.53 30.0402 540.388 28.5222C540.23 26.8586 539.993 25.2229 539.778 23.5817C539.654 22.6463 539.004 21.8621 538.371 21.6212C538.015 21.4868 537.659 21.4868 537.303 21.6212C536.845 21.8005 536.313 22.2822 536.104 22.9095C535.81 23.789 535.488 24.646 535.279 25.5758C535.076 26.5057 535.002 27.5475 534.917 28.511C534.748 30.4603 534.72 32.4208 534.691 34.3869C534.669 35.8377 534.629 37.2772 534.573 38.7224C534.454 42.1841 534.341 45.6458 534.217 49.1074C534.064 53.6446 533.906 58.1874 533.731 62.7245C533.273 74.6892 532.809 86.6538 532.34 98.6185C532.171 102.92 532.001 107.228 531.82 111.53C531.803 110.124 531.781 108.712 531.764 107.306C531.713 103.301 531.662 99.2963 531.538 95.2913C531.329 88.4463 531.12 81.6014 530.911 74.7564C530.865 73.356 530.792 71.9613 530.724 70.5609C530.538 66.7744 530.357 62.9878 530.17 59.1956C530.08 57.2351 530.012 55.269 529.882 53.3085C529.673 50.0989 529.458 46.8837 529.249 43.6741C528.91 38.5039 528.514 33.345 528.102 28.1861C527.943 26.2536 527.813 24.3155 527.627 22.3886C527.435 20.3777 527.101 18.4228 526.79 16.4399C526.615 15.3364 525.898 14.429 525.135 14.1321C524.716 13.9753 524.292 13.9753 523.874 14.1321C523.682 14.2441 523.496 14.3562 523.309 14.4682C522.959 14.7539 522.682 15.1404 522.473 15.6165C522.151 16.1598 521.834 16.7032 521.625 17.3417C521.331 18.2379 521.139 19.1678 520.998 20.1312C520.692 22.0861 520.613 24.1082 520.579 26.1024C520.54 28.1245 520.523 30.141 520.461 32.1631C520.37 35.0422 520.274 37.9214 520.184 40.8005C520.099 43.3156 520.009 45.8306 519.924 48.3456C519.845 46.7324 519.782 45.1248 519.675 43.5116C519.308 38.039 518.98 32.5608 518.539 27.0994C518.336 24.5564 518.138 22.0189 517.929 19.4759C517.827 18.1875 517.731 16.8936 517.641 15.6053C517.533 14.0985 517.397 12.5973 517.183 11.1185C517.008 9.88621 516.64 8.73232 516.335 7.55602C516.211 6.92866 515.985 6.39092 515.657 5.9316C515.165 5.24263 514.493 4.85613 513.797 4.85613C512.622 4.85613 511.571 5.97642 511.254 7.55602C510.909 9.29806 510.497 11.0121 510.248 12.7878C509.943 14.9555 509.762 17.1737 509.604 19.3694C509.35 22.8255 509.197 26.2984 509.005 29.7601C508.954 30.7347 508.903 31.7094 508.847 32.6896C508.575 31.8438 508.197 31.0708 507.603 30.5891C507.01 30.1074 506.479 30.001 505.8 29.9225C505.829 29.9225 505.851 29.9337 505.879 29.9393C505.795 29.9225 505.704 29.9057 505.62 29.8889C505.156 29.8945 504.721 30.057 504.314 30.3819C503.8 30.802 503.218 31.6702 503.127 32.5384C502.941 34.3701 502.732 36.2017 502.545 38.039C502.398 39.4562 502.229 40.8845 502.155 42.3129C502.104 43.3492 502.048 44.391 501.997 45.4273C501.833 48.7209 501.669 52.0202 501.499 55.3194C501.494 55.2354 501.483 55.1514 501.477 55.0618C501.398 54.1151 501.313 53.1741 501.223 52.233C501.223 51.9698 501.194 51.7121 501.149 51.46C501.002 49.9309 500.844 48.3961 500.697 46.8669C500.607 45.9314 500.522 44.996 500.426 44.0606C500.437 44.195 500.448 44.3294 500.465 44.4639C500.279 42.5986 500.047 40.7333 499.844 38.8736C499.736 37.9158 499.623 36.9579 499.516 35.9945C499.38 34.7902 499.244 33.5915 499.041 32.4096C498.838 31.2389 498.482 30.1186 498.188 28.9759C497.967 28.1133 497.645 27.4019 497.063 26.9314C496.498 26.4721 495.808 26.3432 495.175 26.5897C494.881 26.7017 494.576 26.7745 494.277 26.8698C494 26.9762 493.734 27.1218 493.48 27.3011C493.169 27.5083 492.92 27.8276 492.655 28.1245C492.468 28.4158 492.293 28.7238 492.135 29.0431C492.044 29.1944 491.96 29.3568 491.886 29.5304C491.609 30.1186 491.44 30.8244 491.259 31.4685C490.987 32.4264 490.874 33.4738 490.767 34.4877C490.643 35.6696 490.558 36.8627 490.451 38.0558C490.27 39.8315 490.049 41.5959 489.88 43.3772C489.688 45.4161 489.546 47.4662 489.422 49.522C489.343 50.8103 489.264 52.1042 489.19 53.3925C489.156 52.9108 489.117 52.4291 489.083 51.9474C488.71 46.7044 488.343 41.4671 487.93 36.2242C487.755 33.9164 487.568 31.603 487.387 29.2952C487.252 27.6259 487.116 25.9567 486.986 24.2875C486.947 23.7778 486.907 23.2736 486.867 22.7639C486.737 21.0499 486.472 19.3582 486.257 17.661C486.144 17.1065 485.941 16.6247 485.652 16.2102C485.211 15.5941 484.607 15.2468 483.985 15.2468C482.906 15.2468 482.035 16.2606 481.713 17.661C481.521 18.5012 481.306 19.319 481.142 20.1704C480.95 21.1787 480.905 22.2654 480.815 23.3016C480.645 25.2846 480.6 27.2899 480.577 29.2896C480.543 31.575 480.526 33.8659 480.504 36.1457C480.475 38.9464 480.447 41.7472 480.419 44.5479C480.362 49.7572 480.289 54.9609 480.255 60.1703C480.193 70.6562 480.165 81.1532 480.035 91.6391C479.95 98.5177 479.871 105.396 479.786 112.275C479.724 117.266 479.571 122.262 479.458 127.247C479.413 129.258 479.368 131.275 479.322 133.286C479.108 128.3 478.893 123.315 478.673 118.33C478.605 116.75 478.48 115.176 478.379 113.591C478.13 109.793 477.887 105.996 477.644 102.203C477.531 100.484 477.44 98.7585 477.299 97.0445C477.011 93.6724 476.723 90.306 476.429 86.9339C476.237 84.6765 476.056 82.4136 475.83 80.1618C475.491 76.8177 475.152 73.4793 474.812 70.1352C474.536 67.4185 474.213 64.713 473.914 62.0019C473.784 60.8536 473.643 59.711 473.501 58.5627C473.4 57.7 473.298 56.8318 473.19 55.9692C473.027 54.6025 472.744 53.2581 472.507 51.9138C472.371 51.1408 471.97 50.4462 471.484 50.0485C471.009 49.6676 470.291 49.4435 469.76 49.7404C469.443 49.9085 469.133 50.0597 468.822 50.2613C468.528 50.4462 468.285 50.7431 468.042 51.0399C467.561 51.6281 467.29 52.7148 467.081 53.5158C466.883 54.2832 466.838 55.1626 466.776 55.9692C466.714 56.8094 466.725 57.6664 466.742 58.5066C466.765 59.963 466.748 61.4026 466.708 62.8534C466.606 66.4047 466.505 69.9616 466.403 73.5129C466.262 78.4758 466.126 83.4498 465.996 88.4183C465.866 93.2467 465.753 98.0752 465.578 102.909C465.374 108.561 465.205 114.224 464.956 119.87C464.634 127.186 464.323 134.501 463.939 141.811C463.922 138.501 463.905 135.19 463.899 131.88C463.894 124.856 463.882 117.837 463.877 110.813C463.877 106.511 463.826 102.209 463.786 97.9071C463.752 94.1822 463.724 90.4572 463.69 86.7267C463.679 85.3431 463.673 83.9484 463.639 82.5592C463.504 76.5377 463.362 70.5049 463.238 64.489C463.198 62.6069 463.108 60.7192 463.046 58.8371C462.961 56.3557 462.871 53.8855 462.792 51.404C462.729 49.2699 462.628 47.1357 462.543 45.0016C462.509 44.139 462.475 43.2708 462.441 42.4081C462.385 40.8341 462.345 39.2601 462.266 37.6861C462.17 35.8601 461.927 34.0732 461.723 32.2639C461.622 31.7654 461.441 31.3397 461.181 30.97C460.921 30.6115 460.61 30.3538 460.254 30.2194C459.881 30.0794 459.508 30.0794 459.135 30.2194C458.779 30.3538 458.468 30.6059 458.208 30.97C457.79 31.7094 457.315 32.3984 456.999 33.2386C456.676 34.09 456.496 35.0815 456.326 36.0113C455.976 37.983 455.863 40.0443 455.721 42.0664C455.591 43.9037 455.422 45.7298 455.292 47.5671C455.145 49.6172 455.026 51.6785 454.919 53.7398C454.721 57.42 454.557 61.1001 454.421 64.7859C454.263 69.1214 454.105 73.4569 453.947 77.7868C453.794 75.8823 453.63 73.9778 453.472 72.0789C453.331 70.3481 453.172 68.6228 453.014 66.892C452.929 65.9061 452.828 64.9203 452.754 63.9288C452.664 62.6741 452.636 61.397 452.387 60.1759C452.268 59.6101 452.087 59.0388 451.839 58.5627C451.703 58.2434 451.528 57.9577 451.324 57.7281C451.132 57.4816 450.906 57.2575 450.686 57.0447C450.426 56.7142 450.126 56.4789 449.781 56.3445C449.392 56.1989 449.007 56.1989 448.617 56.3445C447.849 56.6358 447.334 57.448 447.086 58.4786C446.662 60.2207 446.164 61.9291 445.837 63.716C445.492 65.6149 445.288 67.5698 445.096 69.5079C444.859 71.9277 444.638 74.3475 444.463 76.7729C444.407 77.5907 444.345 78.4141 444.288 79.2319C444.13 75.5126 443.977 71.7932 443.791 68.0739C443.7 66.3318 443.616 64.5954 443.508 62.859C443.435 61.7163 443.361 60.568 443.288 59.4197C443.237 58.6299 443.192 57.8457 443.13 57.0615C443.073 56.3725 443 55.7003 442.881 55.0282C442.751 54.3 442.451 53.611 442.22 52.9388C441.903 52.0314 441.106 51.4937 440.417 51.4937C439.495 51.4937 438.631 52.3787 438.405 53.6334C438.241 54.524 438.049 55.4035 437.907 56.2997C437.744 57.3079 437.676 58.3554 437.591 59.3805C437.421 61.4082 437.376 63.4527 437.303 65.4972C437.263 66.7015 437.218 67.9059 437.184 69.1102C437.065 72.7063 436.952 76.3024 436.839 79.8985C436.67 85.3375 436.562 90.7765 436.438 96.2155C436.342 100.265 436.24 104.321 436.144 108.371C436.099 107.217 436.059 106.068 436.014 104.915C435.822 99.6212 435.5 94.3502 435.217 89.0625C435.003 85.007 434.68 80.9516 434.392 76.9074C434.257 74.9693 434.087 73.0424 433.934 71.1155C433.855 70.096 433.77 69.0766 433.686 68.0571C433.55 66.4327 433.426 64.8139 433.262 63.1894C433.115 61.7163 432.861 60.2879 432.646 58.8315C432.55 58.1762 432.171 57.5712 431.764 57.2351C431.617 57.1511 431.459 57.0615 431.306 56.9719C430.995 56.8542 430.685 56.843 430.374 56.9439C430.153 56.9775 429.933 57.0223 429.713 57.0783C429.294 57.1903 428.854 57.672 428.594 58.1033C428.141 58.8651 427.859 59.7222 427.684 60.68C427.378 62.394 427.475 64.2089 427.316 65.951C427.339 65.7101 427.367 65.4636 427.39 65.2172C426.898 70.1968 426.632 75.2157 426.378 80.229C426.197 83.8419 426.016 87.4493 425.836 91.0622C425.57 96.3443 425.355 101.621 425.118 106.903C424.914 111.435 424.711 115.966 424.462 120.492C424.327 122.934 424.191 125.377 424.061 127.824C423.92 126.295 423.778 124.772 423.643 123.242C423.405 120.643 423.242 118.027 423.055 115.428C422.671 110.286 422.36 105.15 422.06 100.002C421.992 98.8202 421.925 97.627 421.857 96.4451C421.823 95.8346 421.789 95.2296 421.761 94.6135C421.721 93.8181 421.682 93.0227 421.614 92.2273C421.535 91.3198 421.393 90.4348 421.269 89.5386C420.986 87.6453 419.037 86.9563 418.127 88.3847C417.839 88.8272 417.562 89.2809 417.33 89.7906C417.228 90.1211 417.126 90.4516 417.03 90.7821C416.968 91.0286 416.912 91.2862 416.866 91.5439C416.623 92.8098 416.59 94.1822 416.482 95.4817C416.505 95.2521 416.527 95.0168 416.55 94.7815C416.002 100.417 415.651 106.08 415.301 111.737C415.16 113.955 415.03 116.173 414.911 118.392C414.843 117.434 414.781 116.476 414.719 115.518C414.357 109.877 413.962 104.237 413.696 98.5905C413.662 97.8231 413.605 97.0669 413.509 96.3163C413.408 95.4873 413.097 94.7311 412.837 93.9861C412.611 93.3476 412.051 92.9611 411.56 92.9611C410.989 92.9611 410.599 93.3812 410.282 93.9861C410.248 94.0477 410.214 94.1094 410.181 94.1766C409.938 94.6079 409.695 95.0504 409.502 95.5377C409.259 96.1651 409.101 96.8821 408.96 97.5654C408.734 98.6353 408.581 99.7668 408.429 100.87C408.253 102.17 408.067 103.469 407.886 104.769C407.575 107.015 407.298 109.278 407.021 111.535C406.744 113.759 406.49 115.983 406.224 118.207C406.106 119.215 405.987 120.229 405.863 121.243C405.795 121.842 405.727 122.436 405.654 123.03C405.654 123.08 405.642 123.125 405.637 123.175C405.512 122.492 405.399 121.808 405.292 121.125C405.1 119.91 404.896 118.688 404.727 117.462C404.41 115.188 404.15 112.902 403.89 110.617C403.845 109.844 403.856 109.032 403.568 108.343C403.218 107.508 402.636 107.099 401.963 107.071C401.341 107.043 400.855 107.558 400.607 108.27C400.471 107.015 400.352 105.766 400.222 104.517C400.132 103.649 400.053 102.775 399.962 101.907C399.844 100.775 399.629 99.2515 398.996 98.4056C398.612 97.7951 397.414 96.1763 395.407 95.8906C393.164 95.5713 391.423 97.2518 390.027 98.6073C389.648 98.9714 389.298 99.3187 388.953 99.6044C385.737 102.31 381.154 101.991 376.717 101.682L375.909 101.626C368.438 101.128 360.825 101.145 353.455 101.156C342.598 101.178 331.369 101.201 320.518 99.5595C302.681 96.8709 293.949 98.4057 282.889 100.344C272.027 102.254 258.502 104.623 231.205 103.839C218.178 103.464 210.447 102.601 202.969 101.772C194.368 100.814 185.478 99.8228 168.568 99.5483C142.361 99.117 122.694 100.803 115.285 101.436L113.911 101.554C74.9149 104.797 -10.0798 101.335 -138.711 91.2582C-139.338 91.2078 -139.875 91.6727 -139.926 92.2889C-139.977 92.905 -139.513 93.4428 -138.886 93.4932C-10.1307 103.581 74.9884 107.043 114.103 103.789L115.482 103.671C122.858 103.044 142.441 101.363 168.534 101.789C185.336 102.063 194.176 103.044 202.721 103.996C210.243 104.836 218.025 105.699 231.143 106.08C234.862 106.186 238.32 106.236 241.559 106.236C262.3 106.236 273.796 104.22 283.285 102.551C294.141 100.646 302.715 99.1394 320.178 101.778C331.199 103.441 342.514 103.413 353.461 103.397C360.785 103.385 368.364 103.369 375.757 103.861L376.559 103.917C381.222 104.242 386.5 104.606 390.417 101.313C390.818 100.977 391.219 100.59 391.604 100.209C392.751 99.0946 393.943 97.9407 395.079 98.1088C395.922 98.232 396.538 98.8706 396.865 99.3019C396.894 99.4811 396.944 99.6548 397.029 99.8004C397.057 100.086 397.103 100.372 397.131 100.663C397.199 101.229 397.267 101.795 397.329 102.366C397.549 105.015 397.894 107.659 398.199 110.292C398.346 111.53 398.482 112.773 398.64 114.006C398.826 115.518 399.047 117.036 399.216 118.554C399.29 119.445 399.346 120.346 399.567 121.187C399.691 121.657 399.872 122.161 400.132 122.52C400.341 122.811 400.59 122.979 400.855 123.147C401.2 123.366 401.528 123.483 401.907 123.338C402.116 123.259 402.319 123.097 402.494 122.878C402.653 123.842 402.828 124.8 403.014 125.746C403.161 126.469 403.365 127.169 403.529 127.875C403.721 128.709 403.975 129.438 404.393 130.093C404.766 130.687 405.416 130.939 405.959 130.849C406.564 130.748 407.112 130.463 407.507 129.785C407.892 129.118 408.056 128.379 408.152 127.556C408.27 126.581 408.434 125.612 408.553 124.632C408.745 123.03 408.943 121.428 409.135 119.831C409.423 117.451 409.7 115.076 409.988 112.689C410.237 110.65 410.48 108.611 410.757 106.567C410.91 105.458 411.057 104.349 411.209 103.234C411.492 107.25 411.74 111.272 412 115.294C412.334 120.475 412.713 125.645 413.125 130.816C413.187 131.656 413.232 132.502 413.312 133.347C413.419 134.512 413.605 135.571 414.091 136.551C414.402 137.173 414.832 137.588 415.386 137.588C415.889 137.588 416.454 137.201 416.68 136.551C416.951 135.784 417.189 135.022 417.336 134.193C417.42 133.711 417.482 133.224 417.539 132.737C417.646 131.857 417.72 130.967 417.81 130.082C417.969 128.547 418.076 127.012 418.2 125.472C418.381 123.175 418.517 120.862 418.658 118.56C418.794 116.274 418.929 113.983 419.071 111.698C419.376 116.437 419.709 121.175 420.116 125.909C420.331 128.413 420.534 130.916 420.783 133.42C420.947 135.151 421.099 136.887 421.354 138.59C421.478 139.431 421.648 140.248 421.868 141.044C422.145 142.002 422.49 142.903 422.801 143.839C423.089 144.696 423.869 145.206 424.519 145.206C425.22 145.206 425.875 144.673 426.231 143.839C426.389 143.475 426.548 143.111 426.706 142.752C426.904 142.31 427.022 141.806 427.169 141.324C427.429 140.461 427.458 139.403 427.542 138.495C427.633 137.476 427.678 136.445 427.74 135.426C427.848 133.672 427.961 131.925 428.068 130.171C428.238 127.455 428.367 124.738 428.514 122.021C428.774 117.137 429 112.252 429.204 107.357C429.424 102.198 429.622 97.0389 429.865 91.88C430.029 88.3903 430.199 84.9062 430.363 81.4109C430.447 79.624 430.532 77.8372 430.622 76.0503C430.809 78.6214 430.99 81.1924 431.165 83.7635C431.555 89.3705 431.804 94.9944 432.092 100.613C432.177 102.299 432.228 103.99 432.29 105.682C432.414 109.418 432.538 113.154 432.668 116.89C432.844 122.083 432.957 127.264 433.092 132.457C433.188 136.137 433.296 139.811 433.42 143.486C433.516 146.27 433.612 149.054 433.708 151.838C433.742 152.975 433.759 154.101 433.742 155.238C433.697 157.814 433.737 161.366 435.652 162.676C436.308 163.136 437.031 163.22 437.687 162.676C437.992 162.43 438.23 162.088 438.41 161.668C438.591 161.231 438.687 160.755 438.687 160.245C438.981 157.036 439.038 153.793 439.134 150.561C439.219 147.737 439.298 144.909 439.383 142.086C439.524 137.246 439.671 132.406 439.795 127.561C439.982 120.554 440.162 113.541 440.332 106.528C440.332 106.729 440.332 106.931 440.332 107.133C440.332 109.312 440.258 111.507 440.219 113.686C440.162 116.89 440.1 120.1 440.044 123.304C439.982 126.67 439.919 130.031 439.852 133.398C439.818 135.106 439.789 136.815 439.755 138.529C439.722 140.271 439.705 142.024 439.682 143.772C439.671 145.01 439.676 146.253 439.693 147.485C439.716 148.88 439.818 150.247 439.919 151.63C439.919 152.196 440.021 152.723 440.225 153.216C440.518 153.921 441.01 154.442 441.57 154.666C442.152 154.885 442.785 154.773 443.305 154.347C443.762 153.977 444.254 153.232 444.339 152.471C444.475 151.255 444.627 150.04 444.701 148.813C444.757 147.878 444.814 146.942 444.87 146.001C444.938 144.836 445.006 143.665 445.074 142.5C445.232 139.694 445.385 136.882 445.537 134.076C445.803 129.242 446.051 124.402 446.317 119.562C446.605 114.263 446.888 108.964 447.187 103.671C447.498 98.204 447.786 92.7426 448.171 87.2868C448.499 82.6488 448.792 77.9996 449.182 73.3672C449.358 75.5126 449.533 77.6524 449.708 79.7977C449.94 82.632 450.126 85.4775 450.335 88.3175C450.477 90.2388 450.612 92.1601 450.725 94.0869C451.025 99.3355 451.381 104.578 451.579 109.833C451.72 113.552 451.856 117.271 451.997 120.991C452.065 122.817 452.161 124.648 452.195 126.48C452.296 132.877 452.398 139.274 452.5 145.671C452.523 147.166 452.5 148.656 452.489 150.157C452.489 150.32 452.489 150.482 452.489 150.65C452.319 160.542 452.127 170.44 451.923 180.332C451.901 181.441 451.89 182.556 451.873 183.671C451.793 185.564 453.065 187.144 454.365 187.144C455.021 187.144 455.659 186.779 456.123 186.13C456.609 185.446 456.812 184.612 456.852 183.671C457.083 177.996 457.168 172.311 457.27 166.631C457.372 160.666 457.462 154.689 457.547 148.723C457.694 138.31 457.824 127.897 457.982 117.473C458.151 106.136 458.389 94.8095 458.621 83.4666C458.649 81.9991 458.705 80.5427 458.751 79.0751C458.869 75.339 458.982 71.6028 459.095 67.8666C459.163 65.6989 459.22 63.5311 459.299 61.3634C459.299 61.2233 459.31 61.0777 459.316 60.9377C459.361 62.1196 459.406 63.2959 459.451 64.4778C459.553 66.9144 459.564 69.3622 459.621 71.8045C459.734 76.6217 459.881 81.4333 459.915 86.2561C459.966 93.1011 460.011 99.946 460.062 106.791C460.096 111.519 460.062 116.252 460.05 120.979C460.045 125.685 460.028 130.395 460.028 135.106C460.028 140.904 460.028 146.707 460.034 152.515C460.034 154.448 460.034 156.38 460.05 158.319C460.073 161.663 460.084 165.007 460.214 168.351C460.271 169.925 460.356 171.499 460.497 173.062C460.661 174.871 460.898 176.658 461.09 178.456C461.192 178.965 461.379 179.402 461.644 179.772C461.91 180.142 462.226 180.405 462.588 180.545C462.967 180.685 463.345 180.685 463.724 180.545C464.063 180.416 464.357 180.181 464.611 179.85C465.092 179.358 465.504 178.848 465.776 178.058C466.12 177.089 466.205 176.137 466.301 175.078C466.38 174.199 466.425 173.308 466.499 172.423C466.623 170.927 466.748 169.432 466.872 167.936C467.075 165.477 467.239 163.007 467.403 160.542C467.765 154.98 468.115 149.418 468.426 143.856C469.014 133.42 469.466 122.979 469.833 112.521C470.014 107.486 470.223 102.45 470.353 97.4142C470.517 91.1742 470.67 84.9342 470.834 78.6942C470.862 77.6187 470.89 76.5433 470.919 75.4622C471.133 77.6131 471.342 79.7697 471.557 81.9262C471.778 84.5477 471.998 87.1804 472.218 89.8075C472.371 91.6279 472.524 93.454 472.676 95.2745C472.738 96.0586 472.823 96.8428 472.868 97.6271C473.241 103.671 473.626 109.715 473.999 115.759C474.304 120.554 474.434 125.382 474.626 130.199C474.812 134.776 475.016 139.347 475.14 143.923C475.287 149.351 475.44 154.773 475.587 160.201C475.649 162.374 475.711 164.553 475.762 166.726C475.824 169.745 475.886 172.776 476.056 175.795C476.146 177.358 476.276 178.915 476.44 180.467C476.604 182.029 476.875 183.559 477.084 185.105C477.203 185.693 477.418 186.197 477.723 186.634C478.181 187.278 478.82 187.642 479.469 187.642C479.916 187.642 480.328 187.485 480.719 187.172C481.306 186.69 481.628 185.984 481.854 185.11C482.075 184.264 482.329 183.441 482.493 182.567C482.685 181.57 482.73 180.5 482.81 179.481C482.906 178.131 482.94 176.764 483.007 175.409C483.086 173.868 483.154 172.333 483.228 170.793C483.335 168.513 483.443 166.228 483.527 163.942C483.731 158.515 483.929 153.081 484.081 147.648C484.217 142.674 484.369 137.705 484.477 132.731C484.612 126.318 484.754 119.898 484.895 113.485C484.929 111.9 484.929 110.326 484.946 108.74C484.985 104.931 485.025 101.117 485.065 97.3022C485.11 93.1179 485.166 88.928 485.183 84.7438C485.206 78.4197 485.228 72.1013 485.257 65.7829C485.37 68.0347 485.483 70.2865 485.596 72.5326C485.675 74.1851 485.799 75.8431 485.833 77.5011C485.884 80.2738 485.941 83.0409 485.997 85.808C486.071 89.645 486.144 93.482 486.223 97.319C486.257 98.8986 486.319 100.484 486.314 102.063C486.291 108.315 486.263 114.56 486.24 120.811C486.223 124.805 486.234 128.81 486.161 132.804C486.037 139.94 485.912 147.082 485.788 154.218C485.726 157.697 485.652 161.17 485.568 164.648C485.488 167.97 485.415 171.286 485.336 174.608C485.257 177.968 485.223 181.329 485.183 184.696C485.166 186.264 485.969 187.687 487.043 188.107C488.32 188.6 489.857 187.513 490.157 185.637C490.586 182.942 490.614 180.209 490.716 177.47C490.784 175.661 490.852 173.857 490.92 172.048C491.01 169.471 491.095 166.894 491.185 164.323C491.383 158.621 491.547 152.924 491.722 147.222C492.027 137.123 492.231 127.023 492.44 116.913C492.677 105.262 492.926 93.6276 493.18 81.9767C493.282 77.2715 493.497 72.5718 493.661 67.8722C493.774 64.7578 493.881 61.6378 493.994 58.5291C494.045 57.1119 494.13 55.7115 494.198 54.3C494.384 50.547 494.582 46.7885 494.921 43.0579C494.995 42.3689 495.074 41.6743 495.147 40.9854C495.328 42.6098 495.526 44.2342 495.69 45.8642C495.695 45.9314 495.701 45.9986 495.707 46.0659C495.707 46.0659 495.707 46.0771 495.707 46.0827C495.712 46.1611 495.724 46.2395 495.729 46.3179C495.757 46.5868 495.786 46.8557 495.808 47.1245C495.808 47.0741 495.797 47.0237 495.791 46.9733C495.87 47.8135 495.955 48.6537 496.034 49.4995C496.034 49.4883 496.034 49.4715 496.034 49.4603C496.034 49.4827 496.034 49.5107 496.04 49.5332C496.068 49.8188 496.097 50.0989 496.119 50.3846C496.108 50.2389 496.091 50.0989 496.08 49.9533C496.13 50.4798 496.181 51.0007 496.232 51.5217C496.232 51.5217 496.232 51.5217 496.232 51.5273C496.272 51.9306 496.306 52.3283 496.351 52.7316C496.373 52.95 496.396 53.1741 496.413 53.3925C496.424 53.5046 496.436 53.6166 496.447 53.7286C496.447 53.7398 496.447 53.7566 496.447 53.7678C496.447 53.8014 496.453 53.8407 496.458 53.8743C496.47 53.9751 496.475 54.0759 496.486 54.1767C496.486 54.1879 496.486 54.1991 496.486 54.2104C496.475 54.0983 496.464 53.9919 496.453 53.8799C496.47 54.0815 496.492 54.2776 496.509 54.4792C496.509 54.5296 496.52 54.5744 496.526 54.6249C496.526 54.5968 496.526 54.5744 496.52 54.5464C496.526 54.6361 496.537 54.7257 496.543 54.8153C496.532 54.6921 496.52 54.5688 496.509 54.4512C496.509 54.4848 496.515 54.5128 496.52 54.5464C496.52 54.524 496.52 54.5016 496.515 54.4792C496.503 54.3784 496.498 54.2776 496.486 54.1767C496.481 54.0983 496.47 54.0199 496.464 53.9415C496.464 53.9863 496.47 54.0255 496.475 54.0703C496.47 54.0143 496.464 53.9527 496.458 53.8967C496.724 56.7366 496.933 59.5933 497.17 62.4389C497.329 64.3097 497.487 66.175 497.617 68.0515C497.865 71.6644 498.114 75.2717 498.363 78.8791C498.498 80.7611 498.662 82.6376 498.747 84.5253C499.035 91.0398 499.318 97.5654 499.612 104.086C499.685 105.772 499.731 107.458 499.764 109.144C499.527 117.843 499.335 126.542 499.148 135.241C498.917 146.522 498.713 157.803 498.544 169.085C498.521 170.261 498.51 171.448 498.487 172.625C498.465 173.857 498.448 175.095 498.425 176.327C498.414 177.111 498.408 177.89 498.352 178.674C498.244 179.682 498.125 180.707 498.21 181.721C498.284 182.59 498.385 183.407 498.702 184.175C498.979 184.841 499.391 185.306 499.855 185.71C500.623 186.382 501.669 186.343 502.449 185.71C502.833 185.39 503.138 184.959 503.37 184.427C503.602 183.867 503.715 183.267 503.715 182.618C503.788 181.469 503.879 180.315 503.958 179.161C504.63 179.111 505.269 178.708 505.749 178.047C505.896 177.789 506.038 177.526 506.179 177.268C506.428 176.669 506.552 176.03 506.552 175.336C507.061 167.617 507.53 159.887 507.993 152.157C508.253 147.799 508.474 143.447 508.688 139.078C508.977 133.123 509.259 127.163 509.559 121.209C509.649 119.405 509.677 117.591 509.723 115.776C509.915 112.622 510.107 109.468 510.293 106.315C510.909 96.1259 511.503 85.9369 512.034 75.7479C512.588 65.2452 513.125 54.7425 513.662 44.2454C513.78 41.9264 513.899 39.6074 514.018 37.2884C514.238 40.5205 514.447 43.7581 514.606 46.9901C514.905 53.0789 515.21 59.162 515.499 65.2452C515.589 67.1329 515.612 69.0317 515.668 70.9138C515.781 74.7788 515.9 78.6438 516.013 82.5032C516.132 86.497 516.267 90.4964 516.324 94.4902C516.425 101.744 516.527 108.998 516.629 116.246C516.776 126.956 516.793 137.666 516.844 148.382C516.894 158.083 516.894 167.807 516.991 177.515C517.013 179.688 517.036 181.867 517.053 184.04C517.075 186.001 517.149 187.945 517.239 189.905C517.29 190.924 517.499 191.826 518.03 192.566C518.533 193.271 519.223 193.669 519.935 193.669C520.647 193.669 521.342 193.271 521.845 192.566C522.377 191.826 522.586 190.924 522.637 189.905C522.783 186.83 522.784 183.743 522.823 180.663C522.857 177.856 522.885 175.05 522.919 172.244C522.976 166.99 523.038 161.741 523.072 156.487C523.106 151.149 523.151 145.822 523.207 140.478C523.264 135.257 523.298 130.048 523.383 124.828C523.58 113.317 523.784 101.795 524.004 90.2892C524.213 79.2319 524.456 68.1915 524.688 57.1399C524.75 54.3112 524.829 51.4825 524.909 48.6537C525.089 51.4264 525.265 54.1992 525.4 56.9775C525.592 60.7808 525.779 64.5786 525.965 68.3764C526.056 70.2529 526.186 72.1293 526.242 74.0114C526.446 80.397 526.655 86.7771 526.858 93.1627C526.92 95.1848 526.994 97.2181 527.056 99.2459C527.113 101.162 527.113 103.083 527.141 104.999C527.237 111.855 527.339 118.722 527.44 125.578C527.514 130.435 527.531 135.302 527.576 140.17C527.604 143.296 527.633 146.427 527.661 149.552C527.712 155.059 527.712 160.582 527.989 166.082C528.079 167.83 528.288 169.572 528.458 171.308C528.458 171.857 528.559 172.373 528.757 172.849C529.046 173.543 529.526 174.053 530.08 174.271C531.221 174.714 532.504 173.745 532.804 172.115C532.945 171.319 533.109 170.53 533.216 169.723C533.352 168.681 533.426 167.623 533.493 166.569C533.567 165.365 533.601 164.15 533.669 162.945C533.759 161.243 533.855 159.54 533.945 157.842C534.075 155.495 534.194 153.137 534.313 150.79C534.601 145.15 534.867 139.492 535.127 133.846C535.579 123.937 536.014 114.034 536.393 104.119C536.817 92.7146 537.235 81.3157 537.642 69.9168C537.8 65.5869 537.964 61.2626 538.105 56.9326C538.133 57.4816 538.167 58.0249 538.195 58.5739C538.303 60.512 538.427 62.4501 538.512 64.3882C538.8 70.9026 539.088 77.4171 539.382 83.9315C539.586 88.5807 539.654 93.2523 539.772 97.9071C539.863 101.442 539.953 104.971 540.044 108.499C540.072 109.648 540.106 110.807 540.106 111.967C540.111 118.84 540.117 125.718 540.128 132.586C540.128 134.49 540.134 136.395 540.134 138.299C540.134 140.204 540.077 142.22 540.049 144.175C539.953 150.852 539.857 157.529 539.761 164.211C539.71 167.628 539.642 171.039 539.58 174.456C539.529 177.033 539.484 179.61 539.439 182.186C539.382 185.06 539.416 187.933 539.433 190.807C539.433 192.555 540.473 194.011 541.728 194.011C542.332 194.011 542.92 193.675 543.35 193.075C543.468 192.857 543.593 192.644 543.711 192.42C543.921 191.922 544.028 191.384 544.028 190.801C544.028 190.756 544.034 190.706 544.039 190.661C544.147 189.631 544.265 188.6 544.305 187.564C544.339 186.813 544.367 186.068 544.395 185.329C544.457 183.755 544.525 182.186 544.587 180.607C544.701 177.778 544.797 174.955 544.898 172.126C545.102 166.592 545.277 161.063 545.463 155.529C545.797 145.553 546.057 135.582 546.323 125.612C546.458 120.526 546.611 115.44 546.724 110.354C546.871 103.587 547.012 96.8092 547.153 90.0427C547.244 85.9593 547.329 81.8646 547.413 77.7812C547.543 71.782 547.622 65.7773 547.798 59.7782C547.933 55.1682 548.018 50.5582 548.21 45.9482C548.267 44.5815 548.351 43.2203 548.431 41.8592C548.578 42.9515 548.724 44.0438 548.871 45.136C549.058 46.5084 549.188 47.9087 549.346 49.2923C549.521 50.8159 549.697 52.3395 549.866 53.8687C550.075 56.7422 550.279 59.6325 550.482 62.5173C550.635 64.629 550.697 66.7632 550.782 68.8861C550.906 71.9501 551.03 75.0309 551.155 78.0949C551.177 78.6606 551.177 79.2207 551.183 79.7809C551.206 81.3549 551.234 82.9233 551.256 84.4973C551.285 86.2393 551.313 87.987 551.336 89.729C551.217 92.5185 551.104 95.3081 550.985 98.0976C550.488 110.051 550.007 122.01 549.538 133.964C549.148 143.872 548.854 153.787 548.544 163.702C548.498 165.057 548.459 166.413 548.414 167.768C548.363 169.376 548.374 170.978 548.368 172.585C548.368 174.619 549.589 176.322 551.047 176.322C551.759 176.322 552.443 175.929 552.941 175.229C553.082 174.977 553.223 174.72 553.359 174.467C553.602 173.885 553.72 173.258 553.726 172.585C553.901 170.653 554.105 168.732 554.206 166.794C554.286 165.348 554.359 163.909 554.438 162.464C554.63 158.811 554.828 155.165 555.02 151.513C555.275 146.752 555.399 141.979 555.58 137.212C555.71 133.655 555.84 130.104 555.97 126.553C556.015 125.36 556.066 124.161 556.083 122.968C556.179 116.14 556.275 109.306 556.371 102.478C556.394 100.999 556.45 99.5147 556.422 98.0416C556.399 96.8148 556.371 95.5881 556.348 94.3614C556.654 86.7715 556.953 79.1759 557.258 71.586C557.422 67.4577 557.592 63.3239 557.767 59.2012C557.931 55.3418 558.1 51.4881 558.264 47.6287C558.36 45.3769 558.434 43.1195 558.558 40.8621C558.722 37.7982 558.863 34.7286 559.067 31.6646C559.09 32.2359 559.107 32.8017 559.129 33.373C559.197 35.2495 559.265 37.1316 559.333 39.0081C559.355 39.6914 559.395 40.3748 559.406 41.0526C559.457 46.9061 559.502 52.7708 559.547 58.6243C559.547 59.0836 559.525 59.5485 559.519 60.0078C559.485 61.4026 559.451 62.8029 559.412 64.1977C559.321 68.0795 559.225 71.9669 559.135 75.8543C559.078 78.1117 559.027 80.3802 558.971 82.632C558.926 84.3909 558.835 86.1553 558.762 87.9142C558.304 99.4027 557.846 110.902 557.354 122.397C556.868 133.88 556.315 145.362 556.043 156.851C556.004 158.643 557.151 160.145 558.4 160.145C559.022 160.145 559.626 159.797 560.067 159.181C560.186 158.963 560.316 158.739 560.435 158.515C560.649 157.999 560.751 157.45 560.757 156.851C560.949 154.666 560.988 152.437 561.096 150.236C561.152 149.132 561.203 148.023 561.265 146.914C561.401 144.231 561.542 141.548 561.684 138.865C562.011 132.877 562.35 126.883 562.695 120.895C563.311 110.124 564.057 99.3747 564.798 88.6255C565.374 80.2402 566.098 71.8773 566.708 63.5031C566.685 63.744 566.657 63.9961 566.634 64.2425C567.087 59.5597 567.499 54.8769 567.912 50.1941C567.968 54.8657 568.042 59.5317 568.019 64.1977C567.996 67.8498 567.985 71.502 567.968 75.1541C567.963 76.7673 567.906 78.3693 567.855 79.9881C567.737 83.7747 567.618 87.5613 567.493 91.3478C567.443 92.9947 567.409 94.6359 567.318 96.2771C566.968 102.349 566.612 108.421 566.261 114.499C566.137 116.711 565.917 118.929 565.741 121.142C565.465 124.637 565.193 128.132 564.916 131.622C564.741 133.88 564.521 136.137 564.306 138.389C564.317 138.271 564.329 138.148 564.34 138.03C563.978 141.778 563.549 145.514 563.029 149.233C562.774 151.048 562.475 152.852 562.119 154.633C561.944 155.529 561.729 156.403 561.508 157.277C561.401 157.714 561.282 158.145 561.164 158.576C561.113 158.772 561.079 158.968 561.034 159.17C560.808 159.59 560.774 160.145 561.062 160.548C561.339 160.929 561.819 160.946 562.085 160.548C562.356 160.145 562.458 159.691 562.588 159.176C563.08 157.596 563.537 156.016 563.899 154.364C564.317 152.454 564.645 150.499 564.956 148.55C565.572 144.69 566.007 140.786 566.425 136.876C566.764 133.689 567.053 130.491 567.33 127.292C567.776 122.156 568.285 117.036 568.624 111.883C568.726 110.359 568.827 108.83 568.929 107.306C568.884 110.606 568.833 113.905 568.788 117.198C568.726 121.248 568.765 125.309 568.759 129.37C568.759 132.692 568.748 136.008 568.748 139.33C568.748 140.271 568.771 141.206 568.788 142.147C568.822 144.522 568.856 146.886 568.889 149.261C568.94 152.689 568.946 156.123 569.053 159.551C569.2 164.245 569.375 168.933 569.715 173.605C569.878 175.795 570.065 177.991 570.291 180.17C570.427 181.469 570.607 182.763 570.817 184.046C571.014 185.267 571.365 186.404 571.698 187.564C571.896 188.258 572.427 188.477 572.846 187.984C572.846 187.978 572.851 187.973 572.857 187.967C573.1 187.676 573.1 187.216 572.964 186.852C572.863 186.46 572.755 186.062 572.648 185.67C572.45 184.965 572.32 184.248 572.201 183.514C572.003 182.315 571.879 181.1 571.755 179.878C570.992 171.28 570.805 162.62 570.766 153.966C570.749 150.689 570.732 147.407 570.715 144.13C570.715 142.517 570.681 140.904 570.692 139.291C570.715 136.848 570.732 134.406 570.754 131.964C570.8 132.843 570.839 133.717 570.884 134.602C570.941 135.812 571.077 137.022 571.173 138.226C571.37 140.719 571.568 143.206 571.766 145.693C571.874 147.009 571.964 148.331 572.094 149.642C572.439 153.109 572.738 156.582 573.117 160.044C573.337 162.027 573.563 164.01 573.784 165.993C573.897 167.001 574.01 168.009 574.117 169.017C574.253 170.3 574.405 171.577 574.62 172.843C574.824 174.008 575.202 175.134 575.508 176.254C575.671 176.876 575.892 177.369 576.31 177.716C576.864 178.176 577.525 178.148 578.079 177.716C578.328 177.526 578.576 177.341 578.836 177.167C579.209 176.91 579.52 176.523 579.814 176.114C580.119 175.7 580.311 175.117 580.498 174.596C580.69 174.042 580.831 173.448 580.967 172.865C581.25 171.644 581.329 170.306 581.425 169.034C581.521 167.869 581.577 166.71 581.673 165.55C582.25 159.758 582.504 153.916 582.758 148.085C582.849 146.057 582.939 144.029 583.03 141.996C583.261 136.759 583.488 131.533 583.719 126.295C583.923 121.674 584.177 117.058 584.403 112.437C584.59 108.707 584.748 104.976 584.963 101.246C585.494 91.8184 586.014 82.3912 586.613 72.9752C586.845 69.3342 587.082 65.6989 587.314 62.058C587.382 67.6986 587.449 73.3336 587.512 78.9743C587.619 88.4855 587.709 98.0023 587.8 107.519C587.89 116.778 588.026 126.032 588.161 135.291C588.207 138.602 588.291 141.906 588.365 145.217C588.444 148.975 588.512 152.734 588.614 156.487C588.732 160.778 588.834 165.068 588.987 169.365C589.077 171.964 589.162 174.568 589.252 177.167C589.292 178.316 589.331 179.458 589.36 180.612C589.394 182.057 589.439 183.503 589.608 184.931C589.687 185.598 589.784 186.208 589.925 186.852C590.06 187.463 590.23 188.051 590.371 188.656C590.592 189.575 591.049 190.303 591.739 190.566C591.914 190.633 592.084 190.661 592.259 190.661C592.434 190.661 592.604 190.628 592.779 190.566C593.225 190.392 593.745 189.922 593.949 189.311C594.39 187.967 594.859 186.645 595.254 185.273C595.452 184.578 595.559 183.822 595.678 183.105C595.802 182.366 595.899 181.615 595.989 180.87C596.396 177.599 596.548 174.277 596.758 170.972C596.876 169.034 596.989 167.102 597.091 165.158C597.408 159.282 597.73 153.4 598.046 147.525C598.238 144.007 598.351 140.484 598.504 136.966C598.747 131.303 598.984 125.64 599.222 119.977C599.34 117.126 599.453 114.275 599.561 111.423C599.646 113.95 599.73 116.476 599.815 118.997C599.934 122.531 600.149 126.054 600.318 129.578C600.499 133.291 600.669 137.005 600.872 140.719C601.115 145.071 601.33 149.423 601.601 153.776C601.765 156.464 601.934 159.153 602.098 161.836C602.166 162.979 602.24 164.122 602.291 165.27C602.353 166.782 602.466 168.272 602.692 169.757C602.912 171.213 603.534 172.434 604.082 173.666C604.483 174.563 605.15 175.14 605.924 175.14C606.309 175.14 606.665 175.005 606.998 174.736C607.315 174.479 607.569 174.12 607.761 173.672C608.18 172.317 608.643 170.983 609.044 169.611C609.457 168.199 609.745 166.771 609.988 165.287C610.548 161.976 610.808 158.571 611.101 155.199C611.305 152.863 611.491 150.533 611.667 148.191C612.073 142.635 612.48 137.072 612.887 131.516C613.204 127.236 613.436 122.946 613.712 118.655C613.956 114.835 614.199 111.009 614.442 107.189C615.221 95.112 615.996 83.0353 616.81 70.9586C616.877 76.6217 616.951 82.2847 617.036 87.9422C617.313 106.455 617.635 124.962 618.189 143.464C618.33 148.275 618.477 153.081 618.618 157.898C618.793 164.015 618.918 170.132 619.189 176.238C619.189 176.792 619.291 177.302 619.488 177.778C619.777 178.461 620.246 178.965 620.794 179.178C621.184 179.324 621.568 179.324 621.958 179.178C622.444 178.993 623.049 178.461 623.258 177.778C623.45 177.151 623.642 176.54 623.801 175.896C623.834 175.655 623.868 175.414 623.908 175.173C623.97 174.664 624.027 174.154 624.072 173.638C624.208 172.154 624.264 170.681 624.292 169.185C624.326 167.516 624.343 165.847 624.4 164.183C624.496 161.64 624.592 159.097 624.688 156.554C624.841 152.392 624.987 148.225 625.157 144.069C625.519 135.168 625.841 126.267 626.253 117.367C626.598 109.894 626.943 102.427 627.293 94.9552C627.378 99.2011 627.463 103.453 627.548 107.704C627.615 111.199 627.689 114.695 627.813 118.184C627.926 121.444 628.039 124.693 628.158 127.953C628.22 129.706 628.248 131.471 628.345 133.224C628.604 137.784 628.853 142.343 629.102 146.903C629.243 149.44 629.447 151.972 629.616 154.51C629.695 155.613 629.774 156.717 629.842 157.826C629.933 159.299 630.046 160.755 630.187 162.217C630.26 162.923 630.379 163.612 630.509 164.29C630.684 165.192 630.972 166.06 631.204 166.934C631.312 167.449 631.498 167.897 631.769 168.278C632.041 168.653 632.363 168.922 632.736 169.062C633.476 169.348 634.33 169.062 634.861 168.278C635.166 167.835 635.477 167.404 635.788 166.973C636.116 166.508 636.381 165.948 636.63 165.399C636.703 165.203 636.771 165.001 636.845 164.794C636.98 164.351 637.122 163.898 637.251 163.449C637.427 162.811 637.574 162.172 637.709 161.511C637.986 160.173 638.139 158.778 638.303 157.406C638.506 155.719 638.715 154.039 638.936 152.37C639.36 149.171 639.687 145.951 639.998 142.73C640.258 140.024 640.535 137.308 640.744 134.591C641.145 129.354 641.547 124.122 641.954 118.884C642.214 115.54 642.485 112.202 642.7 108.852C643.101 102.764 643.502 96.6748 643.909 90.5861C644.39 83.3266 644.847 76.0671 645.305 68.8021C645.328 72.8183 645.311 76.8401 645.316 80.862C645.316 84.6317 645.305 88.3959 645.339 92.1601C645.39 97.9687 645.446 103.766 645.497 109.575C645.531 113.927 645.689 118.274 645.802 122.621C645.915 127.13 646.062 131.628 646.209 136.131C646.334 139.979 646.469 143.828 646.65 147.665C646.758 150.023 646.871 152.375 647.001 154.734C647.051 155.759 647.119 156.784 647.193 157.809C647.244 158.571 647.277 159.332 647.311 160.1C647.334 160.357 647.362 160.615 647.385 160.873C647.447 161.343 647.554 161.797 647.713 162.217C647.916 162.609 648.12 162.996 648.357 163.343C648.854 164.094 649.679 164.351 650.369 164.088C651.008 163.842 651.697 163.035 651.816 162.072C651.991 160.604 652.189 159.142 652.319 157.663C652.46 156.095 652.55 154.526 652.63 152.952C652.76 150.253 652.839 147.547 652.906 144.847C652.957 142.584 653.014 140.316 653.07 138.053C653.172 133.896 653.274 129.729 653.376 125.573C653.585 116.257 653.777 106.942 654.076 97.6327C654.24 92.5522 654.41 87.4661 654.562 82.3856C654.568 82.1727 654.574 81.9542 654.585 81.7414C654.591 82.0607 654.602 82.38 654.613 82.6992C654.715 85.0854 654.817 87.4661 654.918 89.8523C655.06 93.1235 655.195 96.3835 655.337 99.6548C655.404 101.218 655.438 102.78 655.54 104.332C655.879 109.558 656.224 114.767 656.563 119.988C656.823 123.937 657.134 127.875 657.445 131.813C657.659 134.462 657.869 137.112 658.078 139.761C658.242 141.8 658.456 143.828 658.648 145.861C659.095 150.611 659.553 155.355 660.095 160.089C660.214 161.489 660.321 162.884 660.644 164.228C660.711 164.452 660.779 164.676 660.847 164.906C660.96 165.332 661.13 165.712 661.361 166.037C661.497 166.34 661.678 166.603 661.887 166.81C662.034 166.973 662.181 167.13 662.328 167.286C662.39 167.359 662.452 167.426 662.514 167.499C662.763 167.847 663.062 168.093 663.402 168.222C663.758 168.356 664.114 168.356 664.47 168.222C665.171 167.953 665.645 167.208 665.871 166.267C666.205 164.878 666.572 163.5 666.906 162.111C667.25 160.654 667.459 159.164 667.652 157.663C668.081 154.274 668.29 150.835 668.505 147.413C668.663 144.926 668.827 142.45 668.98 139.957C669.33 134.232 669.68 128.502 670.031 122.772C670.517 114.79 670.958 106.802 671.449 98.8202C671.986 90.0819 672.512 81.3381 673.055 72.5999C673.094 76.3528 673.134 80.1002 673.167 83.8587C673.258 93.2131 673.382 102.573 673.501 111.928C673.552 115.714 673.671 119.501 673.767 123.287C673.874 127.387 673.947 131.499 674.106 135.594C674.326 141.229 674.524 146.869 674.79 152.499C674.908 155.154 675.027 157.814 675.163 160.464C675.253 162.251 675.343 164.032 675.439 165.819C675.547 167.97 675.739 170.104 675.925 172.244C675.925 172.77 676.022 173.252 676.208 173.706C676.395 174.137 676.638 174.49 676.948 174.742C677.542 175.235 678.452 175.33 679.04 174.742C679.373 174.411 679.695 174.081 679.978 173.672C680.323 173.179 680.526 172.501 680.69 171.868C681.001 170.647 681.119 169.387 681.198 168.099C681.278 166.782 681.215 165.438 681.198 164.116C681.182 163.209 681.193 162.307 681.227 161.399C681.312 159.226 681.396 157.053 681.481 154.885C681.656 150.426 681.815 145.962 682.007 141.503C682.244 135.963 682.481 130.418 682.719 124.872C682.86 121.556 682.996 118.246 683.171 114.935C683.685 105.357 684.183 95.7674 684.776 86.2001C685.059 81.6294 685.307 77.053 685.629 72.4878C685.788 70.18 685.951 67.8666 686.115 65.5533C686.093 71.8997 686.065 78.2405 686.07 84.5869C686.07 90.6645 686.076 96.742 686.082 102.82C686.082 106.141 686.121 109.452 686.166 112.773C686.234 118.022 686.302 123.27 686.37 128.519C686.392 130.227 686.471 131.936 686.517 133.644C686.607 136.904 686.709 140.164 686.799 143.424C686.946 148.522 687.217 153.608 687.461 158.694C687.568 160.99 687.721 163.287 687.856 165.584C687.935 166.85 688.009 168.115 688.088 169.381C688.184 170.955 688.263 172.529 688.404 174.103C688.495 175.084 688.613 176.036 688.817 176.983C688.969 177.705 689.212 178.411 689.439 179.105C689.461 179.178 689.478 179.251 689.501 179.324C689.591 179.8 689.766 180.209 690.015 180.556C690.264 180.898 690.558 181.144 690.897 181.279C691.75 181.604 692.728 181.083 693.157 179.996C693.406 179.369 693.666 178.753 693.92 178.131C694.169 177.509 694.35 176.842 694.536 176.182C694.729 175.504 694.836 174.753 694.955 174.053C695.079 173.33 695.158 172.591 695.248 171.863C695.418 170.384 695.531 168.894 695.65 167.398C695.729 166.368 695.825 165.343 695.91 164.318C696.091 161.971 696.271 159.635 696.452 157.288C696.763 153.238 697.096 149.183 697.368 145.127C698.04 135.112 698.713 125.113 699.368 115.104C699.939 106.477 700.482 97.8455 701.087 89.2305C701.584 82.1223 702.076 75.0085 702.646 67.9115C702.72 69.2726 702.793 70.6338 702.867 71.9893C703.082 75.9719 703.2 79.9601 703.342 83.9483C703.477 88.015 703.641 92.0816 703.743 96.1483C703.895 101.974 704.048 107.799 704.201 113.619C704.653 130.956 705.139 148.286 705.806 165.606C705.885 167.656 705.964 169.706 706.037 171.762C706.071 172.647 706.105 173.538 706.133 174.428C706.167 175.487 706.207 176.534 706.28 177.587C706.371 178.881 706.586 180.114 706.829 181.363C707.066 182.584 707.897 183.458 708.801 183.458C709.705 183.458 710.581 182.59 710.773 181.363C710.988 179.951 711.226 178.557 711.395 177.134C711.582 175.577 711.695 174.003 711.808 172.434C712.017 169.527 712.141 166.603 712.316 163.685C712.446 161.562 712.576 159.428 712.701 157.305C712.966 152.936 713.232 148.561 713.498 144.186C714.057 135.05 714.611 125.914 715.21 116.79C716.114 103.055 717.03 89.3145 718.008 75.5798C718.024 76.3024 718.041 77.0194 718.058 77.742C718.29 87.9702 718.511 98.204 718.72 108.438C718.889 116.521 719.07 124.609 719.319 132.686C719.466 137.408 719.601 142.125 719.76 146.841C719.839 149.076 719.906 151.311 719.991 153.541C720.042 154.969 720.099 156.386 720.149 157.809C720.183 158.615 720.212 159.422 720.24 160.229C720.302 162.016 720.494 163.763 720.709 165.528C720.828 166.513 721.534 167.342 722.19 167.589C723.088 167.936 724.128 167.393 724.586 166.233C724.806 165.668 725.016 165.13 725.191 164.525C725.383 163.886 725.496 163.253 725.603 162.576C725.846 161.102 725.925 159.568 726.016 158.061C726.101 156.689 726.185 155.311 726.276 153.938C726.468 150.913 726.666 147.889 726.864 144.853C727.141 140.635 727.406 136.423 727.677 132.199C727.937 128.183 728.192 124.161 728.463 120.145C728.785 115.445 729.079 110.734 729.429 106.035C729.915 99.5035 730.373 92.9723 730.922 86.4466C731.215 82.9849 731.47 79.512 731.798 76.0559C731.961 74.3363 732.125 72.6111 732.289 70.8914C732.357 72.7623 732.408 74.6388 732.464 76.5097C732.6 80.7555 732.713 84.9958 732.894 89.2361C733.03 92.4121 733.159 95.5881 733.295 98.7641C733.369 100.517 733.414 102.271 733.516 104.018C733.821 109.183 734.12 114.342 734.425 119.506C734.827 126.407 735.324 133.308 735.776 140.204C736.031 144.085 736.279 147.967 736.528 151.849C736.635 153.485 736.743 155.115 736.85 156.745C736.912 157.714 736.986 158.683 737.031 159.657C737.031 160.1 737.042 160.554 737.053 160.996C737.065 161.663 737.155 162.324 737.246 162.973C737.302 163.158 737.353 163.343 737.41 163.534C737.5 163.987 737.669 164.385 737.907 164.721C738.184 165.091 738.478 165.404 738.789 165.712C739.19 166.11 739.8 166.161 740.258 165.976C740.857 165.752 741.479 165.007 741.597 164.116C741.784 162.643 741.987 161.175 742.168 159.702C742.355 158.173 742.473 156.638 742.586 155.103C742.846 151.608 742.976 148.096 743.129 144.595C743.225 142.551 743.299 140.5 743.378 138.445C743.553 133.868 743.739 129.292 743.915 124.716C744.135 119.103 744.361 113.485 744.581 107.872C744.74 103.929 744.938 99.9853 745.124 96.0474C745.277 92.7874 745.412 89.5274 745.593 86.2729C745.842 81.7022 746.09 77.137 746.339 72.5662C746.48 69.9896 746.65 67.4185 746.82 64.8475C746.899 67.693 746.978 70.5441 747.051 73.3897C747.113 75.7367 747.176 78.0781 747.243 80.4251C747.289 81.9879 747.283 83.5507 747.306 85.1191C747.424 95.2857 747.52 105.458 747.594 115.624C747.645 122.201 747.701 128.777 747.803 135.353C747.865 139.218 747.916 143.077 748.001 146.942C748.046 149.048 748.085 151.154 748.136 153.266C748.165 154.51 748.182 155.759 748.215 157.002C748.249 158.083 748.306 159.148 748.3 160.234C748.3 160.61 748.323 160.985 748.362 161.355C748.419 161.965 748.481 162.62 748.724 163.164C748.956 163.69 749.182 164.172 749.578 164.491C749.922 164.771 750.312 164.917 750.702 165.001C751.036 165.124 751.375 165.124 751.708 165.001C752.149 164.833 752.635 164.379 752.839 163.791C753.059 163.136 753.308 162.492 753.494 161.814C753.681 161.136 753.805 160.492 753.918 159.786C754.133 158.431 754.217 157.019 754.336 155.641C754.443 154.414 754.528 153.182 754.619 151.95C754.766 150.006 754.913 148.057 755.009 146.102C755.235 141.632 755.455 137.162 755.67 132.698C755.879 128.25 756.06 123.803 756.309 119.366C756.484 116.291 756.653 113.21 756.823 110.135C756.93 108.197 757.015 106.248 757.145 104.315C757.58 97.7671 757.998 91.2246 758.507 84.6933C758.869 80.0778 759.259 75.4622 759.677 70.8578C759.954 73.961 760.186 77.0698 760.361 80.1842C760.536 83.2986 760.711 86.4242 760.886 89.5442C761.016 91.824 761.146 94.1038 761.276 96.3835C761.367 97.9295 761.395 99.4867 761.452 101.038C761.83 111.188 762.203 121.344 762.559 131.499C762.672 134.596 762.836 137.7 762.977 140.792C763.124 143.928 763.266 147.06 763.435 150.191C763.633 153.843 763.825 157.495 764.029 161.147C764.113 162.699 764.193 164.245 764.283 165.791C764.351 167.018 764.424 168.25 764.492 169.471C764.577 170.933 764.758 172.367 764.939 173.812C765.023 174.238 765.176 174.602 765.396 174.916C765.73 175.375 766.188 175.644 766.662 175.644C767.403 175.644 768.245 174.893 768.38 173.812C768.55 172.501 768.708 171.191 768.799 169.863C768.906 168.267 768.917 166.665 768.94 165.063C768.963 163.578 768.991 162.105 769.03 160.621C769.115 157.546 769.2 154.465 769.285 151.39C769.409 146.819 769.646 142.265 769.85 137.7C770.048 133.219 770.392 128.76 770.703 124.295C771.02 119.747 771.461 115.221 771.867 110.684C771.896 110.354 771.93 110.029 771.958 109.698C772.365 105.878 772.749 102.058 773.207 98.2432C773.456 96.1651 773.687 94.0813 773.953 92.0088C774.122 90.7149 774.286 89.4098 774.456 88.1158C774.507 87.7293 774.552 87.3372 774.597 86.9507C774.71 87.7293 774.801 88.5191 774.885 89.3089C775.01 90.7709 775.112 92.2329 775.219 93.6948C775.338 95.252 775.468 96.8036 775.564 98.3608C775.784 101.761 775.914 105.161 776.05 108.561C776.14 110.869 776.202 113.182 776.27 115.49C776.4 119.898 776.53 124.301 776.643 128.704C776.762 133.364 776.864 138.03 777.022 142.691C777.191 147.726 777.367 152.756 777.576 157.786C777.655 159.708 777.74 161.623 777.836 163.545C777.886 164.637 777.943 165.735 777.994 166.838C778.05 168.115 778.096 169.398 778.186 170.67C778.282 172.059 778.531 173.398 778.768 174.748C778.915 175.571 779.418 176.243 780 176.467C780.797 176.77 781.554 176.266 781.99 175.336C782.221 174.837 782.464 174.355 782.69 173.851C782.928 173.319 783.069 172.664 783.222 172.076C783.555 170.759 783.702 169.342 783.855 167.97C784.018 166.48 784.171 164.99 784.329 163.5C784.64 160.52 784.957 157.546 785.268 154.56C785.742 150.051 786.166 145.542 786.601 141.027C787.042 136.523 787.511 132.031 787.98 127.533C788.438 123.041 788.975 118.56 789.484 114.078C789.721 111.995 789.998 109.917 790.252 107.833C790.399 106.645 790.546 105.458 790.699 104.27C790.891 102.747 791.06 101.234 791.286 99.722C791.349 99.3243 791.411 98.9266 791.467 98.5345C792.332 101.856 792.694 105.379 793.151 108.841C793.298 109.967 793.4 111.115 793.519 112.252C793.841 115.238 794.163 118.224 794.491 121.209C794.779 124.542 795.067 127.875 795.356 131.213C795.604 134.12 795.813 137.033 796.028 139.951C796.26 143.066 796.48 146.191 796.701 149.317C796.791 150.661 796.882 152.011 796.972 153.361C797.023 154.129 797.074 154.896 797.119 155.669C797.187 156.705 797.232 157.747 797.311 158.783C797.396 159.909 797.571 160.985 797.775 162.077C797.978 163.158 798.718 163.926 799.51 163.926C799.837 163.92 800.137 163.808 800.419 163.584C800.849 163.237 801.081 162.716 801.245 162.077C801.51 161.052 801.77 160.055 801.945 158.996C802.2 157.49 802.335 155.949 802.488 154.42C802.607 153.193 802.737 151.961 802.861 150.734C803.138 147.99 803.421 145.239 803.703 142.495C804.087 138.725 804.449 134.944 804.833 131.174C805.263 126.973 805.692 122.777 806.15 118.588C806.371 116.61 806.58 114.639 806.806 112.667C806.953 111.44 807.094 110.208 807.235 108.981C807.377 107.738 807.518 106.494 807.682 105.256C807.699 105.139 807.716 105.021 807.727 104.898C807.981 106.108 808.162 107.346 808.332 108.6C808.586 110.505 808.823 112.404 809.016 114.325C809.53 120.005 809.886 125.713 810.202 131.42C810.338 133.885 810.451 136.344 810.57 138.809C810.621 139.923 810.672 141.038 810.717 142.158C810.751 142.92 810.779 143.676 810.796 144.427C810.796 144.629 810.807 144.83 810.818 145.038C810.852 145.446 810.892 145.855 810.932 146.264C810.988 146.656 811.078 147.043 811.214 147.401C811.344 147.749 811.502 148.074 811.689 148.37C811.841 148.729 812.045 149.015 812.305 149.227C812.57 149.446 812.864 149.552 813.175 149.552C813.752 149.552 814.385 149.11 814.65 148.37C814.859 147.805 815.074 147.25 815.278 146.684C815.481 146.107 815.639 145.486 815.792 144.881C816.182 143.346 816.391 141.733 816.651 140.153C816.843 139.005 816.996 137.845 817.171 136.686C817.538 134.221 817.883 131.751 818.211 129.275C818.533 126.889 818.838 124.503 819.138 122.117C819.239 121.327 819.341 120.537 819.443 119.747C819.488 120.055 819.528 120.363 819.567 120.671C819.692 121.562 819.793 122.458 819.906 123.349C820.149 125.259 820.33 127.186 820.556 129.096C820.613 129.886 820.647 130.726 820.929 131.415C821.048 131.729 821.189 132.02 821.359 132.283C821.63 132.658 822.082 133 822.45 133.14C823.099 133.387 823.823 133.23 824.36 132.664C824.637 132.44 824.851 132.132 825.01 131.757C825.23 131.325 825.377 130.877 825.513 130.384C826.021 128.519 826.507 126.654 826.875 124.721C827.09 123.59 827.304 122.458 827.519 121.316C827.853 119.585 828.146 117.843 828.446 116.101C828.593 115.232 828.734 114.37 828.881 113.502C828.983 112.88 829.079 112.258 829.181 111.636C829.299 112 829.418 112.37 829.531 112.734C830.503 116.185 831.334 119.702 832.221 123.192C832.447 124.077 832.668 124.968 832.905 125.853C833.058 126.435 833.221 127.012 833.391 127.589C833.634 128.401 833.911 129.292 834.335 129.953C834.657 130.457 835.036 130.944 835.51 131.146C835.742 131.275 835.985 131.348 836.228 131.37C836.596 131.37 836.946 131.224 837.279 131.04C837.732 130.782 838.076 130.379 838.455 129.959C838.67 129.69 838.879 129.41 839.082 129.124C839.337 128.771 839.597 128.429 839.868 128.099C839.902 128.071 839.936 128.037 839.97 128.009C839.998 127.998 840.026 127.987 840.054 127.976C840.071 127.976 840.083 127.976 840.099 127.976C840.139 128.009 840.173 128.054 840.213 128.093C840.506 128.48 840.778 128.877 841.043 129.292C842.394 131.874 843.361 134.77 844.287 137.688C844.491 138.405 844.689 139.117 844.932 139.811C845.062 140.103 845.209 140.383 845.361 140.646C845.531 140.943 845.7 141.24 845.876 141.531C846.249 142.186 847.006 142.198 847.492 141.822C847.871 141.531 848.255 141.273 848.588 140.893C848.916 140.534 849.204 140.136 849.425 139.643C849.854 138.691 850.154 137.666 850.459 136.635C851.94 131.852 853.132 126.906 854.522 122.072C854.749 121.355 854.969 120.643 855.274 119.988C855.331 119.904 855.387 119.82 855.449 119.742C855.495 119.758 855.534 119.775 855.579 119.792C855.675 119.87 855.771 119.949 855.873 120.022C856.06 120.229 856.235 120.453 856.404 120.683C856.704 121.063 856.958 121.523 857.213 121.976C857.597 122.705 857.964 123.399 858.49 123.948C858.654 124.167 858.846 124.323 859.061 124.424C859.157 124.48 859.253 124.536 859.349 124.592C859.581 124.648 859.807 124.676 860.044 124.688C860.281 124.648 860.519 124.598 860.756 124.542C861.124 124.458 861.491 124.167 861.819 123.943C862.073 123.719 862.322 123.478 862.559 123.22C862.87 122.901 863.169 122.553 863.463 122.201C863.949 121.624 864.401 120.996 864.831 120.352C865.294 119.663 865.758 118.963 866.159 118.201C866.368 117.831 866.566 117.456 866.758 117.07C866.933 117.148 867.126 117.182 867.329 117.165C872.048 116.678 876.835 116.678 881.566 117.165C888.234 117.854 893.083 119.327 894.672 119.814L894.915 119.887C898.588 120.991 903.189 121.428 908.19 121.428C923.506 121.428 942.541 117.322 950.035 115.703C950.707 115.557 951.284 115.434 951.759 115.333C964.124 112.729 970.121 113.445 983.266 115.02C991.863 116.05 1003.63 117.456 1022.16 118.504C1042.7 119.657 1053.51 119.372 1077.19 118.744C1086.21 118.504 1097.42 118.207 1111.71 117.932C1172.35 116.756 1197.93 117.691 1214.86 118.308C1230.62 118.879 1239.29 119.198 1261.85 117.355C1286.54 115.344 1303.18 112.785 1317.86 110.533C1329.7 108.712 1339.82 107.161 1351.07 106.461V104.214C1339.68 104.915 1329.47 106.483 1317.51 108.32L1317.44 108.225ZM430.25 56.9831C430.25 56.9831 430.21 56.9887 430.193 56.9943C430.216 56.9943 430.233 56.9887 430.255 56.9831H430.25ZM495.554 45.3321C495.554 45.3321 495.554 45.3657 495.56 45.3825C495.577 45.5449 495.588 45.7074 495.605 45.8698C495.588 45.6906 495.571 45.5113 495.554 45.3321ZM496.136 32.9361C496.17 32.8969 496.204 32.8577 496.238 32.8241C496.204 32.8633 496.17 32.9025 496.13 32.9361H496.136ZM836.403 128.088C836.426 128.121 836.443 128.16 836.466 128.194C836.443 128.16 836.42 128.121 836.403 128.082V128.088ZM855.608 119.736C855.608 119.736 855.562 119.691 855.545 119.669C855.568 119.691 855.591 119.713 855.613 119.736H855.608ZM855.619 119.747C855.653 119.781 855.681 119.814 855.709 119.848C855.675 119.814 855.647 119.781 855.613 119.747H855.619ZM859.632 121.237C859.682 121.226 859.728 121.215 859.779 121.209C859.779 121.209 859.784 121.209 859.79 121.209C859.739 121.22 859.688 121.226 859.632 121.237Z" fill="#7649B7"/>
</g>
<defs>
<clipPath id="clip0_153_70">
<rect width="1211" height="194" fill="white"/>
</clipPath>
</defs>
</svg>
