<svg width="283" height="540" viewBox="0 0 283 540" fill="none" xmlns="http://www.w3.org/2000/svg">
<g clip-path="url(#clip0_246_145)">
<path d="M37.3171 267.478C37.2344 267.319 37.1798 267.155 37.1606 266.997C36.6661 265.868 37.0352 264.527 38.2485 263.91C38.5467 263.76 38.8641 263.658 39.2006 263.605C39.7364 263.175 40.4184 262.907 41.0723 262.752C42.3698 262.449 43.7514 262.352 45.0858 262.428C47.1125 262.557 51.5142 263.236 51.5157 265.903C51.7888 266.176 51.9526 266.559 51.7932 266.969C51.4345 267.865 50.7835 268.439 49.982 268.824C49.6307 269.512 48.9827 270.069 48.2815 270.398C46.9796 271 45.4961 271.108 44.0864 270.882C42.659 270.653 41.3291 270.168 40.0168 269.576C39.2375 269.227 38.4256 268.855 37.8883 268.147C37.8736 268.126 37.8588 268.105 37.844 268.085C37.6241 267.93 37.4455 267.745 37.3038 267.503L37.3171 267.478Z" fill="#695580" fill-opacity="0.2"/>
<path d="M41.5286 259.742C40.8083 260.35 39.7529 260.62 38.8215 260.474C38.6798 260.45 38.5484 260.419 38.4303 260.363C38.1528 260.28 37.9402 260.136 37.7159 259.953C37.5712 259.838 37.4915 259.551 37.5107 259.381C37.5255 259.184 37.6022 258.942 37.7675 258.823C38.2325 258.491 38.7536 258.26 39.3174 258.153C39.8046 258.071 40.2666 258.084 40.7345 258.171C40.7803 258.17 40.8186 258.158 40.8644 258.156C40.9736 258.156 41.0873 258.184 41.201 258.212C41.5095 258.273 41.756 258.596 41.8179 258.88C41.877 259.181 41.7825 259.529 41.539 259.734L41.5286 259.742Z" fill="#695580" fill-opacity="0.2"/>
<path d="M34.2805 266.963C34.31 267.113 34.2805 267.29 34.1963 267.413C34.0045 267.691 33.6546 267.769 33.3638 267.602C33.3136 267.575 33.2738 267.541 33.2236 267.515C33.1114 267.533 32.9845 267.53 32.8634 267.491C32.5328 267.4 32.1948 267.189 31.9852 266.917C31.8449 266.721 31.6973 266.514 31.6545 266.279C31.6339 266.185 31.6235 266.083 31.6235 265.974C31.5571 265.881 31.4981 265.798 31.4316 265.705C31.2766 265.488 31.3327 265.152 31.4597 264.936C31.597 264.713 31.8804 264.542 32.149 264.569C32.4354 264.598 32.6849 264.685 32.9328 264.836C33.1306 264.96 33.3048 265.116 33.448 265.295C33.724 265.659 33.8849 266.059 33.9203 266.502C33.9425 266.533 33.9779 266.539 34 266.57C34.1299 266.665 34.2362 266.792 34.2731 266.952L34.2805 266.963Z" fill="#695580" fill-opacity="0.2"/>
<path d="M-105.601 302.633C-105.688 303.101 -105.155 303.563 -104.752 303.166C-104.653 303.064 -104.547 302.972 -104.459 302.878C-104.296 302.887 -104.132 302.832 -103.985 302.711C-103.056 301.892 -102.125 301.055 -101.204 300.225C-100.163 299.279 -99.1299 298.322 -98.0966 297.366C-96.3297 295.995 -94.7237 294.442 -93.2741 292.736C-88.5712 288.112 -84.0321 283.325 -79.685 278.379C-73.3835 271.21 -67.0642 263.716 -63.4624 254.776C-61.883 250.871 -60.8718 246.715 -60.6518 242.501C-60.4215 238.17 -61.1728 233.885 -62.6917 229.836C-65.8446 221.446 -71.9157 214.454 -78.099 208.134C-83.714 202.392 -89.6494 196.988 -95.7854 191.806C-79.7905 201.026 -63.8591 210.353 -48.2317 220.194C-34.0391 229.141 -20.1063 238.554 -6.82295 248.806C-6.05983 250.508 -5.47825 252.262 -5.01181 254.051C-4.49081 260.154 -5.25106 266.299 -6.24012 272.343C-7.44172 279.661 -9.06256 286.982 -8.89584 294.447C-8.81321 298.211 -8.24495 301.956 -7.0272 305.518C-5.77846 309.167 -3.95994 312.565 -1.765 315.725C2.80936 322.304 8.80374 327.682 14.8823 332.827C21.2575 338.214 27.7464 343.519 33.1636 349.902C33.416 350.189 33.7733 350.012 33.8662 349.727C34.1319 349.663 34.377 349.394 34.3283 349.085C34.2117 348.31 34.1231 347.531 34.0803 346.75C33.7601 340.644 35.5181 334.628 35.127 328.51C34.73 322.099 32.2709 315.882 28.0272 311.033C23.5901 305.979 17.392 302.26 14.4177 296.021C14.1461 295.466 13.9306 294.902 13.7077 294.328C13.3313 292.927 12.9933 291.514 12.6449 290.109C12.6243 290.015 12.5254 290.007 12.4663 290.034C12.1829 288.785 11.9276 287.532 11.6338 286.29C10.8899 282.999 9.80798 279.824 8.3703 276.762C7.24995 274.363 5.94954 272.062 4.54579 269.835C3.35754 267.516 1.88884 265.35 0.176575 263.39C-0.768102 262.067 -1.73347 260.76 -2.69883 259.452C-2.76525 259.359 -2.85528 259.298 -2.9409 259.266C-3.11506 258.126 -3.31728 256.991 -3.56821 255.875C-3.6538 254.204 -3.84864 252.533 -4.16598 250.887C-2.37992 252.296 -0.593842 253.704 1.16861 255.145C9.05386 261.575 16.6823 268.344 23.9254 275.514C29.8475 281.38 35.3917 287.547 40.803 293.856C40.7867 294.117 40.9078 294.374 41.2281 294.473C41.2886 294.492 41.3388 294.518 41.3993 294.538C42.2894 295.587 43.1898 296.629 44.0696 297.686C44.2747 297.93 44.5227 297.971 44.7353 297.897C45.2829 299.035 45.6549 300.299 45.9604 301.469C46.7604 304.534 47.4822 307.576 48.666 310.522C53.0455 321.438 60.9337 330.363 67.3945 340.042C73.0597 348.541 78.0975 358.238 77.8568 368.693C76.4486 370.26 74.8913 371.685 73.1657 372.917C69.1462 375.788 64.3829 377.334 59.6623 378.568C50.3894 381.009 39.5769 382.802 33.4717 391.033C32.2495 392.686 31.3461 394.502 30.6818 396.412C30.6612 396.427 30.6405 396.442 30.6095 396.464C30.4545 396.574 30.453 396.747 30.5342 396.861C29.7888 399.094 29.3282 401.42 28.9946 403.75C28.6816 405.955 28.3701 408.206 28.3008 410.425C28.2343 412.626 28.4291 415.061 29.7015 416.93C30.9695 418.771 33.0404 419.507 35.2103 419.486C37.5986 419.466 40.0239 418.951 42.3664 418.495C47.2228 417.538 52.0541 416.241 57.0064 415.856C61.2945 415.523 65.7302 415.835 69.7082 417.581C73.1431 419.091 76.0451 421.887 79.7781 422.7C81.6838 423.118 83.6677 422.903 85.3504 421.872C87.3166 420.671 88.6835 418.696 89.6459 416.635C90.6216 414.549 91.2298 412.321 92.1376 410.205C93.0853 408.015 94.4478 406.23 96.4007 404.835C98.3019 403.477 100.433 402.485 102.305 401.086C104.107 399.721 105.485 397.957 106.13 395.78C106.728 393.776 106.754 391.651 106.607 389.587C106.44 387.257 106.108 384.935 105.765 382.62C104.387 373.197 102.195 363.902 99.2633 354.838C99.5334 355.348 99.7932 355.864 100.06 356.391C100.053 356.49 100.063 356.592 100.116 356.71C100.567 357.668 100.996 358.641 101.398 359.618C104.735 367.72 106.431 376.387 107.072 385.104C107.715 393.805 107.166 402.452 106.307 411.101C106.045 413.707 105.796 416.35 105.653 419.012C105.548 419.368 105.443 419.723 105.349 420.072C105.321 420.185 105.459 420.227 105.512 420.126C105.555 420.033 105.58 419.937 105.613 419.852C105.378 425.247 105.69 430.642 107.504 435.76C110.832 445.117 118.951 451.24 126.074 457.652C132.247 463.214 138.653 470.217 139.23 478.933C139.259 479.366 139.71 479.823 140.159 479.534C146.297 475.587 153.656 474.247 159.967 470.629C162.513 469.169 164.879 467.369 166.704 465.052C168.536 462.745 169.567 459.995 170.198 457.142C170.822 454.324 171.156 451.448 171.858 448.653C172.591 445.789 173.621 442.993 174.935 440.354C176.259 437.707 177.869 435.199 179.719 432.895C181.328 430.888 183.077 428.967 184.411 426.75C185.73 424.576 186.497 422.155 186.249 419.602C186.028 417.325 184.967 414.245 186.398 412.208C188.562 411.349 190.477 409.966 192.539 408.898C196.383 406.918 200.903 406.56 205.008 407.873C205.631 408.068 206.019 407.322 205.651 406.851C202.988 403.495 200.767 399.838 199.024 395.934C201.617 396.812 204.166 397.847 206.626 399.04C211.644 401.478 216.38 404.525 220.684 408.082C223.971 410.806 227.611 415.181 232.38 414.365C232.699 414.309 232.924 413.946 232.847 413.642C232.597 412.571 232.366 411.504 232.162 410.433C230.467 401.594 230.345 392.443 231.736 383.554C233.104 374.853 236.204 366.085 234.704 357.169C234.008 353.048 232.363 348.932 229.491 345.85C226.549 342.693 222.574 341.147 218.336 340.741C214.144 340.334 209.85 340.811 205.715 341.423C201.517 342.034 197.367 342.908 193.211 343.754C185.138 345.385 176.918 346.918 168.665 346.025C171.75 344.883 174.739 343.497 177.597 341.861C180.275 340.323 182.967 338.587 185.023 336.245C187.049 333.924 188.187 331.192 188.292 328.106C188.408 324.948 187.738 321.76 187.247 318.647C186.168 311.849 184.827 305.036 182.079 298.697C179.62 293.026 175.881 287.77 170.858 284.101C168.455 282.354 165.796 281.1 162.977 280.212C162.944 280.188 162.905 280.154 162.872 280.131C162.832 280.097 162.784 280.116 162.77 280.141C162.692 280.119 162.614 280.097 162.528 280.064C159.546 279.167 156.436 278.548 153.62 277.205C148.231 274.641 144.482 269.173 144.214 263.185C144.189 262.625 143.572 262.286 143.116 262.674C141.309 264.23 139.689 265.981 138.242 267.888C133.315 274.403 130.746 282.713 131.242 290.879C130.393 291.111 129.54 291.205 128.662 291.177C126.446 291.09 124.319 290.363 122.236 289.697C119.98 288.984 117.641 288.376 115.247 288.541C112.937 288.693 110.748 289.648 109.452 291.635C108.219 293.514 107.994 295.907 108.12 298.094C108.405 303.103 109.96 308.359 113.338 312.172C116.271 315.492 120.703 317.414 125.141 316.943C127.255 316.712 129.091 315.853 130.77 314.577C131.571 313.973 132.408 313.266 133.396 312.966C133.797 312.851 134.163 312.839 134.514 312.916C132.891 317.743 129.119 321.529 124.601 323.789C120.263 325.951 115.4 326.615 110.637 325.867C105.679 325.086 101.001 322.841 96.9978 319.88C92.5327 316.578 88.8986 312.276 85.9671 307.582C84.6002 305.407 83.3854 303.138 82.2607 300.82C81.2407 297.71 79.9801 294.678 78.2635 291.925C78.1041 291.571 77.952 291.227 77.7823 290.88C77.7365 290.772 77.6125 290.752 77.5151 290.79C77.1535 290.284 76.7992 289.788 76.4169 289.296C73.1666 285.205 68.663 282.57 63.8007 280.831C58.9459 279.102 53.8696 278.156 48.8981 276.854C43.6993 275.496 38.5595 273.893 33.5334 271.99C28.525 270.09 23.6406 267.884 18.9216 265.34C15.1708 263.322 11.5883 261.059 8.02506 258.736C4.39093 255.636 0.681515 252.606 -3.07807 249.658C-3.62423 249.221 -4.18366 248.809 -4.74016 248.38C-4.77558 248.264 -4.79329 248.152 -4.82873 248.037C-4.93649 247.646 -5.34091 247.56 -5.61105 247.706C-6.14244 247.29 -6.68418 246.881 -7.22294 246.455C-7.5905 245.875 -7.97574 245.292 -8.39199 244.731C-8.5765 244.472 -9.02082 244.79 -8.84664 245.055C-8.78022 245.148 -8.72412 245.249 -8.66802 245.349C-22.9743 234.517 -37.9802 224.607 -53.2386 215.173C-61.7556 209.912 -70.3391 204.776 -78.9801 199.713C-72.2285 201.694 -65.3883 203.362 -58.5215 204.871C-51.4524 206.422 -44.3243 207.729 -37.1328 208.6C-32.5022 209.162 -27.8467 209.52 -23.1984 209.648C-23.1541 209.71 -23.0966 209.747 -22.9977 209.754C-21.5939 209.797 -20.1886 209.886 -18.7878 209.946C-18.0822 209.973 -17.3723 210.027 -16.6696 210.072C-5.2476 213.086 5.61793 217.855 16.9957 221.026C27.5232 223.946 38.9984 225.44 49.7149 222.638C55.4525 221.146 60.6469 218.325 65.1786 214.511C70.2417 210.239 74.4072 205.017 78.6304 199.941C86.7579 190.172 96.0589 181.063 102.183 169.823C105.93 162.965 108.464 155.131 108.349 147.302C108.636 144.382 108.385 141.409 107.428 138.519C107.155 137.7 105.833 137.989 106.116 138.801C106.135 138.85 106.147 138.888 106.156 138.944C105.924 139.078 105.763 139.334 105.869 139.679C105.991 140.154 106.112 140.63 106.215 141.102C106.171 141.914 106.063 142.724 105.874 143.53C104.418 149.751 99.6387 154.507 94.1225 157.401C87.387 160.948 79.7438 162.132 72.4784 164.107C68.9121 165.078 65.3621 166.225 62.0689 167.906C58.7373 169.599 55.7585 171.852 53.0469 174.413C47.665 179.505 43.1776 185.457 37.4355 190.198C26.6894 199.075 13.3469 204.252 -0.296698 206.647C-7.35688 207.883 -14.5086 208.357 -21.6618 208.238C-21.9806 208.185 -22.3068 208.122 -22.636 208.076C-22.7526 208.066 -22.8353 208.125 -22.8751 208.2C-29.4659 208.039 -36.0508 207.406 -42.5692 206.428C-49.6752 205.371 -56.7162 203.925 -63.7173 202.294C-69.8342 200.874 -75.9143 199.287 -82.043 197.938C-88.5969 194.114 -95.167 190.334 -101.747 186.561C-101.762 186.54 -101.784 186.509 -101.799 186.489C-101.891 186.382 -102.001 186.337 -102.103 186.347C-103.733 185.42 -105.359 184.475 -106.989 183.548C-125.447 172.998 -144.03 162.646 -162.722 152.513C-170.561 148.266 -178.405 143.991 -186.279 139.784L-187.539 140.685C-177.298 146.196 -167.088 151.73 -156.9 157.343C-138.458 167.498 -120.095 177.805 -101.846 188.301C-101.842 188.439 -101.784 188.585 -101.668 188.704C-101.005 189.37 -100.376 190.076 -99.83 190.84C-95.0932 197.319 -95.886 206.062 -97.6397 213.416C-99.4273 220.919 -102.22 228.391 -101.841 236.219C-101.752 238.09 -101.488 239.946 -100.979 241.751C-100.411 243.748 -99.584 245.67 -98.7028 247.537C-96.9669 251.213 -95.0569 254.826 -94.3661 258.874C-93.1292 266.089 -95.1855 273.456 -97.7746 280.143C-100.259 286.583 -103.316 292.855 -104.996 299.548C-105.151 299.658 -105.262 299.831 -105.257 300.078L-105.244 300.599C-105.392 301.266 -105.539 301.933 -105.659 302.596L-105.601 302.633ZM-8.01672 209.165C-8.4566 209.292 -8.89944 209.437 -9.32456 209.585C-9.97109 209.532 -10.6176 209.478 -11.2671 209.443C-11.0914 209.427 -10.9158 209.41 -10.7401 209.394C-10.4552 209.378 -10.16 209.354 -9.88251 209.328C-9.26403 209.276 -8.63522 209.217 -8.01672 209.165ZM57.0782 172.563C56.3578 173.608 55.7452 174.717 55.1681 175.831C54.4905 177.111 53.8203 178.401 53.035 179.617C52.263 180.809 51.3759 181.926 50.4267 182.979C46.5475 187.247 41.6306 190.369 36.8406 193.494C31.847 196.749 26.7957 199.967 21.3164 202.367C18.655 203.534 15.8976 204.458 13.0724 205.134C12.048 205.382 11.0117 205.592 9.97845 205.784C21.9319 202.333 33.2788 196.46 42.2506 187.742C47.3137 182.815 51.5693 176.997 57.1033 172.577L57.0782 172.563ZM70.4783 165.894C66.9046 167.838 63.7132 170.492 61.13 173.648C59.1196 176.099 57.4825 178.875 56.3518 181.836C55.1591 184.951 54.5834 188.405 52.5788 191.147C50.2835 194.269 46.2847 195.487 42.8173 196.793C39.3012 198.119 35.7394 199.337 32.1569 200.46C26.6628 202.184 21.1127 203.698 15.505 204.957C18.2594 204.16 20.9311 203.095 23.5158 201.841C28.849 199.28 33.7895 196.017 38.7345 192.781C43.4241 189.712 48.1727 186.508 51.7449 182.115C52.6468 181.018 53.4616 179.843 54.1687 178.605C54.8758 177.366 55.4854 176.057 56.1674 174.805C56.7829 173.679 57.4738 172.593 58.2886 171.636C58.4229 171.54 58.5572 171.444 58.7019 171.341C62.2873 168.78 66.3186 167.149 70.4989 165.88L70.4783 165.894ZM83.7499 162.454C82.1793 163.903 80.9807 165.852 79.94 167.672C77.931 171.151 76.0903 174.713 74.1595 178.214C70.2817 185.259 65.9316 192.299 59.602 197.397C53.5131 202.308 45.9569 204.444 38.3255 205.557C34.5024 206.103 30.6365 206.414 26.7957 206.739C22.5017 207.107 18.2077 207.474 13.9063 207.831C6.64982 208.442 -0.61703 209.061 -7.87356 209.672C-6.70447 209.32 -5.53391 209.015 -4.35156 208.748C1.49971 208.048 7.32145 207.089 13.093 205.884C20.3938 204.352 27.6194 202.453 34.7224 200.141C38.2443 198.999 41.7383 197.751 45.2012 196.417C47.0006 195.725 48.8059 194.997 50.3986 193.906C51.8157 192.941 52.9523 191.692 53.7848 190.192C55.3908 187.329 55.9503 184.027 57.2419 181.029C58.5365 178.013 60.3698 175.206 62.5781 172.77C64.7524 170.374 67.3002 168.305 70.1092 166.688C71.1956 166.069 72.2953 165.533 73.4319 165.049C75.8424 164.404 78.2942 163.838 80.6885 163.236C81.7055 162.978 82.7225 162.719 83.7529 162.436L83.7499 162.454ZM96.9698 167.024C92.7363 171.452 87.8961 175.206 83.2316 179.162C80.92 181.125 78.6557 183.132 76.5197 185.298C74.4694 187.386 72.5933 189.632 70.7821 191.924C67.142 196.506 63.6362 201.319 58.9717 204.947C54.5168 208.41 49.1379 210.427 43.6556 211.534C32.7118 213.733 21.2469 212.778 10.2411 211.635C5.03346 211.095 -0.18158 210.435 -5.41288 209.927C2.13146 209.282 9.66549 208.645 17.1995 208.007C21.3356 207.659 25.479 207.321 29.6253 206.965C33.4204 206.642 37.2213 206.283 40.978 205.644C44.6122 205.03 48.2124 204.128 51.6237 202.721C55.1811 201.257 58.4418 199.225 61.3158 196.672C67.3177 191.356 71.4479 184.38 75.2223 177.408C77.1516 173.861 78.9909 170.253 81.0707 166.786C82.0775 165.115 83.3455 163.351 84.9411 162.133C86.5265 161.688 88.1029 161.186 89.6528 160.625C89.6706 160.628 89.6986 160.623 89.7163 160.626C89.7975 160.631 89.8492 160.594 89.8654 160.551C93.6885 159.131 97.3138 157.259 100.38 154.539C103.319 151.925 105.711 148.546 106.838 144.792C106.959 146.032 107.013 147.288 106.979 148.53C105.943 155.512 101.718 162.072 96.9772 167.034L96.9698 167.024ZM105.36 158.737C101.997 167.225 95.2767 173.851 88.6533 179.892C84.9498 183.271 81.1591 186.572 77.7006 190.228C74.4059 193.72 71.6027 197.595 68.6047 201.328C65.5595 205.126 62.1969 208.807 57.9428 211.284C54.0104 213.578 49.5555 214.747 45.0667 215.301C40.4938 215.867 35.8514 215.813 31.2445 215.655C26.4398 215.482 21.6572 215.122 16.8658 214.596C9.06909 213.752 1.37568 212.397 -6.31331 210.96C0.800005 211.7 7.88822 212.645 15.003 213.321C20.686 213.849 26.3911 214.19 32.0903 214.021C37.7054 213.864 43.3722 213.234 48.7437 211.535C54.2304 209.801 59.1311 206.94 63.214 202.869C67.4711 198.627 70.8116 193.604 74.7425 189.079C82.6353 180.009 93.436 173.917 100.896 164.438C102.917 161.871 104.709 158.984 106.051 155.903C105.846 156.861 105.598 157.803 105.322 158.749L105.36 158.737ZM-11.9299 210.416C-11.6789 210.439 -11.428 210.463 -11.1771 210.487C-11.1269 210.622 -10.9852 210.755 -10.808 210.676C-10.7003 210.63 -10.5851 210.594 -10.4774 210.549C-10.1276 210.58 -9.77772 210.611 -9.42788 210.642C-9.02343 210.727 -8.61161 210.823 -8.20715 210.909C1.30186 212.84 10.9113 214.387 20.5768 215.269C25.4184 215.712 30.2836 216.013 35.1414 216.086C39.6361 216.152 44.1766 215.999 48.6049 215.098C53.0229 214.205 57.218 212.52 60.83 209.799C64.6827 206.892 67.7457 203.097 70.689 199.309C73.8258 195.289 76.9906 191.375 80.6425 187.815C84.3357 184.225 88.2592 180.892 91.9967 177.364C96.5313 173.095 100.895 168.324 103.921 162.839C102.462 166.565 100.569 170.118 98.4444 173.414C95.008 178.74 90.9265 183.621 86.7786 188.409C82.6071 193.23 78.5079 198.109 74.4235 203.008C70.2549 208.03 65.7927 213.011 60.2956 216.61C55.6134 219.689 50.3068 221.545 44.7832 222.353C33.6903 223.973 22.4853 221.568 11.9312 218.261C3.95438 215.767 -3.90139 212.655 -11.9727 210.399L-11.9299 210.416ZM46.092 277.47C45.4071 277.319 44.7222 277.168 44.0417 277.046C43.0143 276.656 41.984 276.284 40.9463 275.902C42.6483 276.45 44.3709 276.982 46.092 277.47ZM54.6268 279.893C58.0543 280.956 61.4065 282.307 64.4753 284.156C67.5943 286.033 70.4047 288.394 72.8417 291.085C75.2861 293.787 77.3881 296.795 79.1815 299.961C80.4214 302.134 81.5226 304.375 82.5233 306.672C82.6975 307.374 82.8746 308.059 83.0414 308.751C83.8754 312.213 84.6297 315.716 85.2363 319.23C83.3558 313.692 81.2937 308.205 78.4995 303.07C75.4883 297.543 71.559 292.61 66.6097 288.718C61.8951 285.001 56.5442 282.206 51.0487 279.843C49.1977 279.043 47.3275 278.304 45.4543 277.582C48.5379 278.25 51.6156 278.955 54.6268 279.893ZM87.8282 327.927C87.4519 323.796 86.8216 319.658 86.0069 315.59C88.5014 318.755 91.5082 321.523 94.884 323.715C98.3927 325.984 102.312 327.647 106.421 328.441C110.424 329.218 114.588 329.193 118.581 328.338C122.553 327.498 126.362 325.839 129.617 323.405C131.258 322.186 132.78 320.756 134.024 319.133C134.917 317.98 135.682 316.67 136.169 315.276C136.184 315.297 136.178 315.332 136.175 315.35C136.284 316.333 136.035 317.338 135.691 318.255C135.322 319.268 134.857 320.255 134.345 321.198C133.3 323.1 132.014 324.861 130.547 326.455C127.469 329.792 123.683 332.356 119.635 334.358C117.482 335.428 115.245 336.339 112.978 337.162C110.818 337.94 108.629 338.677 106.415 339.291C103.485 340.104 100.351 340.61 97.3918 339.962C97.2264 339.862 97.0582 339.779 96.8825 339.686C95.1555 338.47 93.5421 337.063 92.1266 335.453C92.0203 335.326 91.8948 335.259 91.7635 335.228C91.4136 334.433 90.9634 333.693 90.4202 333.02C90.1826 332.534 89.942 332.066 89.694 331.588C89.48 330.961 89.3117 330.332 89.136 329.693C89.0681 329.445 88.767 329.395 88.6165 329.533C88.4925 329.294 88.3611 329.045 88.2371 328.806C88.2179 328.648 88.2091 328.483 88.1899 328.325C88.1648 328.093 88.0128 327.967 87.8282 327.927ZM167.288 347.789C168.343 348.502 169.385 349.24 170.397 350C174.646 353.176 178.545 356.82 182.028 360.823C183.587 362.612 185.165 364.45 186.411 366.478C187.53 368.285 188.462 370.334 188.539 372.495C188.616 374.984 187.553 377.1 186.037 378.932C187.126 376.328 186.552 373.383 185.276 370.941C184.573 369.585 183.652 368.34 182.694 367.151C181.699 365.911 180.663 364.701 179.593 363.53C177.473 361.175 175.244 358.928 172.981 356.721C171.828 355.61 170.665 354.505 169.509 353.412C168.416 352.383 167.322 351.354 166.137 350.437C164.789 349.403 163.13 348.543 161.41 348.321C163.109 347.903 164.802 347.411 166.469 346.861C166.649 346.982 166.826 347.121 167.006 347.242C167.002 347.432 167.086 347.637 167.291 347.771L167.288 347.789ZM172.795 370.836C170.934 369.169 168.929 367.652 166.969 366.087L160.933 361.285C159.125 359.846 157.33 358.382 155.485 357C152.21 354.533 148.609 352.267 144.497 351.6C141.281 351.073 137.884 351.627 134.802 350.567C139.595 350.81 144.407 350.775 149.192 350.353C151.392 350.155 153.585 349.884 155.768 349.51C157.01 349.653 158.226 349.893 159.426 350.284C163.88 351.69 167.35 354.954 170.361 358.405C171.92 360.194 173.386 362.05 174.893 363.876C176.601 365.917 178.463 367.848 180.075 369.974C181.529 371.9 182.714 374.018 183.193 376.392C183.6 378.426 183.448 380.594 182.404 382.432C182.404 382.432 182.401 382.45 182.391 382.457C182.171 382.63 181.959 382.813 181.749 382.978C180.258 384.168 178.723 385.296 177.144 386.361C178.028 385.152 178.54 383.663 178.665 382.2C178.851 380.101 178.237 377.996 177.241 376.164C176.125 374.121 174.54 372.383 172.813 370.839L172.795 370.836ZM156.613 349.36C157.937 349.116 159.257 348.845 160.564 348.535C162.987 348.583 165.242 349.906 167.075 351.468C168.209 352.421 169.282 353.465 170.351 354.48C171.459 355.53 172.555 356.604 173.64 357.686C175.799 359.858 177.883 362.099 179.882 364.416C180.881 365.575 181.86 366.748 182.794 367.969C183.699 369.149 184.539 370.39 185.16 371.741C186.183 373.959 186.57 376.663 185.498 378.942C185.413 379.128 185.556 379.307 185.705 379.341C184.954 380.19 184.12 380.988 183.259 381.728C183.318 381.592 183.367 381.464 183.418 381.317C184.097 379.319 183.948 377.1 183.334 375.105C182.58 372.694 181.131 370.577 179.539 368.655C177.849 366.617 176.032 364.685 174.345 362.628C172.816 360.772 171.31 358.882 169.678 357.099C168.089 355.378 166.385 353.756 164.439 352.43C162.609 351.178 160.57 350.247 158.421 349.707C157.828 349.553 157.218 349.442 156.623 349.352L156.613 349.36ZM188.938 368.793C188.279 367.063 187.27 365.475 186.182 363.973C187.738 365.671 189.242 367.405 190.691 369.194C191.998 370.805 193.305 372.57 193.801 374.619C194.228 376.374 193.936 378.128 193.252 379.771C191.832 383.157 189.098 385.905 186.945 388.832C182.02 395.549 178.038 402.95 175.111 410.736C173.643 414.624 172.527 418.589 171.53 422.61C171.053 424.542 170.542 426.514 169.602 428.278C168.595 430.167 167.14 431.581 165.196 432.486C163.172 433.432 160.927 433.85 158.764 434.318C156.556 434.787 154.336 435.218 152.097 435.601C147.674 436.356 143.225 436.944 138.753 437.345C134.456 437.731 130.07 438.101 125.753 437.955C122.239 437.843 118.301 437.004 116.616 433.574C117.588 433.035 118.586 432.509 119.581 432.002C121.995 430.793 124.409 429.63 126.917 428.619C129.433 427.618 131.992 426.788 134.581 426C139.317 424.568 144.265 422.735 146.64 418.042C147.614 416.129 148.11 414.027 148.309 411.903C148.52 409.708 148.331 407.565 148.187 405.375C148.122 404.454 148.21 403.157 149.44 403.262C149.988 403.308 150.52 403.552 151.01 403.779C151.629 404.055 152.237 404.338 152.856 404.614C155.394 405.766 157.929 406.998 160.511 408.057C161.439 408.439 162.573 408.519 163.249 407.63C163.867 406.814 163.765 405.623 163.29 404.761C162.695 403.688 161.656 402.932 161.303 401.717C161.018 400.75 161.109 399.718 161.42 398.778C162.189 396.403 164.236 394.878 166.349 393.728C168.772 392.403 171.28 391.283 173.67 389.888C176.05 388.5 178.344 386.971 180.556 385.328C182.531 383.855 184.497 382.326 186.183 380.513C187.637 378.944 188.904 377.134 189.445 375.031C189.99 372.91 189.702 370.759 188.929 368.737L188.938 368.793ZM133.545 398.246C130.255 392.264 127.454 386.026 125.195 379.587C124.07 376.396 123.117 373.16 122.222 369.898C121.359 366.723 120.481 363.527 119.087 360.527C117.793 357.754 116.019 355.292 113.703 353.295C111.611 351.48 109.231 350.028 106.837 348.664C103.262 346.63 99.4789 344.698 96.3481 342.018C99.938 344.729 104.202 346.395 108.288 348.205C112.842 350.211 117.493 352.506 120.587 356.554C122.54 359.091 123.74 362.104 124.711 365.124C125.685 368.126 126.488 371.173 127.532 374.142C129.629 380.071 132.344 385.794 135.615 391.182C138.886 396.57 142.685 401.627 146.978 406.238C147 406.269 147.043 406.285 147.078 406.291C147.143 406.885 147.218 407.471 147.248 407.949C147.391 410.858 147.178 413.991 146.04 416.723C145.633 416.218 145.215 415.721 144.818 415.208C140.608 409.883 136.838 404.211 133.56 398.267L133.545 398.246ZM94.4676 340.194C94.1281 339.828 93.7989 339.454 93.4831 339.056C93.4565 338.997 93.4299 338.938 93.4063 338.861C93.6602 339.085 93.9141 339.31 94.1783 339.527C98.8236 343.387 104.57 345.664 110.368 347.141C116.55 348.717 122.952 349.575 129.299 350.159C130.67 350.288 132.037 350.388 133.414 350.481C133.705 350.648 133.999 350.797 134.306 350.921C135.995 351.603 137.869 351.715 139.672 351.77C141.583 351.825 143.496 351.816 145.363 352.245C149.346 353.146 152.794 355.505 155.981 357.956C159.822 360.909 163.581 363.966 167.378 366.965C171.019 369.857 175.198 372.693 177.254 377.013C178.143 378.891 178.571 381.019 178.165 383.073C177.868 384.58 177.135 385.977 176.056 387.045C173.453 388.732 170.74 390.264 167.937 391.626C165.637 392.754 163.244 393.948 161.627 396.009C160.425 397.538 159.742 399.618 160.111 401.555C160.328 402.71 160.968 403.564 161.694 404.449C162.08 404.923 162.505 405.431 162.554 406.067C162.587 406.464 162.499 406.995 162.089 407.164C161.601 407.356 160.945 406.982 160.512 406.792C159.894 406.516 159.285 406.232 158.667 405.956C157.415 405.384 156.146 404.808 154.894 404.235C153.65 403.673 152.419 403.085 151.168 402.558C150.268 402.171 149.176 401.844 148.247 402.335C147.077 402.969 146.947 404.294 147.018 405.617C146.561 405.131 146.123 404.648 145.677 404.155C141.426 399.405 137.686 394.212 134.533 388.662C131.37 383.119 128.806 377.258 126.869 371.182C125.058 365.5 123.767 359.323 119.493 354.87C116.095 351.336 111.506 349.324 107.075 347.402C102.636 345.47 98.0279 343.518 94.4632 340.166L94.4676 340.194ZM108.821 344.079C107.475 343.855 106.136 343.532 104.827 343.14C107.866 342.436 110.839 341.421 113.691 340.148C116.622 338.835 119.428 337.236 122.057 335.39C124.686 333.543 127.131 331.438 129.357 329.115C130.461 327.952 131.518 326.744 132.513 325.472C133.426 324.304 134.311 323.095 135.052 321.817C136.097 320.025 137.006 317.846 136.934 315.713C136.977 315.839 137.037 315.967 137.08 316.093C137.192 318.26 136.951 320.413 136.336 322.522C134.699 328.139 130.75 332.66 126.052 336.001C120.847 339.703 114.799 341.962 108.829 344.089L108.821 344.079ZM119.073 340.299C124.737 337.611 130.179 333.958 133.748 328.709C136.013 325.391 137.493 321.259 137.418 317.178C137.722 318.193 137.921 319.237 138.047 320.286C138.287 322.393 138.16 324.574 137.723 326.65C136.804 330.911 134.622 334.826 131.441 337.8C127.884 341.121 123.293 343.214 118.518 344.066C115.515 344.603 112.52 344.605 109.586 344.188C112.782 342.982 115.988 341.769 119.073 340.299ZM134.077 322.747C132.353 325.336 130.306 327.735 128.086 329.913C125.832 332.132 123.349 334.139 120.71 335.884C118.081 337.621 115.285 339.103 112.371 340.311C109.673 341.427 106.871 342.289 104.022 342.888C102.124 342.262 100.27 341.48 98.4929 340.564C101.647 340.917 104.876 340.172 107.887 339.254C112.584 337.834 117.262 336.147 121.569 333.788C125.596 331.583 129.299 328.75 132.167 325.141C133.528 323.42 134.687 321.547 135.552 319.525C135.955 318.581 136.329 317.597 136.461 316.581C136.531 316.11 136.529 315.628 136.444 315.158C136.422 315.018 136.392 314.867 136.345 314.714C136.354 314.661 136.37 314.618 136.379 314.565C136.457 314.696 136.525 314.835 136.585 314.963C136.599 315.048 136.619 315.142 136.622 315.233C136.869 317.96 135.533 320.568 134.064 322.772L134.077 322.747ZM81.803 303.894C80.9012 302.041 79.9225 300.212 78.8228 298.454C76.901 295.348 74.6573 292.426 72.086 289.831C69.5294 287.256 66.6584 284.985 63.4701 283.252C60.8766 281.827 58.1104 280.729 55.291 279.84C58.6757 280.668 62.0516 281.55 65.2901 282.872C67.5721 283.817 69.7774 285.004 71.7362 286.523C73.9193 288.225 75.7467 290.368 77.1859 292.711C79.3129 296.169 80.7049 299.997 81.8134 303.886L81.803 303.894ZM135.878 313.799C135.945 313.892 136.029 313.988 136.103 314.091C136.117 314.112 136.132 314.132 136.147 314.153C136.141 314.188 136.135 314.224 136.122 314.249C136.041 314.135 135.949 314.029 135.862 313.951C135.855 313.94 135.834 313.955 135.841 313.966C135.926 314.171 135.964 314.377 136.02 314.587C135.982 314.708 135.954 314.822 135.908 314.932C135.245 316.888 134.051 318.646 132.662 320.153C131.286 321.635 129.704 322.937 128.009 324.038C124.641 326.226 120.795 327.615 116.834 328.229C112.836 328.837 108.739 328.627 104.833 327.594C100.874 326.552 97.1292 324.717 93.8139 322.326C90.751 320.113 88.032 317.421 85.7707 314.386C85.1995 311.642 84.5441 308.911 83.8371 306.217C84.674 307.695 85.5597 309.153 86.5176 310.56C92.5386 319.382 101.751 326.753 112.751 327.603C122.26 328.332 132.547 323.029 135.875 313.816L135.878 313.799ZM143.648 267.35C144.474 270.146 145.963 272.734 147.98 274.836C148.017 274.887 148.074 274.924 148.114 274.958C148.586 275.838 149.066 276.728 149.528 277.615C153.732 285.489 157.967 293.34 162.202 301.192C164.211 304.922 166.373 308.605 168.015 312.519C169.468 315.975 170.413 319.701 170.122 323.466C169.982 325.236 169.563 326.987 168.804 328.59C167.969 330.325 166.76 331.844 165.335 333.127C162.455 335.715 158.88 337.394 155.338 338.879C148.339 341.818 140.946 343.854 133.441 344.969C125.908 346.09 118.281 346.248 110.705 345.558C110.652 345.549 110.632 345.61 110.644 345.648C110.374 345.576 110.094 345.511 109.823 345.439C113.652 345.949 117.561 345.763 121.337 344.736C126 343.465 130.396 341.012 133.663 337.415C136.627 334.159 138.553 330.083 139.248 325.748C139.588 323.602 139.608 321.402 139.275 319.253C138.95 317.16 138.33 314.763 137.003 313.058C136.771 312.755 136.495 312.5 136.196 312.277C136.066 311.964 135.712 311.796 135.381 311.813C134.988 311.657 134.584 311.571 134.154 311.582C133.123 311.601 132.176 312.089 131.335 312.659C130.452 313.258 129.651 313.971 128.731 314.519C127.825 315.042 126.846 315.397 125.82 315.599C121.429 316.442 116.934 314.41 114.113 311.072C112.439 309.1 111.291 306.706 110.556 304.235C109.842 301.858 109.403 299.3 109.464 296.807C109.515 294.586 110.119 292.219 112.075 290.916C114.062 289.59 116.701 289.703 118.939 290.148C123.255 291.014 127.615 293.579 132.107 292.025C132.358 291.939 132.63 291.73 132.606 291.434C132.438 289.167 132.498 286.892 132.81 284.641C133.83 277.047 137.526 269.835 143.097 264.592C143.205 265.529 143.397 266.453 143.655 267.361L143.648 267.35ZM165.384 282.643C171.34 288.578 174.724 296.461 176.682 304.534C177.674 308.631 178.319 312.789 178.862 316.958C179.346 320.716 180.076 324.752 178.483 328.355C177.008 331.686 174.06 334.135 171.049 336.037C167.693 338.153 164.058 339.86 160.325 341.231C152.588 344.074 144.369 345.435 136.166 345.988C128.185 346.524 120.193 346.302 112.207 346.045C111.795 345.949 111.394 345.846 110.982 345.75C111.813 345.843 112.637 345.926 113.474 345.983C121.11 346.537 128.819 346.102 136.355 344.745C143.89 343.389 151.312 341.13 158.251 337.89C161.716 336.274 165.157 334.253 167.524 331.189C169.709 328.349 170.581 324.808 170.435 321.261C170.271 317.383 168.93 313.691 167.281 310.203C166.37 308.295 165.377 306.445 164.386 304.578C163.313 302.551 162.23 300.532 161.154 298.523C157.118 290.95 153.072 283.385 149.016 275.828C150.898 277.479 153.096 278.656 155.477 279.499C158.364 280.526 161.403 281.133 164.274 282.203C164.642 282.346 165.01 282.489 165.374 282.65L165.384 282.643ZM185.945 320.451C186.036 321.103 186.072 321.764 186.072 322.42C186.023 327.682 183.159 332.63 179.317 336.076C174.491 340.397 168.231 342.731 162.105 344.531C156.678 346.13 151.125 347.225 145.505 347.9C139.868 348.571 134.157 348.703 128.484 348.385C126.285 348.255 124.08 348.052 121.893 347.787C119.402 347.445 116.912 347.039 114.447 346.537C122.9 346.772 131.382 346.893 139.819 346.078C148.018 345.278 156.207 343.548 163.797 340.28C167.377 338.738 170.943 336.893 174 334.444C176.782 332.222 179.128 329.345 179.727 325.75C180.048 323.882 179.909 321.984 179.704 320.102C179.468 318.024 179.193 315.957 178.89 313.895C178.271 309.641 177.468 305.393 176.253 301.267C174.288 294.65 171.095 287.973 166.179 283.012C168.286 284.019 170.242 285.337 171.987 286.884C176.648 291.029 179.857 296.57 181.945 302.398C184.023 308.169 185.075 314.252 186.024 320.3C185.973 320.337 185.954 320.397 185.959 320.471L185.945 320.451ZM163.865 346.099C157.575 347.954 151.048 348.887 144.506 349.144C139.688 349.324 134.876 349.141 130.084 348.725C130.31 348.735 130.554 348.748 130.78 348.759C136.488 348.973 142.258 348.706 147.93 347.931C153.687 347.143 159.392 345.845 164.919 344.035C170.916 342.077 177.027 339.381 181.32 334.599C184.235 331.362 186.227 327.224 186.424 322.87C186.827 325.531 187.167 328.3 186.43 330.918C185.624 333.787 183.522 336.022 181.205 337.802C178.701 339.715 175.866 341.272 173.027 342.629C170.081 344.031 167.01 345.194 163.872 346.109L163.865 346.099ZM171.53 348.66C171.042 348.479 170.563 348.29 170.088 348.083C170.293 348.108 170.498 348.133 170.714 348.151C170.772 348.188 170.847 348.228 170.904 348.265C171.12 348.391 171.325 348.526 171.53 348.66ZM176.142 347.645C175.703 347.708 175.265 347.772 174.822 347.807C174.053 347.888 173.29 347.934 172.525 347.934C172.029 347.851 171.533 347.769 171.04 347.668C171.008 347.645 170.958 347.618 170.925 347.594C171.006 347.599 171.07 347.6 171.141 347.612C172.81 347.699 174.466 347.702 176.134 347.634L176.142 347.645ZM232.781 371.604C232.62 370.985 232.452 370.356 232.291 369.738C230.843 364.281 229.198 358.745 226.15 353.932C223.452 349.695 219.67 345.952 214.879 344.225C211.153 342.876 207.206 342.855 203.315 343.262C204.945 342.988 206.579 342.741 208.225 342.533C212.331 342.034 216.646 341.652 220.723 342.532C224.828 343.407 228.248 345.77 230.467 349.335C232.67 352.879 233.709 357.131 233.801 361.278C233.878 364.75 233.421 368.197 232.781 371.604ZM230.727 379.172C227.536 375.163 226.386 369.992 224.746 365.249C223.918 362.844 222.957 360.472 221.585 358.332C220.241 356.233 218.492 354.44 216.458 352.99C212.243 349.993 207.134 348.587 202.034 348.11C196.485 347.595 190.923 348.088 185.382 348.347C182.676 348.47 179.962 348.536 177.252 348.412C176.232 348.361 175.21 348.263 174.192 348.148C174.866 348.087 175.544 348.009 176.224 347.913C177.269 347.76 178.307 347.596 179.355 347.425C184.91 346.921 190.426 345.775 195.88 344.672C196.37 344.572 196.85 344.479 197.34 344.378C198.745 344.139 200.165 343.921 201.579 343.738C206.461 343.122 211.608 342.988 216.162 345.103C220.791 347.258 224.341 351.245 226.753 355.671C229.513 360.737 230.967 366.377 232.397 371.94C232.434 372.101 232.59 372.145 232.706 372.11C232.558 372.886 232.413 373.645 232.258 374.411C231.892 376.171 231.544 377.933 231.195 379.696C231.042 379.524 230.881 379.343 230.748 379.157L230.727 379.172ZM230.763 409.107C230.497 408.735 230.239 408.373 229.973 408.001C226.129 402.555 222.378 397.041 218.803 391.403C215.262 385.833 211.866 380.16 208.608 374.42C205.585 369.073 202.834 363.299 198.357 358.975C196.444 357.127 194.24 355.659 191.83 354.556C189.537 353.509 187.118 352.787 184.681 352.172C181.057 351.249 177.356 350.569 173.783 349.454C173.17 349.034 172.544 348.638 171.918 348.242C172.017 348.25 172.116 348.257 172.218 348.247C177.114 349.072 182.13 348.907 187.072 348.638C192.581 348.355 198.138 347.943 203.634 348.668C208.684 349.337 213.792 351.071 217.7 354.444C219.617 356.102 221.127 358.128 222.261 360.393C223.417 362.688 224.208 365.15 224.984 367.592C226.394 372.078 227.781 376.86 231.034 380.388C230.596 382.745 230.211 385.112 229.967 387.501C229.241 394.699 229.521 401.973 230.738 409.094L230.763 409.107ZM189.541 409.245C189.491 409 189.448 408.766 189.423 408.534C189.202 406.367 189.965 404.246 190.725 402.252C191.712 399.658 192.71 397.057 193.698 394.464C194.64 391.981 195.635 389.507 196.526 386.998C197.295 384.841 197.949 382.611 198.048 380.324C198.249 375.406 195.399 371.153 192.591 367.354C189.508 363.19 185.994 359.363 182.127 355.915C179.711 353.756 177.159 351.756 174.488 349.918C178.356 351.072 182.363 351.767 186.25 352.861C188.693 353.551 191.102 354.389 193.329 355.607C195.865 356.994 198.047 358.869 199.901 361.071C201.891 363.442 203.516 366.089 205.036 368.763C206.627 371.559 208.149 374.389 209.751 377.177C213.01 382.854 216.4 388.453 219.933 393.967C223.45 399.459 227.052 404.938 230.931 410.173C231.123 411.206 231.332 412.242 231.563 413.264C229.35 413.377 227.345 412.078 225.649 410.731C223.697 409.176 221.9 407.448 219.927 405.908C217.776 404.23 215.52 402.689 213.181 401.27C208.477 398.42 203.409 396.11 198.185 394.411C197.676 394.244 197.303 394.791 197.493 395.233C199.102 399.124 201.17 402.827 203.661 406.228C202.044 405.886 200.377 405.781 198.718 405.905C196.725 406.064 194.781 406.532 192.961 407.349C191.763 407.877 190.647 408.565 189.516 409.232L189.541 409.245ZM186.388 410.904C185.634 409.586 185.188 408.11 185.033 406.582C184.685 403.102 185.823 399.714 187.058 396.507C188.453 392.889 189.894 389.269 191.332 385.668C191.375 385.575 191.341 385.505 191.286 385.451C191.621 385.024 191.949 384.587 192.259 384.147C194.333 381.261 196.06 377.781 195.072 374.148C194.52 372.108 193.304 370.34 191.99 368.719C190.544 366.912 189.001 365.19 187.435 363.5C183.49 359.265 179.181 355.242 174.57 351.67C173.269 350.57 171.924 349.518 170.553 348.515C170.903 348.656 171.25 348.814 171.6 348.954C171.899 349.068 172.184 349.161 172.476 349.264C176.28 351.728 179.866 354.519 183.172 357.619C186.936 361.141 190.343 365.058 193.308 369.276C194.693 371.236 196.004 373.311 196.807 375.593C197.605 377.847 197.751 380.193 197.334 382.535C196.917 384.814 196.089 386.998 195.274 389.156C194.305 391.752 193.317 394.346 192.347 396.942C191.857 398.244 191.36 399.536 190.88 400.83C190.461 401.925 190.042 403.021 189.69 404.145C189.171 405.843 188.838 407.672 189.299 409.387C188.57 409.83 187.826 410.252 187.07 410.636C186.952 410.58 186.825 410.577 186.694 410.655C186.58 410.736 186.477 410.81 186.373 410.884L186.388 410.904ZM180.839 411.591C179.208 411.055 177.816 409.521 177.799 407.771C178.169 406.913 178.54 406.055 178.925 405.218C180.71 401.338 182.773 397.586 185.085 393.984C186.239 392.192 187.461 390.429 188.738 388.722C189.323 387.945 189.932 387.182 190.524 386.416C189.829 388.239 189.152 390.065 188.439 391.885C187.739 393.68 187.029 395.482 186.354 397.29C185.736 398.98 185.188 400.682 184.883 402.461C184.39 405.31 184.568 408.553 186.164 411.049C184.488 411.762 182.581 412.172 180.822 411.588L180.839 411.591ZM161.76 467.896C162.118 467.282 162.457 466.665 162.797 466.048C163.368 464.969 163.907 463.867 164.36 462.732C165.158 460.726 165.688 458.584 165.675 456.424C165.659 454.064 164.968 451.764 163.966 449.64C162.888 447.367 161.468 445.291 160.048 443.216C159.287 442.106 158.518 440.986 157.808 439.839C157.105 438.702 156.517 437.53 155.915 436.337C156.188 436.283 156.479 436.231 156.752 436.176C157.571 437.323 158.411 438.456 159.272 439.573C160.835 441.609 162.45 443.607 164.099 445.566C164.934 446.561 165.79 447.541 166.657 448.514C167.085 449.004 167.523 449.487 167.962 449.969C168.184 450.216 168.407 450.462 168.63 450.709C168.831 450.924 169.018 451.165 169.274 451.326C169.414 451.413 169.585 451.259 169.5 451.118C169.317 450.796 169.041 450.541 168.793 450.281C168.552 450.031 168.314 449.764 168.084 449.507C167.584 448.96 167.091 448.422 166.601 447.867C163.234 444.093 160.076 440.153 156.994 436.144C158.02 435.942 159.039 435.729 160.06 435.499C162.299 435.007 164.615 434.492 166.633 433.363C168.43 432.361 169.826 430.864 170.783 429.057C171.749 427.243 172.309 425.252 172.805 423.259C173.304 421.249 173.792 419.246 174.387 417.26C175.192 414.564 176.117 411.905 177.171 409.295C177.576 410.692 178.692 411.861 180.016 412.491C181.569 413.223 183.353 413.166 185.006 412.75C184.254 414.645 184.739 417.029 185.012 419.05C185.216 420.558 185.136 422.019 184.651 423.459C184.19 424.802 183.465 426.037 182.661 427.205C181.163 429.367 179.342 431.276 177.754 433.378C175.98 435.722 174.455 438.262 173.209 440.931C171.974 443.593 170.992 446.369 170.341 449.237C169.686 452.077 169.384 454.976 168.669 457.797C167.942 460.625 166.719 463.216 164.705 465.356C163.799 466.316 162.794 467.158 161.737 467.929L161.76 467.896ZM155.877 471.194C157.187 469.009 158.433 466.778 159.418 464.42C160.321 462.277 160.988 460.021 161.213 457.692C161.439 455.299 161.152 452.867 160.556 450.546C159.927 448.093 158.918 445.74 157.743 443.505C157.093 442.268 156.392 441.068 155.673 439.865C155.03 438.811 154.407 437.743 153.711 436.726C154.331 436.61 154.951 436.495 155.571 436.38C156.085 437.777 156.895 439.086 157.697 440.339C158.488 441.6 159.341 442.816 160.184 444.04C162.835 447.904 165.514 452.201 165.302 457.081C165.198 459.23 164.575 461.329 163.729 463.291C163.287 464.31 162.794 465.301 162.258 466.277C161.886 466.98 161.471 467.666 161.081 468.366C159.871 469.184 158.587 469.898 157.268 470.543C156.804 470.766 156.349 470.981 155.887 471.187L155.877 471.194ZM140.763 477.714C141.669 476.427 142.434 475.007 143.182 473.629C144.034 472.069 144.832 470.5 145.584 468.887C146.88 466.135 148.096 463.316 149.07 460.42C149.897 457.972 150.504 455.261 149.763 452.716C148.881 449.647 146.244 447.615 143.836 445.73C142.621 444.772 141.41 443.796 140.393 442.634C139.895 442.069 139.449 441.467 139.086 440.805C138.73 440.154 138.497 439.478 138.277 438.777C141.057 438.54 143.838 438.238 146.595 437.861C148.83 437.559 151.074 437.205 153.288 436.81C154.008 438.058 154.847 439.254 155.588 440.488C156.373 441.784 157.117 443.11 157.802 444.462C159.96 448.772 161.437 453.615 160.791 458.477C160.169 463.135 157.775 467.232 155.602 471.312C150.669 473.494 145.395 474.936 140.745 477.711L140.763 477.714ZM107.756 431.897C108.225 433.122 108.761 434.331 109.377 435.498C111.55 439.611 114.646 443.204 118.359 445.998C120.211 447.39 122.208 448.569 124.304 449.538C126.361 450.472 128.505 451.094 130.652 451.761C132.677 452.39 134.776 453.122 136.397 454.539C138.13 456.048 138.941 458.167 139.102 460.424C139.358 463.971 138.191 467.582 138.513 471.113C135.664 464.83 130.359 459.741 125.271 455.261C121.532 451.97 117.7 448.747 114.463 444.957C111.417 441.391 109.087 437.344 107.936 432.782C107.856 432.496 107.805 432.205 107.743 431.922L107.756 431.897ZM107.204 415.111C107.759 413.091 108.218 411.047 108.614 409.001C109.256 405.64 109.693 402.254 109.897 398.847C110.106 395.405 110.108 391.955 109.888 388.523C109.665 385.109 109.221 381.712 108.57 378.354C108.248 376.68 107.863 375.005 107.426 373.366C107.029 371.871 106.617 370.355 106.059 368.897C109.538 376.914 112.396 385.218 114.152 393.794C115.822 401.964 116.477 410.375 115.646 418.693C115.247 422.614 114.131 426.578 114.456 430.528C114.611 432.384 115.144 434.157 116.288 435.649C117.399 437.118 119.03 438.091 120.778 438.637C124.634 439.862 128.96 439.409 132.938 439.189C134.591 439.1 136.24 438.984 137.885 438.839C138.056 440.433 139.108 441.929 140.164 443.079C141.296 444.314 142.626 445.346 143.948 446.367C146.377 448.238 148.969 450.381 149.578 453.55C150.089 456.166 149.295 458.855 148.405 461.301C147.343 464.228 146.118 467.101 144.76 469.896C144.082 471.285 143.372 472.651 142.637 474.003C141.921 475.294 141.148 476.549 140.475 477.857C140.391 477.215 140.289 476.57 140.159 475.929C139.853 474.54 139.43 473.204 138.906 471.924C138.34 467.507 140.249 463.1 139.3 458.691C138.856 456.606 137.682 454.853 135.93 453.624C134.2 452.425 132.153 451.765 130.153 451.15C127.971 450.477 125.81 449.789 123.748 448.781C121.661 447.759 119.678 446.491 117.863 445.042C114.209 442.111 111.235 438.384 109.217 434.161C108.386 432.43 107.74 430.629 107.229 428.778C106.633 424.273 106.834 419.682 107.229 415.124L107.204 415.111ZM106.41 371.267C107.215 374.032 107.904 376.832 108.405 379.674C109.01 383.033 109.398 386.439 109.568 389.844C109.745 393.26 109.711 396.686 109.454 400.084C109.204 403.492 108.739 406.883 108.044 410.235C107.843 411.221 107.615 412.212 107.368 413.199C107.544 411.326 107.744 409.466 107.925 407.621C108.76 398.894 109.004 390.06 108.067 381.32C107.7 377.945 107.159 374.587 106.407 371.285L106.41 371.267ZM105.488 367.573C105.606 367.847 105.734 368.114 105.845 368.379C105.795 368.352 105.739 368.361 105.698 368.391C105.625 368.114 105.56 367.849 105.478 367.58L105.488 367.573ZM104.028 361.094C101.6 356.056 98.9637 351.12 96.2684 346.211C95.6455 344.596 94.9916 343.003 94.3097 341.415C97.0315 346.165 102.114 349.151 106.335 352.44C108.923 354.446 111.389 356.741 112.95 359.668C114.432 362.464 115.037 365.605 115.503 368.705C116.48 375.185 117.509 381.628 118.805 388.052C120.117 394.543 121.608 400.999 123.193 407.435C124.756 413.84 126.393 420.239 128.079 426.618C128.163 426.933 128.653 426.832 128.579 426.511C128.377 425.703 128.165 424.903 127.962 424.096C126.305 417.712 124.668 411.313 123.123 404.911C121.565 398.471 120.103 392.01 118.818 385.515C118.182 382.287 117.577 379.036 117.035 375.787C116.514 372.633 116.144 369.449 115.528 366.315C114.945 363.314 114.036 360.359 112.266 357.816C110.434 355.208 107.952 353.173 105.428 351.278C101.106 348.045 96.0248 344.777 93.765 339.713C94.0071 340.008 94.2418 340.293 94.4942 340.581C98.2287 344.717 103.518 347.009 108.22 349.814C110.628 351.262 112.981 352.874 114.925 354.918C117.179 357.287 118.696 360.198 119.806 363.26C120.977 366.45 121.725 369.769 122.648 373.027C123.566 376.257 124.62 379.436 125.799 382.573C128.192 388.916 131.107 395.073 134.506 400.946C137.83 406.671 141.611 412.116 145.81 417.231C145.345 418.218 144.744 419.147 143.978 419.975C140.406 423.821 134.732 424.66 129.997 426.31C125.223 427.972 120.601 430.087 116.326 432.797C115.138 429.495 116.084 425.62 116.594 422.292C117.208 418.28 117.457 414.216 117.397 410.155C117.271 402.006 115.918 393.906 113.727 386.077C111.321 377.466 107.91 369.151 104.025 361.112L104.028 361.094ZM70.1334 416.232C70.6588 415.919 71.1844 415.606 71.7098 415.293C77.5597 411.708 83.377 407.771 88.1537 402.814C90.4107 400.469 92.4168 397.881 94.042 395.066C95.4871 392.567 96.6163 389.888 97.4754 387.137C99.2217 381.52 99.7724 375.541 99.492 369.686C99.1821 363.136 97.7902 356.686 95.8831 350.434C95.5082 349.188 95.1023 347.964 94.689 346.73C94.5901 346.395 94.4986 346.07 94.3997 345.735C94.7214 346.317 95.0358 346.888 95.3576 347.47C96.9783 351.836 98.4278 356.247 99.7135 360.712C101.048 365.376 102.18 370.107 103.116 374.869C104.035 379.565 104.837 384.313 105.262 389.081C105.443 391.105 105.483 393.214 104.937 395.18C104.341 397.338 102.997 398.953 101.214 400.258C99.3485 401.622 97.2376 402.599 95.3822 403.956C93.4987 405.317 92.1318 407.073 91.1634 409.169C90.2113 411.222 89.609 413.416 88.7071 415.496C87.8451 417.5 86.5668 419.599 84.6227 420.722C81.1701 422.705 77.533 420.497 74.5601 418.672C73.1151 417.785 71.6774 416.908 70.1334 416.232ZM65.029 414.744C65.6593 414.294 66.2498 413.81 66.8579 413.329C72.0819 409.129 77.2822 404.853 81.9467 400.023C86.0931 395.735 89.813 391.003 92.6132 385.726C95.2983 380.703 97.0844 375.229 97.5878 369.533C97.9746 365.137 97.6484 360.704 96.9089 356.348C98.1385 361.369 98.9488 366.501 99.0417 371.678C99.1376 377.492 98.3715 383.345 96.4274 388.837C95.465 391.553 94.2147 394.194 92.6544 396.619C90.8255 399.455 88.5789 402.011 86.1196 404.314C81.2012 408.92 75.4798 412.444 69.8721 416.107C69.7186 416.045 69.5577 415.972 69.4042 415.91C67.9945 415.357 66.5273 414.985 65.032 414.726L65.029 414.744ZM30.2625 404.935C30.915 404.734 31.5674 404.534 32.2125 404.323C39.7864 401.862 47.3337 399.342 54.8958 396.843C58.6716 395.598 62.4623 394.372 66.2411 393.109C69.8074 391.919 73.3737 390.62 76.6536 388.746C79.7327 386.983 82.4458 384.686 84.4873 381.777C86.3708 379.105 87.689 376.057 88.6456 372.94C89.6242 369.744 90.2649 366.446 90.7432 363.14C91.2274 359.798 91.5064 356.431 91.5773 353.057C91.6821 348.332 91.3427 343.596 90.6106 338.923C91.2128 340.006 91.815 341.09 92.4173 342.173C93.5908 345.346 94.6949 348.552 95.6558 351.798C95.8786 352.809 96.0912 353.827 96.286 354.843C97.2897 360.29 97.7295 365.843 96.9914 371.363C96.2282 377.089 94.11 382.534 91.1622 387.496C88.0608 392.722 84.0915 397.368 79.7532 401.605C77.3826 403.923 74.8983 406.103 72.3668 408.239C71.087 409.309 69.7998 410.369 68.5053 411.418C67.2107 412.468 65.8866 413.476 64.6364 414.588C64.5951 414.617 64.5891 414.653 64.5832 414.688C64.1227 414.611 63.6592 414.552 63.1928 414.511C58.6818 414.05 54.1457 414.669 49.7204 415.551C47.2346 416.047 44.7651 416.61 42.2793 417.106C39.9722 417.568 37.5617 418.103 35.2044 418.102C34.2036 418.099 33.16 417.971 32.2876 417.47C31.3828 416.946 30.754 416.131 30.3495 415.172C29.5023 413.155 29.6366 410.766 29.8462 408.634C29.9688 407.408 30.0913 406.181 30.2522 404.942L30.2625 404.935ZM32.338 396.087C32.5698 395.953 32.8015 395.819 33.0406 395.695C38.9584 392.467 45.5698 390.865 52.1119 389.407C58.6924 387.937 65.3142 386.546 71.5197 383.83C77.4714 381.218 82.8946 377.297 86.275 371.652C89.3172 366.561 90.6547 360.613 90.9234 354.741C91.1921 348.76 90.4009 342.802 89.5124 336.883C89.5271 336.904 89.5316 336.932 89.5463 336.952C89.6172 337.073 89.6807 337.184 89.7412 337.313C90.8039 343.279 91.229 349.358 90.9662 355.412C90.8229 358.729 90.479 362.049 89.9254 365.316C89.3718 368.582 88.6308 371.827 87.4838 374.94C86.3502 378.028 84.7722 380.996 82.5861 383.463C80.118 386.255 76.9311 388.282 73.5744 389.853C70.11 391.469 66.4552 392.644 62.8298 393.86C59.1101 395.097 55.3976 396.344 51.6675 397.589C44.5453 399.961 37.3847 402.235 30.3053 404.733C30.6862 401.792 31.2575 398.856 32.3454 396.098L32.338 396.087ZM78.9993 369.921C79.4864 369.183 79.9838 368.437 80.4562 367.679C83.2033 364.141 85.2625 360.033 86.5821 355.719C88.1882 350.453 88.7861 344.954 88.8024 339.45C88.8703 339.37 88.9086 339.249 88.8968 339.102C88.8599 338.504 88.8127 337.913 88.7832 337.326C88.7714 336.632 88.7315 335.943 88.7094 335.256C88.8068 335.436 88.9116 335.627 89.0194 335.8C89.0946 336.276 89.1625 336.743 89.2275 337.227C90.1603 343.754 90.9662 350.388 90.3403 356.983C89.7749 362.833 88.0684 368.702 84.5656 373.498C80.6067 378.9 74.6565 382.323 68.4937 384.618C62.1775 386.961 55.5247 388.155 48.9885 389.687C43.4 390.995 37.7612 392.604 32.6834 395.326C34.5758 391.072 38.0329 387.916 42.0951 385.716C50.7599 381.025 60.9627 380.76 69.7928 376.497C73.0505 374.919 75.9053 372.755 78.3557 370.178C78.6007 370.237 78.8768 370.165 79.0347 369.927L78.9993 369.921ZM47.1487 300.948C49.6388 303.321 51.8219 306.006 53.6877 308.902C57.3779 314.614 59.9433 320.959 62.5692 327.213C63.8977 330.383 65.2468 333.539 66.7908 336.619C67.1185 337.274 67.4491 337.912 67.7975 338.552C64.2608 333.339 60.3816 328.323 56.904 323.083C53.5813 318.059 50.5524 312.748 48.7177 306.99C48.083 305.009 47.6963 302.96 47.1487 300.948ZM19.1562 268.684C24.5174 272.89 29.8416 277.155 34.9725 281.651C41.0673 286.973 46.8934 292.595 52.1689 298.736C57.2909 304.705 61.8609 311.147 65.5835 318.085C69.2988 325.012 71.935 332.351 73.5675 340.033C74.462 344.278 75.1218 348.566 75.7919 352.847C75.6959 352.603 75.5926 352.349 75.4863 352.113C74.4619 349.74 73.2855 347.459 72.0161 345.245C72.0382 345.276 72.0604 345.307 72.0751 345.328C72.1814 345.455 72.3881 345.307 72.3128 345.158C71.8419 344.324 71.2884 343.549 70.7659 342.752C70.2537 341.947 69.7518 341.135 69.2809 340.301C68.3288 338.641 67.4388 336.936 66.6151 335.215C63.6394 329.039 61.2541 322.597 58.2296 316.44C55.3867 310.669 51.9076 304.946 47.0572 300.624C46.8785 300.002 46.6896 299.388 46.4726 298.779C45.7567 296.793 44.6497 294.916 42.8607 293.853C42.0385 292.833 41.1986 291.81 40.3454 290.812C33.7237 283.027 26.6193 275.68 19.1607 268.712L19.1562 268.684ZM17.5827 266.765C23.1845 269.692 28.9678 272.24 34.639 275.024C40.8076 278.045 46.8772 281.387 52.2355 285.721C58.314 290.648 63.0463 296.88 66.9181 303.634C70.8415 310.459 73.891 317.722 77.0129 324.932C79.8558 331.469 82.7828 337.991 86.4302 344.125C85.5917 352.105 83.348 359.996 79.355 366.967C79.2739 367.072 79.1823 367.184 79.1012 367.289C78.9492 362.685 77.8731 358.164 76.2126 353.873C75.3594 348.178 74.4989 342.473 73.1557 336.878C71.3358 329.284 68.4014 321.986 64.5252 315.205C60.6342 308.403 55.9064 302.09 50.6899 296.25C45.221 290.123 39.2015 284.513 32.9621 279.186C27.9581 274.911 22.7978 270.811 17.6034 266.75L17.5827 266.765ZM13.4777 263.486C14.632 264.206 15.807 264.912 17.0056 265.585C17.6565 265.994 18.3104 266.385 18.9673 266.759C24.2369 269.767 29.8771 272.027 35.5409 274.145C37.9838 275.053 40.4297 275.943 42.8726 276.851C42.7988 276.857 42.7811 276.963 42.8594 276.985C43.2077 277.08 43.559 277.157 43.9103 277.233C46.771 278.311 49.6051 279.439 52.4008 280.688C57.8786 283.157 63.2206 286.114 67.7802 290.051C72.6513 294.249 76.3208 299.539 79.1593 305.283C81.8738 310.787 83.8444 316.604 85.7691 322.423C85.964 323.766 86.1337 325.096 86.2828 326.441C86.2119 326.538 86.1809 326.67 86.2562 326.819C86.2931 326.871 86.3093 326.937 86.3462 326.989C86.8318 331.666 86.9971 336.355 86.7048 341.057C86.6516 341.813 86.5985 342.569 86.5276 343.322C86.5055 343.291 86.4907 343.27 86.4686 343.239C82.4596 336.381 79.3584 329.046 76.1819 321.781C73.0128 314.526 69.7521 307.274 65.5084 300.568C61.5171 294.259 56.6342 288.602 50.6472 284.109C45.072 279.93 38.8591 276.737 32.5961 273.736C27.2851 271.194 21.9283 268.763 16.7074 266.063C15.8365 265.39 14.9759 264.71 14.0977 264.026C13.891 263.846 13.6873 263.649 13.4807 263.468L13.4777 263.486ZM33.239 341.094C33.1534 338.767 32.9659 336.451 32.6412 334.14C32.1069 330.355 31.208 326.628 29.8486 323.043C28.4891 319.457 26.6558 316.038 24.3369 312.967C22.9937 311.195 21.5161 309.52 20.1315 307.778C18.7544 306.047 17.5189 304.23 16.5388 302.246C16.1505 301.462 15.8111 300.659 15.4996 299.851C19.2134 304.876 24.6971 308.293 28.4906 313.277C32.4052 318.408 34.3019 324.886 34.1247 331.301C34.0332 334.581 33.5283 337.829 33.2287 341.101L33.239 341.094ZM32.6352 343.132C32.1482 337.426 31.4131 331.678 29.3791 326.296C28.2691 323.344 26.7325 320.602 24.7989 318.114C22.7663 315.508 20.4149 313.178 18.1358 310.795C15.8745 308.416 13.6456 305.951 11.9717 303.105C10.4396 300.501 9.53324 297.637 9.02844 294.658C8.08231 288.921 8.46322 283.031 7.24696 277.33C7.19235 277.057 7.12741 276.792 7.06247 276.526C7.5909 277.615 8.09128 278.709 8.53999 279.84C9.80055 282.981 10.5149 286.231 11.2515 289.513C11.9689 292.745 12.8825 295.947 14.7276 298.749C14.7498 298.78 14.7719 298.811 14.794 298.842C15.3712 300.458 16.028 302.033 16.8517 303.536C18.9669 307.393 22.1494 310.472 24.6675 314.041C26.8787 317.159 28.6234 320.672 29.7836 324.306C30.9556 327.979 31.7703 331.719 32.1969 335.55C32.4862 338.074 32.6102 340.607 32.6146 343.147L32.6352 343.132ZM30.6513 345.642C31.2551 346.225 31.8514 346.797 32.4551 347.38C32.5422 347.568 32.6293 347.755 32.706 347.95C32.4315 347.631 32.1673 347.305 31.875 346.983C31.4765 346.535 31.0602 346.083 30.6513 345.642ZM-4.69759 271.007C-4.9456 274.461 -5.03123 277.924 -4.88809 281.379C-4.65935 287.38 -3.81804 293.364 -2.16929 299.146C-0.380324 305.452 2.40205 311.422 5.87231 316.98C9.4946 322.772 13.821 328.108 18.4131 333.161C20.6966 335.681 23.048 338.121 25.4511 340.524C21.5557 336.971 17.4389 333.654 13.4446 330.203C7.53285 325.094 1.82187 319.545 -2.26391 312.82C-4.28022 309.517 -5.8611 305.949 -6.74376 302.179C-7.60134 298.532 -7.78287 294.76 -7.59685 291.023C-7.25432 284.271 -5.76931 277.655 -4.70497 270.996L-4.69759 271.007ZM-3.81187 265.037C-3.47832 270.573 -3.07393 276.12 -2.36101 281.618C-1.5566 287.879 -0.337405 294.108 1.57999 300.135C3.4782 306.113 6.08051 311.853 9.5301 317.098C13.0978 322.508 17.405 327.359 21.6251 332.24C24.8754 336.004 28.0608 339.83 30.8742 343.922C31.196 344.613 31.5178 345.304 31.8396 345.994C31.8027 345.943 31.7451 345.906 31.6905 345.851C26.7205 341.1 21.7771 336.298 17.1658 331.196C12.5914 326.147 8.37869 320.729 4.90845 314.844C1.60941 309.242 -0.913175 303.242 -2.45564 296.931C-3.89478 291.093 -4.55009 285.086 -4.63123 279.074C-4.68432 274.368 -4.37726 269.686 -3.82663 265.017L-3.81187 265.037ZM20.6007 330.631C16.3643 325.683 12.1059 320.704 8.72269 315.116C5.47385 309.759 3.13576 303.908 1.44421 297.891C-0.273909 291.815 -1.31745 285.57 -2.03773 279.297C-2.30782 276.93 -2.5248 274.573 -2.71077 272.194C-2.45395 274.803 -2.12332 277.407 -1.59638 279.98C-0.867213 283.469 0.137965 286.887 1.36604 290.223C3.82812 296.968 7.1419 303.356 10.7524 309.546C14.5828 316.111 18.7586 322.459 22.6924 328.95C25.3714 333.356 27.9192 337.84 30.1894 342.461C27.2372 338.328 23.9131 334.46 20.6037 330.613L20.6007 330.631ZM5.72071 273.927C6.4115 275.899 6.90744 277.947 7.18641 280.042C7.97606 285.735 7.63209 291.567 9.02842 297.171C9.75316 300.086 11.0241 302.783 12.7629 305.239C14.6316 307.899 16.9195 310.228 19.1794 312.562C21.457 314.899 23.739 317.264 25.6151 319.934C27.4543 322.552 28.8167 325.465 29.785 328.503C31.5032 333.814 32.0625 339.359 32.5511 344.893C29.5591 338.323 25.922 332.073 22.1197 325.941C18.1638 319.529 14.0455 313.217 10.3421 306.656C6.79948 300.386 3.60822 293.864 1.38528 286.994C0.278232 283.588 -0.570486 280.105 -1.11809 276.564C-1.68635 272.819 -1.91069 269.032 -2.22947 265.265C-2.33427 263.982 -2.45678 262.696 -2.6147 261.405C-2.41544 261.684 -2.21615 261.963 -2.00951 262.252C0.733054 266.004 3.44312 269.842 5.703 273.924L5.72071 273.927ZM-76.7328 272.9C-75.6345 271.007 -74.6293 269.072 -73.6698 267.139C-70.7131 261.141 -68.2435 254.79 -67.6781 248.066C-67.1422 241.738 -68.2891 235.348 -70.4368 229.392C-72.8073 222.862 -76.4148 216.872 -80.6128 211.366C-84.675 206.028 -89.2494 201.087 -93.9359 196.274C-94.5913 195.4 -95.2467 194.526 -95.9228 193.667C-95.9449 193.636 -95.967 193.605 -95.9966 193.564C-96.0187 193.533 -96.0408 193.502 -96.0733 193.478C-96.2135 193.282 -96.3641 193.093 -96.522 192.894C-96.5442 192.863 -96.5737 192.821 -96.5958 192.79C-89.673 198.55 -83.0542 204.714 -76.8606 211.245C-70.9149 217.515 -65.2039 224.593 -62.8688 233.084C-61.7323 237.187 -61.5065 241.458 -62.1885 245.659C-62.8424 249.746 -64.2433 253.727 -66.115 257.42C-68.9403 263.012 -72.6985 268.083 -76.7578 272.887L-76.7328 272.9ZM-88.5904 285.988C-87.4656 284.592 -86.3836 283.179 -85.3385 281.715C-80.4673 274.881 -76.6751 267.257 -75.0573 258.97C-73.4984 251.037 -73.7256 242.789 -75.3301 234.884C-77.1013 226.178 -80.48 217.887 -84.8271 210.163C-87.2227 205.913 -89.8812 201.82 -92.7536 197.864C-88.0331 202.856 -83.4218 207.957 -79.4187 213.54C-75.4997 219.027 -72.1756 224.969 -70.118 231.411C-68.2005 237.438 -67.4124 243.85 -68.3409 250.131C-69.3344 256.802 -72.1154 263.11 -75.2079 269.049C-76.3563 271.242 -77.5904 273.403 -78.9543 275.47C-80.4393 277.17 -81.9538 278.829 -83.4506 280.491C-84.8765 282.056 -86.3275 283.607 -87.7962 285.156C-87.8789 285.215 -87.9616 285.274 -88.0368 285.343C-88.0885 285.38 -88.1047 285.423 -88.1136 285.476C-88.2701 285.65 -88.4442 285.821 -88.6007 285.996L-88.5904 285.988ZM-91.5078 201.421C-88.8258 205.373 -86.3474 209.454 -84.1599 213.696C-80.2498 221.312 -77.342 229.424 -76.015 237.902C-74.7781 245.772 -74.9243 253.913 -76.9408 261.642C-78.7417 268.514 -82.0408 274.819 -86.0928 280.615C-83.5036 274.038 -82.3832 266.933 -81.9477 259.897C-81.4753 252.257 -81.6361 244.538 -82.3224 236.914C-83.0131 229.262 -84.3755 221.653 -86.6176 214.297C-88.014 209.677 -89.766 205.17 -91.896 200.856C-91.7632 201.042 -91.6304 201.228 -91.4975 201.414L-91.5078 201.421ZM-103.154 300.073C-102.981 299.638 -102.801 299.213 -102.596 298.801C-99.1874 291.622 -93.1648 286.182 -89.2206 279.338C-87.4626 276.273 -86.0661 272.919 -85.7118 269.373C-85.5258 267.493 -85.6601 265.623 -86.0542 263.782C-86.4749 261.773 -87.1258 259.835 -87.6616 257.861C-88.2048 255.877 -88.5827 253.885 -88.6417 251.836C-88.7007 249.896 -88.531 247.949 -88.2579 246.038C-87.7235 242.176 -86.8098 238.387 -86.3639 234.511C-85.4959 226.791 -86.1025 218.907 -88.1202 211.407C-88.1483 211.302 -88.1763 211.197 -88.2044 211.092C-87.5284 213.044 -86.9114 215.022 -86.3608 217.016C-84.346 224.315 -83.1165 231.848 -82.5172 239.394C-81.9106 246.95 -81.8045 254.614 -82.4274 262.174C-82.9678 268.802 -84.1945 275.452 -86.7762 281.603C-87.2722 282.285 -87.7682 282.967 -88.2892 283.635C-92.7427 289.438 -97.8043 294.739 -102.954 299.915C-103.016 299.959 -103.071 300.014 -103.136 300.076L-103.154 300.073ZM-103.787 300.65C-103.788 300.495 -103.79 300.34 -103.791 300.185C-103.79 300.013 -103.847 299.866 -103.939 299.76C-102.013 292.08 -98.2544 285.042 -95.6903 277.577C-93.3388 270.733 -91.8671 263.159 -93.9321 256.051C-95.1085 252.023 -97.3005 248.408 -98.8769 244.541C-100.396 240.82 -100.964 236.965 -100.723 232.955C-100.238 224.962 -97.0611 217.481 -95.6823 209.646C-95.0003 205.773 -94.7759 201.805 -95.5287 197.911C-95.7324 196.839 -96.0099 195.773 -96.3715 194.721C-95.6763 195.629 -94.9914 196.544 -94.3242 197.456C-91.3543 202.794 -89.1771 208.573 -87.8708 214.552C-86.2206 222.128 -85.9683 229.953 -87.2157 237.6C-87.8327 241.412 -88.7361 245.193 -88.9886 249.056C-89.1141 250.956 -89.0801 252.882 -88.7657 254.764C-88.4336 256.759 -87.8181 258.691 -87.2513 260.642C-86.6653 262.642 -86.1207 264.672 -86.0041 266.758C-85.9111 268.548 -86.103 270.355 -86.5296 272.095C-87.3991 275.619 -89.1542 278.885 -91.1647 281.882C-95.2963 288.047 -100.898 293.422 -103.546 300.463C-103.629 300.522 -103.697 300.602 -103.783 300.678L-103.787 300.65Z" fill="#695580" fill-opacity="0.2"/>
</g>
<defs>
<clipPath id="clip0_246_145">
<rect width="268.979" height="470.635" fill="white" transform="translate(282.426 383.41) rotate(144.463)"/>
</clipPath>
</defs>
</svg>
