<svg width="129" height="114" viewBox="0 0 129 114" fill="none" xmlns="http://www.w3.org/2000/svg">
<g clip-path="url(#clip0_285_179)">
<path d="M125.284 54.5291C122.87 52.9125 120.45 51.2812 117.903 49.5728C117.25 54.6323 117.144 59.5013 115.931 64.0465C111.353 81.284 96.0503 92.6654 76.0916 93.2458C52.3218 93.9406 32.7159 84.7341 17.6974 66.1314C12.6568 59.8888 10.1177 52.6472 10.2315 44.6644C10.5806 45.2397 11.1008 45.7819 11.2637 46.3947C16.1754 65.7643 30.0283 77.3807 48.3248 84.6192C64.0568 90.8385 79.843 91.8371 94.5923 83.8086C107.237 76.9333 112.967 65.9772 112.327 51.7117C112.261 50.3541 111.903 48.9915 111.611 47.1939C108.559 50.3313 105.952 53.0222 103.351 55.7036C103.038 55.4599 102.721 55.2257 102.408 54.982C104.796 50.3016 107.127 45.5804 109.657 40.9728C109.94 40.4431 111.705 40.0314 112.075 40.3402C116.965 44.5082 121.718 48.8221 126.504 53.0934C126.094 53.5702 125.684 54.0471 125.273 54.5239L125.284 54.5291Z" fill="#C1C1C1"/>
</g>
<defs>
<clipPath id="clip0_285_179">
<rect width="107.417" height="72.6575" fill="white" transform="translate(95.6875 113.533) rotate(-152.974)"/>
</clipPath>
</defs>
</svg>
