<svg width="138" height="126" viewBox="0 0 138 126" fill="none" xmlns="http://www.w3.org/2000/svg">
<g clip-path="url(#clip0_285_177)">
<path d="M133.771 59.4397C131.358 61.3627 128.941 63.3017 126.395 65.3337C125.288 60.0975 124.774 55.0087 123.119 50.3647C116.866 32.7499 99.7828 22.2902 78.6805 23.5854C53.5485 25.1242 33.627 36.6346 19.3208 57.5475C14.5192 64.5654 12.439 72.3909 13.2185 80.7397C13.5393 80.104 14.0432 79.4866 14.1645 78.8294C17.7456 58.077 31.3993 44.5914 50.1022 35.2667C66.184 27.2538 82.7543 24.7029 98.9764 31.7042C112.883 37.6985 119.833 48.6255 120.336 63.6254C120.379 65.0533 120.113 66.5145 119.955 68.4247C116.475 65.4302 113.504 62.8608 110.538 60.3009C110.228 60.5859 109.912 60.8614 109.603 61.1465C112.508 65.8202 115.357 70.542 118.407 75.1258C118.749 75.6535 120.645 75.9164 121.009 75.5578C125.824 70.7268 130.481 65.7561 135.178 60.8267C134.705 60.3665 134.233 59.9063 133.761 59.4461L133.771 59.4397Z" fill="#C1C1C1"/>
</g>
<defs>
<clipPath id="clip0_285_177">
<rect width="114.104" height="76.0996" fill="white" transform="matrix(-0.849295 0.527919 0.527919 0.849295 97.6758 0.472168)"/>
</clipPath>
</defs>
</svg>
