<svg width="45" height="45" viewBox="0 0 45 45" fill="none" xmlns="http://www.w3.org/2000/svg">
<g clip-path="url(#clip0_285_189)">
<path d="M14.0626 1.875H10.3125C9.79503 1.875 9.375 2.29503 9.375 2.81253C9.375 3.33003 9.79503 3.75006 10.3125 3.75006H14.0626C14.5819 3.75006 15.0001 3.33003 15.0001 2.81253C15.0001 2.29503 14.582 1.875 14.0626 1.875Z" fill="#FAFAFA"/>
<path d="M25.3126 1.875H21.5625C21.045 1.875 20.625 2.29503 20.625 2.81253C20.625 3.33003 21.045 3.75006 21.5625 3.75006H25.3126C25.8319 3.75006 26.2501 3.33003 26.2501 2.81253C26.2501 2.29503 25.832 1.875 25.3126 1.875Z" fill="#FAFAFA"/>
<path d="M14.0626 30.9375H10.3125C9.79503 30.9375 9.375 31.3575 9.375 31.875C9.375 32.3925 9.79503 32.8126 10.3125 32.8126H14.0626C14.5819 32.8126 15.0001 32.3925 15.0001 31.875C15.0001 31.3575 14.582 30.9375 14.0626 30.9375Z" fill="#FAFAFA"/>
<path d="M25.3126 30.9375H21.5625C21.045 30.9375 20.625 31.3575 20.625 31.875C20.625 32.3925 21.045 32.8126 21.5625 32.8126H25.3126C25.8301 32.8126 26.2501 32.3925 26.2501 31.875C26.2501 31.3575 25.832 30.9375 25.3126 30.9375Z" fill="#FAFAFA"/>
<path d="M2.81253 20.625C2.29318 20.625 1.875 21.045 1.875 21.5625V25.3125C1.875 25.83 2.29503 26.25 2.81253 26.25C3.33003 26.25 3.75006 25.83 3.75006 25.3125V21.5624C3.75006 21.0449 3.33196 20.625 2.81253 20.625Z" fill="#FAFAFA"/>
<path d="M2.81253 9.375C2.29318 9.375 1.875 9.79503 1.875 10.3125V14.0625C1.875 14.58 2.29503 15 2.81253 15C3.33187 15 3.75006 14.58 3.75006 14.0625V10.3124C3.75006 9.79494 3.33196 9.375 2.81253 9.375Z" fill="#FAFAFA"/>
<path d="M32.8125 20.625C32.295 20.625 31.875 21.045 31.875 21.5625V25.3125C31.875 25.83 32.295 26.25 32.8125 26.25C33.33 26.25 33.7501 25.83 33.7501 25.3125V21.5624C33.75 21.0449 33.3319 20.625 32.8125 20.625Z" fill="#FAFAFA"/>
<path d="M32.8125 9.375C32.2932 9.375 31.875 9.79503 31.875 10.3125V14.0625C31.875 14.58 32.295 15 32.8125 15C33.33 15 33.7501 14.58 33.7501 14.0625V10.3124C33.75 9.79494 33.3319 9.375 32.8125 9.375Z" fill="#FAFAFA"/>
<path d="M34.6876 0H30.9375C30.42 0 30 0.420029 30 0.937529V4.68756C30 5.20506 30.42 5.62509 30.9375 5.62509H34.6876C35.2069 5.62509 35.6251 5.20506 35.6251 4.68756V0.937529C35.6251 0.420029 35.2069 0 34.6876 0Z" fill="#FAFAFA"/>
<path d="M4.68756 0H0.937529C0.420029 0 0 0.420029 0 0.937529V4.68756C0 5.20497 0.420029 5.625 0.937529 5.625H4.68756C5.2069 5.625 5.62509 5.20497 5.62509 4.68747V0.937529C5.625 0.420029 5.2069 0 4.68756 0Z" fill="#FAFAFA"/>
<path d="M4.68756 29.0625H0.937529C0.420029 29.0625 0 29.4825 0 30V33.75C0 34.2675 0.420029 34.6875 0.937529 34.6875H4.68756C5.2069 34.6875 5.62509 34.2675 5.62509 33.75V29.9999C5.625 29.4824 5.2069 29.0625 4.68756 29.0625Z" fill="#FAFAFA"/>
<path d="M44.5181 33.8682L27.6431 24.4932C27.2943 24.3001 26.863 24.3469 26.5687 24.6095C26.2706 24.872 26.1693 25.2919 26.3174 25.6613L33.8174 44.4113C33.958 44.7638 34.2974 44.9963 34.6762 45.0001C34.6799 45.0001 34.6836 45.0001 34.6874 45.0001C35.0624 45.0001 35.4018 44.7769 35.5499 44.432L38.2143 38.2145L44.4318 35.5501C44.7599 35.4095 44.9792 35.0926 44.998 34.7363C45.0168 34.3801 44.8293 34.0426 44.5181 33.8682Z" fill="#FAFAFA"/>
</g>
<defs>
<clipPath id="clip0_285_189">
<rect width="45" height="45" fill="white"/>
</clipPath>
</defs>
</svg>
