<svg width="394" height="17" viewBox="0 0 394 17" fill="none" xmlns="http://www.w3.org/2000/svg">
<path fill-rule="evenodd" clip-rule="evenodd" d="M0.903637 0.372534C-0.584304 1.02005 -0.192355 2.18279 1.76757 2.96956C5.8474 4.64405 21.4708 6.5553 41.566 7.819C59.1493 8.91212 65.0371 8.94693 111.739 7.98958C136.226 7.51264 156.481 7.17147 156.633 7.23761C156.793 7.30724 152.082 7.71456 146.114 8.12536C123.899 9.69541 94.2279 12.8738 89.8361 14.1027C87.5562 14.7502 87.3242 15.7076 89.2121 16.3899C91.02 17.0722 105.299 17.1767 132.306 16.7311C222.255 15.2272 262.605 14.6145 295.1 14.3046C351.458 13.7581 394 12.7346 394 11.913C394 10.0679 230.423 11.1959 115.747 13.7929L108.683 13.9287L113.003 13.4517C125.795 11.9826 172.033 8.97827 202.328 7.64494C219.599 6.89298 221.871 6.72238 223.047 6.10619C224.535 5.31943 224.223 4.53617 222.183 4.09056C220.695 3.7494 117.787 4.22634 88.6681 4.70676C67.7889 5.08273 55.6214 4.84249 41.966 3.88862C30.1104 3.07052 16.375 1.7372 10.1752 0.814663C3.6635 -0.142689 2.24754 -0.208843 0.911596 0.369049L0.903637 0.372534Z" fill="#DBFFC4"/>
</svg>
