<svg width="292" height="158" viewBox="0 0 292 158" fill="none" xmlns="http://www.w3.org/2000/svg">
<path d="M29.9982 155.644H0L54.618 0H89.3129L144.007 155.644H114.008L72.5715 31.9192H71.3594L29.9982 155.644ZM30.983 94.6176H112.796V117.265H30.983V94.6176Z" fill="#DDDDDD"/>
<path d="M196.712 158C189.339 158 182.698 156.683 176.789 154.048C170.931 151.363 166.284 147.411 162.85 142.192C159.467 136.974 157.775 130.539 157.775 122.889C157.775 116.302 158.987 110.856 161.411 106.549C163.835 102.243 167.143 98.7975 171.335 96.2136C175.526 93.6296 180.248 91.679 185.5 90.3617C190.803 88.9937 196.283 88.0058 201.939 87.3978C208.757 86.6885 214.287 86.0552 218.529 85.4978C222.771 84.8899 225.852 83.9779 227.771 82.7619C229.74 81.4953 230.725 79.5446 230.725 76.91V76.4541C230.725 70.7289 229.033 66.2957 225.65 63.1544C222.266 60.0131 217.393 58.4425 211.029 58.4425C204.312 58.4425 198.985 59.9118 195.045 62.8504C191.157 65.789 188.531 69.2596 187.167 73.2621L161.562 69.6142C163.583 62.5211 166.916 56.5932 171.562 51.8307C176.208 47.0175 181.89 43.4202 188.606 41.039C195.323 38.607 202.747 37.3911 210.878 37.3911C216.483 37.3911 222.064 38.0497 227.619 39.367C233.174 40.6843 238.25 42.8629 242.846 45.9028C247.441 48.8921 251.128 52.9707 253.906 58.1385C256.734 63.3064 258.148 69.7662 258.148 77.518V155.644H231.786V139.608H230.877C229.21 142.851 226.862 145.891 223.832 148.728C220.852 151.515 217.089 153.769 212.544 155.492C208.05 157.164 202.772 158 196.712 158ZM203.833 137.785C209.337 137.785 214.11 136.695 218.15 134.517C222.19 132.287 225.296 129.349 227.468 125.701C229.69 122.053 230.801 118.076 230.801 113.769V100.013C229.942 100.723 228.478 101.381 226.407 101.989C224.387 102.597 222.114 103.129 219.589 103.585C217.064 104.041 214.564 104.447 212.09 104.801C209.615 105.156 207.469 105.46 205.651 105.713C201.56 106.271 197.899 107.183 194.667 108.449C191.434 109.716 188.884 111.489 187.016 113.769C185.147 115.998 184.213 118.886 184.213 122.433C184.213 127.499 186.056 131.325 189.743 133.909C193.429 136.493 198.126 137.785 203.833 137.785Z" fill="#DDDDDD"/>
<path d="M292 144.944C292 150.853 287.225 155.644 281.334 155.644C275.443 155.644 270.668 150.853 270.668 144.944C270.668 139.034 275.443 134.243 281.334 134.243C287.225 134.243 292 139.034 292 144.944Z" fill="#129490"/>
</svg>
