<svg width="37" height="48" viewBox="0 0 37 48" fill="none" xmlns="http://www.w3.org/2000/svg">
<path fill-rule="evenodd" clip-rule="evenodd" d="M13.3444 0.174502C9.05135 1.0278 4.64639 5.96368 2.47342 12.3272C-0.505257 21.011 -0.796201 30.8064 1.61482 40.9736C2.98615 46.707 3.9526 48.5624 5.23237 47.8578C5.83462 47.5417 5.87123 47.0231 5.39716 46.0397C4.42869 44.0727 3.20385 39.5273 2.40018 34.8518C1.94442 32.2361 1.88949 31.5688 1.88949 27.2444C1.88949 21.9573 2.09093 20.1392 3.15096 15.8334C4.43074 10.6765 6.03807 7.54013 8.83363 4.70132C11.2813 2.19721 12.5244 1.54639 14.7727 1.54639C16.0158 1.54639 16.4899 1.63935 17.1654 1.97406C19.7412 3.25504 21.8064 6.81699 22.2987 10.8417L22.5185 12.5855L21.8063 13.1785C17.2386 16.852 15.0453 22.3808 17.3485 24.3664C18.0423 24.9407 19.1756 24.9965 20.0159 24.4593C21.6782 23.4387 23.5602 19.0792 23.8349 15.664C23.9813 13.6599 23.9997 13.6227 24.9498 13.1599C26.2479 12.5111 26.7952 12.381 28.1828 12.381C30.6488 12.381 33.1534 14.1433 34.4861 16.8706C35.4363 18.7631 35.6926 20.3582 35.4179 22.418C34.4678 29.4304 29.662 35.2753 22.1706 38.486C18.7544 39.9509 16.142 40.5645 11.1348 41.0645C9.56407 41.2319 8.10119 41.4364 7.88348 41.5273C7.33617 41.7691 7.35446 42.1761 7.9384 42.7711C8.41246 43.2525 8.43078 43.2525 10.3311 43.1244C17.5479 42.643 22.6833 41.1203 27.251 38.0769C28.9316 36.9447 32.1849 33.6431 33.2612 31.9737C35.0883 29.1163 36.2582 26.1287 36.8055 22.9759C37.1535 20.8602 37.0436 19.2652 36.4027 17.2053C35.5624 14.5152 33.9184 12.5855 31.4138 11.3231C30.0974 10.6744 29.9713 10.6372 28.2154 10.6558C26.4066 10.6558 26.2601 10.693 24.2499 11.5463C23.9936 11.6578 23.9203 11.5091 23.8104 10.6372C23.2082 5.73849 20.138 1.30464 16.612 0.265398C15.5336 -0.0507139 14.5835 -0.0878934 13.3423 0.172434L13.3444 0.174502ZM21.8226 17.1144C20.8175 21.1226 18.4614 24.3498 18.2783 21.9759C18.1501 20.4553 19.3017 18.0792 21.0739 16.2053C21.6395 15.6123 22.1339 15.1846 22.1706 15.2218C22.2255 15.2776 22.0607 16.1309 21.8226 17.1144Z" fill="#7649B7"/>
</svg>
