<svg width="57" height="53" viewBox="0 0 57 53" fill="none" xmlns="http://www.w3.org/2000/svg">
<path fill-rule="evenodd" clip-rule="evenodd" d="M1.63086 10.6174C1.85845 12.7862 3.7546 13.9273 5.82657 13.1149C6.67267 12.7929 7.1027 12.7863 8.13807 13.1581C11.6008 14.3601 15.9353 16.9117 17.8848 18.8786C19.165 20.1737 20.2597 21.5867 20.1138 21.7638C20.0548 21.8355 19.0173 22.06 17.7913 22.2495C15.5227 22.6325 12.2238 22.6747 8.88895 22.3565C7.16196 22.1935 6.95378 22.1122 6.68451 21.5897C6.22027 20.636 5.1105 19.8721 4.08455 19.7486C2.50764 19.5889 1.64513 19.9308 0.733488 21.0375C0.0120457 21.9133 -0.0661064 22.1194 0.0961635 23.0316C0.260948 24.1262 0.839295 24.723 2.31937 25.4043C3.78489 26.0703 5.57208 25.715 6.50012 24.5884C6.7805 24.2481 7.42692 24.2427 9.70794 24.4712C11.5555 24.6735 13.8783 24.6658 16.0966 24.4551L19.6168 24.1442L18.9491 25.2146C17.4104 27.639 14.3639 29.9271 11.0904 31.163L9.20426 31.8611L8.39464 31.104C7.07022 29.8626 5.23305 29.7591 3.90249 30.8547C3.1239 31.503 2.7588 32.7626 3.07643 33.7459C3.42081 34.8081 4.9582 36.0177 6.11256 36.0966C7.65305 36.2263 9.05691 35.3715 9.28083 34.1761C9.35995 33.8203 9.78439 33.6019 11.3946 33.1275C14.309 32.2574 16.5712 30.8801 18.6485 28.6924L20.3222 26.9204L19.9689 28.31C19.4895 30.2237 18.8076 31.7936 17.4825 34.0331C16.4274 35.8334 16.3241 35.9589 15.8999 35.88C14.9182 35.7028 13.0287 36.034 12.4915 36.4634C10.6401 37.9687 11.207 40.8346 13.5779 41.919C14.2584 42.239 14.6575 42.237 15.3717 41.9266C17.1373 41.1894 17.8512 40.1002 17.7526 38.3685C17.6911 37.1485 17.7363 36.9451 18.6766 35.6182C20.7587 32.6825 22.097 28.9839 22.3304 25.5176C22.4933 23.283 22.2017 23.3401 26.4609 24.54C34.1552 26.6787 40.2022 29.8893 45.2134 34.4686C50.079 38.9278 52.3282 42.9388 53.8619 49.9624C54.3351 52.0928 54.913 53.02 55.554 52.6459C57.6244 51.5015 55.169 42.6363 51.3022 37.4429C47.6659 32.5263 41.0416 27.4602 34.6421 24.6775C31.0061 23.0922 25.7469 21.7 23.4242 21.7077L22.5308 21.7201L22.674 20.5485C22.9559 18.021 22.3759 15.1709 20.9271 11.9695C19.7812 9.43518 18.5906 7.88301 16.3079 5.91238C14.666 4.49971 14.3608 4.12806 14.2859 3.55517C14.096 2.3797 13.7155 1.76547 12.8277 1.21454C11.5348 0.450227 10.3821 0.36933 9.46474 0.963422C7.74366 2.12496 7.73356 4.24829 9.47777 5.68513C10.5684 6.58358 11.649 6.75203 12.8041 6.20338L13.5625 5.83926L15.3969 7.50067C17.5408 9.41713 18.7573 11.1977 19.7772 13.9591C20.385 15.6291 20.998 18.4763 20.8078 18.7072C20.7488 18.7788 19.7562 18.0212 18.604 17.0119C16.0831 14.815 13.7091 13.4006 10.295 12.0282C8.39075 11.268 7.93108 11.0097 8.01892 10.7546C8.19442 10.2076 7.55962 8.75577 6.92426 8.23238C5.38037 6.96056 3.50486 7.12622 2.23905 8.6628C1.62091 9.41318 1.53491 9.70313 1.63124 10.6211L1.63086 10.6174Z" fill="#DBFFC4"/>
</svg>
