<svg width="125" height="9" viewBox="0 0 125 9" fill="none" xmlns="http://www.w3.org/2000/svg">
<path fill-rule="evenodd" clip-rule="evenodd" d="M4.13595 0.0782069C1.01809 0.204878 0 0.616554 0 1.75659C0 2.64329 2.1634 2.73827 15.9989 2.57993L28.7845 2.42158L25.9212 3.02328C21.3398 4.00498 19.944 4.44834 19.594 5.01836C19.1168 5.74671 19.6576 6.57009 20.8666 6.91844C21.3756 7.04511 30.0889 7.07674 40.2975 6.98174C60.3011 6.76006 87.4949 7.2034 100.503 7.96343C113.066 8.69178 124.675 9.16684 124.897 8.94517C125.343 8.50182 124.515 8.31179 118.888 7.58343C107.98 6.22172 90.5213 5.05005 78.7219 4.89171C76.5903 4.86004 75.4132 4.76503 76.0177 4.63836C76.8449 4.51169 77.1312 4.28999 77.1312 3.81497C77.1312 3.05495 75.9222 2.86496 68.8951 2.54828C66.2545 2.45328 59.5137 2.00992 53.9143 1.59824C48.3188 1.15489 41.3196 0.679908 38.329 0.489902C32.6978 0.141558 9.38938 -0.143467 4.13993 0.0782069H4.13595ZM72.355 4.29001C73.9775 4.48002 72.2914 4.51167 67.6146 4.41666C63.6059 4.35333 55.6562 4.25833 49.9653 4.22667C39.6612 4.16333 39.6294 4.16334 46.1157 3.94167C53.4291 3.71999 68.4736 3.91 72.355 4.29001ZM35.8434 4.51166C35.2072 4.575 34.1891 4.575 33.6164 4.51166C33.0756 4.44833 33.6164 4.38501 34.8254 4.38501C36.0343 4.38501 36.5116 4.44833 35.8434 4.51166Z" fill="#7649B7"/>
</svg>
