<svg width="72" height="42" viewBox="0 0 72 42" fill="none" xmlns="http://www.w3.org/2000/svg">
<path fill-rule="evenodd" clip-rule="evenodd" d="M71.1507 21.3065C70.6348 20.2499 69.5961 20.3051 66.3911 21.5427C62.3738 23.098 59.4213 23.7683 54.4214 24.2094C49.9763 24.5974 45.9419 24.3656 42.351 23.5087C40.5893 23.1084 34.9427 21.0574 34.4873 20.6777C34.3789 20.5873 34.4927 19.3926 34.7118 18.0276C35.3813 14.2705 34.7898 8.58177 33.5018 5.62443C32.5711 3.52193 32.3219 3.20357 30.7147 1.8635C29.1075 0.52343 28.817 0.391788 27.6856 0.332833C23.9779 0.189221 20.7817 4.86515 21.4918 9.43677C22.0896 13.1779 24.5754 16.9865 28.3732 19.9321L30.7938 21.8398L29.8178 23.7159C29.0993 25.1066 28.2381 26.2718 26.6325 28.0652C24.7132 30.1907 24.0212 30.756 21.6816 32.1952C16.7322 35.2211 10.0875 37.9387 4.74754 39.0913C2.52143 39.5566 0.792084 40.4402 0.791149 41.1027C0.781222 43.0105 8.82821 41.6094 16.0164 38.4605C25.5422 34.2718 30.5947 29.9318 33.182 23.61C33.3092 23.237 33.5698 23.2332 34.2025 23.5765C37.5281 25.2807 42.9837 26.7671 47.8211 27.2263C51.2861 27.5728 58.9049 26.9939 62.4833 26.1413C65.2707 25.4438 70.4021 23.3067 71.0384 22.5435C71.3284 22.1957 71.3724 21.7902 71.1487 21.3089L71.1507 21.3065ZM29.6546 17.3811C25.6836 14.0701 23.5164 9.61 24.3876 6.53695C24.5694 5.87793 25.1173 4.82401 25.6248 4.21539C26.8391 2.75904 27.6968 2.70036 29.1316 3.93358C30.6966 5.2753 31.6795 7.93729 32.0231 11.8021C32.287 14.5278 32.0471 18.1273 31.5577 18.7141C31.4852 18.8011 30.6285 18.1972 29.6526 17.3836L29.6546 17.3811Z" fill="#DBFFC4"/>
</svg>
