<svg width="346" height="78" viewBox="0 0 346 78" fill="none" xmlns="http://www.w3.org/2000/svg">
<path fill-rule="evenodd" clip-rule="evenodd" d="M157.748 0.132455C156.539 0.186128 152.243 0.373976 148.332 0.534995C100.029 2.4374 55.6451 9.28966 30.1676 18.8226C12.0078 25.6241 1.1572 33.6035 0.0998407 40.9925C-1.85544 54.1662 24.9648 65.3332 75.6091 72.4836C103.495 76.4196 129.191 78 165.284 78C209.29 78 242.228 75.537 275.459 69.7523C313.516 63.1117 338.683 53.0421 345.094 41.8781C346.529 39.3346 346.227 34.4891 344.415 31.8353C334.395 17.2422 295.658 7.36041 237.629 4.60222C225.646 4.03865 194.898 3.98498 180.733 4.46803C156.69 5.32382 135.216 6.95787 113.137 9.63555C91.5871 12.2327 79.7547 14.4542 62.2662 19.1685C51.038 22.1682 53.5974 22.2219 68.518 19.249C84.7981 16.0346 93.7605 14.5108 106.122 12.8768C127.219 10.0918 148.173 8.24303 170.478 7.17256C187.211 6.37044 216.751 6.18259 231.218 6.77002C275.527 8.59192 308.615 14.5079 325.869 23.6919C341.242 31.8591 342.526 40.7748 329.486 49.2104C324.736 52.2638 320.062 54.3779 310.722 57.6729C297.756 62.2798 283.742 65.6254 265.884 68.4105C234.759 73.2828 203.189 75.4804 164.151 75.4804C125.112 75.4804 93.4668 73.0979 61.9641 67.501C37.9972 63.2429 22.1031 58.0486 13.7365 51.7838C8.83568 48.0893 7.86224 46.4821 7.86224 42.2777C7.93776 37.8586 9.67485 35.5029 16.4554 30.6306C37.5523 15.5008 85.6373 5.88738 154.735 3.05166C175.681 2.19588 210.196 2.30322 223.539 3.29319C226.099 3.48105 228.214 3.53472 228.214 3.42738C228.214 3.02483 221.886 1.90068 216.532 1.34009C207.41 0.376962 194.982 -0.0255825 176.747 0.00125399C167.549 0.0280905 159.04 0.108604 157.756 0.13544L157.748 0.132455Z" fill="#DBFFC4"/>
</svg>
