<svg width="12" height="16" viewBox="0 0 12 16" fill="none" xmlns="http://www.w3.org/2000/svg">
<path fill-rule="evenodd" clip-rule="evenodd" d="M4.92321 0.661917C4.02792 1.61825 3.33611 3.10589 2.4996 5.95455C2.09265 7.33818 1.36013 9.7618 0.87179 11.3286C-0.0641972 14.3219 -0.186284 15.2375 0.220667 15.6445C0.566576 15.9904 1.42117 15.9497 2.0316 15.5224C2.58099 15.1765 7.34457 11.0844 9.2188 9.37293C11.9069 6.92897 12.0901 4.69073 9.60541 4.69073C8.99498 4.69073 8.38456 4.85352 7.9776 5.09769C7.61135 5.32152 7.30613 5.48429 7.30613 5.4436C7.30613 5.42325 7.44857 5.03665 7.61135 4.58901C8.20143 2.92051 7.87586 0.476534 7.00092 0.130625C6.22771 -0.15424 5.5359 0.0288937 4.92321 0.659668V0.661917ZM6.30684 3.10588C6.18476 3.65527 5.75746 4.87612 5.35051 5.83472C4.618 7.50322 4.55695 8.1566 5.14703 8.1566C5.30981 8.1566 5.69641 7.85139 6.02197 7.46479C6.65275 6.77297 8.14038 6.12185 9.17811 6.12185C9.84958 6.12185 9.86992 6.16255 9.40193 6.87471C9.11706 7.32236 4.15 11.5976 2.74376 12.6172C2.3775 12.8818 2.35716 12.8818 2.4996 12.4138C2.56064 12.1492 3.08967 10.1529 3.63905 7.97574C4.67678 4.00571 5.20582 2.47964 5.81851 1.78556C6.14407 1.46 6.16441 1.43965 6.34753 1.76521C6.46962 1.98903 6.46962 2.47737 6.30684 3.10815V3.10588Z" fill="#7649B7"/>
</svg>
