<svg width="113" height="84" viewBox="0 0 113 84" fill="none" xmlns="http://www.w3.org/2000/svg">
<path fill-rule="evenodd" clip-rule="evenodd" d="M0.406732 34.9932C0.594704 35.9906 2.74228 36.5943 8.57743 37.3448C22.2687 39.0016 37.1352 38.5751 49.5604 36.0671L55.2395 34.9639L57.0717 39.2854C60.745 47.6818 67.0858 56.5969 74.8316 64.2982C81.1348 70.6101 90.2888 76.4292 95.6726 77.5609C96.1695 77.6732 94.5633 78.2421 92.1494 78.8604C87.7891 79.9325 86.4368 80.67 85.8026 82.2234C85.0177 84.0926 86.8294 84.1714 95.208 82.7305C99.8513 81.9429 104.868 81.389 106.596 81.5173C108.348 81.6091 110.109 81.6042 110.517 81.4529C111.669 81.1085 112.614 79.3933 112.245 78.435C112.08 77.9676 109.811 76.1003 106.689 73.943C100.641 69.6519 98.7968 67.85 94.9373 62.4863C93.4238 60.3294 91.8991 58.4231 91.5692 58.2115C89.6267 56.9657 90.4514 63.0195 92.7698 66.6727C93.6409 68.0566 95.2114 70.0439 96.2976 71.1016C97.4164 72.1801 98.2317 73.1672 98.138 73.3134C98.0677 73.423 96.7601 73.2034 95.2429 72.7462C90.9305 71.4764 83.7263 66.6499 78.7556 61.6567C73.5843 56.4834 69.291 51.1509 66.1184 46.0157C63.4378 41.7175 59.697 34 60.0486 33.4518C60.1424 33.3056 61.5023 32.4756 63.066 31.5699C64.6062 30.7008 66.5977 29.4506 67.4326 28.794C74.8324 23.0631 76.9691 14.7306 72.9694 7.56914C71.6963 5.36002 70.9075 4.49301 68.7247 2.88682C65.4699 0.541516 63.475 -0.0672226 60.4675 0.428219C56.2449 1.12444 52.9164 5.18519 51.8297 10.9931C51.1305 14.8258 51.3185 19.1301 52.5267 25.3209L53.6063 30.816L49.5537 31.5697C39.9499 33.308 26.281 33.8836 12.631 33.1302C3.06887 32.6257 1.53715 32.6749 0.833973 33.7714C0.552702 34.21 0.334516 34.7922 0.410808 34.9958L0.406732 34.9932ZM60.6484 4.57321C63.8081 3.1953 67.6956 4.96634 69.9059 8.85971C73.9022 15.7038 70.3288 23.3728 61.0531 27.9063L58.4944 29.1539L57.8576 27.4044C56.8658 24.7567 55.8809 16.8465 56.1114 13.7448C56.5183 8.99676 58.1207 5.69161 60.6458 4.57727L60.6484 4.57321Z" fill="#7649B7"/>
</svg>
