<svg width="19" height="36" viewBox="0 0 19 36" fill="none" xmlns="http://www.w3.org/2000/svg">
<path fill-rule="evenodd" clip-rule="evenodd" d="M7.99641 0.518493C7.64103 0.908359 7.51179 2.69528 7.44718 7.99457L7.35025 14.9183L5.5087 13.5213C1.95132 10.7597 0.206802 10.3337 0.0129596 12.1242C-0.0839619 12.969 0.303696 13.4563 3.21493 16.2214L6.54616 19.3765L3.92927 23.2463C0.791889 27.9283 -0.144976 29.7152 0.113481 30.5599C0.630395 32.1518 2.63339 30.6573 5.80307 26.3002L7.22458 24.3184L7.38609 28.8054C7.57994 33.7149 8.19378 35.7942 9.55068 35.9891C10.6168 36.1515 10.9399 34.5271 10.9399 29.1303V24.2534L12.5553 25.7804C14.2999 27.4048 15.3014 27.9247 16.7911 27.9247C17.5342 27.9247 17.728 27.7947 17.728 27.2099C17.728 26.3977 16.7588 25.0656 13.5891 21.5208L11.1984 18.8567L14.6588 14.4346C16.5326 12.0304 18.3131 9.65511 18.5716 9.16778C19.1531 7.96569 19.1532 6.82855 18.507 6.56864C17.5055 6.17878 15.8578 7.41337 13.4957 10.3735L11.105 13.3299L10.9435 7.34839C10.8143 2.01661 10.7173 1.26934 10.1681 0.652057C9.42503 -0.160165 8.58512 -0.225137 8.0036 0.522106L7.99641 0.518493Z" fill="#DBFFC4"/>
</svg>
