<svg width="125" height="29" viewBox="0 0 125 29" fill="none" xmlns="http://www.w3.org/2000/svg">
<path fill-rule="evenodd" clip-rule="evenodd" d="M124.386 28.7116C124.064 28.815 122.66 28.5001 121.262 28.0405C110.132 24.3729 104.039 23.4746 97.5808 24.5254C94.8183 24.969 94.2699 24.9189 93.7838 24.0891C93.1575 23.0543 93.685 22.1478 95.3649 21.3179C97.8971 20.0865 101.999 18.7129 105.29 18.0033L108.495 17.3482L105.835 15.8873C85.5447 4.66935 57.9224 0.712289 34.0362 5.599C22.2089 8.00337 13.8045 12.3616 4.45541 20.9317C2.56623 22.6803 0.777217 24.0853 0.491198 24.0742C0.115204 24.0597 0.00843566 23.8239 0.0362399 23.104C0.181095 19.3537 10.2156 10.9549 19.6022 6.66356C26.3666 3.60017 35.8698 1.54054 47.1441 0.704715C52.1894 0.320265 66.1826 0.918676 71.3802 1.75668C86.1731 4.1497 98.4696 8.26471 108.643 14.2642C109.886 15.0074 110.988 15.626 111.104 15.6305C111.191 15.6339 111.094 15.1377 110.857 14.5235C109.649 11.3839 109.537 8.28664 110.452 4.85569C111.127 2.36817 112.247 1.02433 113.389 1.38383C114.36 1.65307 114.762 2.50537 115.575 6.12212C116.492 10.0294 117.853 14.4751 118.788 16.5066C119.479 18.0363 120.105 19.0711 123.753 24.8765C125.169 27.1262 125.379 28.4377 124.383 28.7147L124.386 28.7116Z" fill="#129590"/>
</svg>
