<svg width="1" height="2" viewBox="0 0 1 2" fill="none" xmlns="http://www.w3.org/2000/svg">
<path d="M0.936796 0.885257C0.933355 0.837154 0.92646 0.789052 0.923019 0.740949C0.923019 0.720333 0.919572 0.699718 0.916131 0.679102C0.916131 0.68941 0.916131 0.699716 0.916131 0.710024C0.909249 0.641306 0.90239 0.576025 0.895508 0.510742C0.912712 0.675667 0.92648 0.84059 0.943685 1.00551C0.943685 1.01239 0.943685 1.01926 0.943685 1.0227C0.943685 1.04331 0.947132 1.06393 0.950573 1.08454C0.950573 1.04675 0.943681 1.01239 0.940241 0.974592C0.940241 0.947105 0.933352 0.916181 0.933352 0.888694L0.936796 0.885257Z" fill="#7649B7"/>
</svg>
