<svg width="80" height="78" viewBox="0 0 80 78" fill="none" xmlns="http://www.w3.org/2000/svg">
<path d="M76.3918 40.3913C75.3686 40.8614 73.8853 41.557 72.0547 42.4125C68.4123 44.1328 63.3711 46.5111 57.8042 49.1526C51.7867 52.001 44.6051 55.4134 37.9117 58.5626C44.2953 54.981 51.1671 51.1738 56.9217 47.9964C71.0784 40.1626 78.2443 35.9292 78.4195 35.2963C78.5228 34.9202 78.4759 34.516 78.2787 34.1776C77.8281 33.3974 77.0677 33.2751 76.0257 33.7922L71.0033 36.3021C57.945 42.8449 47.0271 48.2784 38.2872 52.5838C45.5814 48.4194 53.223 44.067 59.3438 40.5888C64.2535 37.7968 68.5719 35.3433 71.6698 33.5666C75.3247 31.4796 77.2085 30.2231 77.3212 29.7969C77.4245 29.4303 77.3681 29.0355 77.1804 28.7065C76.4575 27.4468 75.3028 27.9638 73.0029 28.9979C71.6135 29.6277 69.6233 30.5678 66.9196 31.8839C61.8784 34.3374 55.0348 37.7404 47.7875 41.3502C42.8871 43.7849 37.4517 46.4923 32.1758 49.1056C34.6729 47.705 37.1982 46.2855 39.6578 44.9036C74.702 25.2471 74.7677 25.0027 75.0494 23.9686C75.1526 23.602 75.0963 23.179 74.9086 22.85C74.1388 21.5151 72.8151 22.0979 69.9331 23.3764C68.1025 24.1848 65.5115 25.4069 62.0005 27.1178C55.5136 30.267 46.783 34.6476 38.3341 38.8779C35.7619 40.1657 33.077 41.51 30.3921 42.8543C35.9872 39.7051 41.7137 36.5089 46.6516 33.7546C62.1601 25.0998 70.0019 20.4654 70.1772 19.8512C70.2804 19.4846 70.2241 19.0709 70.0363 18.7419C69.3417 17.5387 68.2996 18.0181 66.4033 18.8923C65.3331 19.3906 63.7841 20.1332 61.6625 21.1673C57.6915 23.1038 52.1152 25.8581 46.2198 28.7817C44.0324 29.8628 41.6949 31.0284 39.2729 32.2129C65.7743 17.4164 69.3604 14.7937 69.7359 13.4494C69.8486 13.0358 69.8017 12.6128 69.5951 12.2556C68.8159 10.9113 67.4266 11.5129 64.3943 12.8196C62.4417 13.6656 59.6817 14.9347 55.9642 16.702C51.1201 19.0051 45.2341 21.8723 39.1415 24.8523C59.9821 13.158 62.1601 11.5505 62.4605 10.4601C62.5637 10.084 62.5074 9.64221 62.3197 9.30379C61.5405 7.95011 60.1229 8.55174 57.0062 9.86782C54.9973 10.7233 52.181 11.9923 48.4071 13.7596C44.1639 15.7432 39.0945 18.1779 33.9501 20.6596C59.1654 6.48363 59.2405 6.18281 59.494 5.27096C59.5972 4.90434 59.5409 4.48131 59.3531 4.15229C58.5364 2.73281 56.8185 3.45665 53.9834 4.65992C51.965 5.51537 49.1487 6.81264 45.3749 8.61755C44.0794 9.23798 42.7088 9.90542 41.2912 10.5917C50.1532 5.63758 50.6601 5.07355 50.8761 4.2839C50.9793 3.90788 50.9324 3.47546 50.7353 3.13704C49.8434 1.59535 48.0504 2.32859 39.7047 6.0512C37.9211 6.85025 35.959 7.7433 33.9031 8.68335C44.1357 2.80802 44.2202 2.5166 44.3892 1.86796C44.4924 1.50134 44.4361 1.08772 44.2484 0.758701C43.5161 -0.519771 42.399 -0.124949 37.7051 1.51074C34.8888 2.4978 31.1244 3.88908 27.4819 5.23336C27.2191 5.32736 26.9562 5.42137 26.6934 5.52477C27.3599 5.07355 27.4162 4.88554 27.5101 4.53772C27.6134 4.16169 27.5664 3.75747 27.3693 3.42845C26.975 2.74221 26.0926 2.5072 25.4073 2.90202C25.2852 2.97723 25.1726 3.06183 25.0881 3.15584C24.4216 3.60706 21.4457 5.24276 19.2396 6.46482C14.4706 9.09697 12.0142 10.6731 11.8702 11.1933C11.7669 11.5693 11.8139 11.9735 12.011 12.312C12.7433 13.581 13.8322 13.1956 18.4322 11.5881C21.1922 10.6293 24.8909 9.25678 28.4677 7.94071C29.3313 7.62109 30.2513 7.28267 31.1807 6.94425C25.4073 10.2532 18.5355 14.1263 13.7571 16.8242C11.1286 18.3095 8.84738 19.588 7.22331 20.5186C5.15175 21.6968 4.05966 22.4927 3.947 22.9064C3.84374 23.273 3.90007 23.6678 4.08782 23.9968C4.77312 25.1907 6.0123 24.6737 7.31719 24.1378C8.17147 23.79 9.39187 23.2448 11.0441 22.5021C14.1233 21.1015 18.3196 19.1367 22.7693 17.0592C24.5811 16.2132 26.5713 15.2825 28.6085 14.3331C27.7448 14.8031 26.8905 15.2731 26.0644 15.7243C1.56253 29.1389 0.37968 30.0696 0.0511104 31.2164C-0.0521542 31.5924 0.00417336 32.0437 0.191927 32.3727C0.905392 33.6042 2.10702 33.0683 3.78741 32.3163C4.82945 31.8463 6.33148 31.1318 8.3686 30.1448C12.1706 28.2929 17.3996 25.6795 22.9383 22.9064C26.1301 21.3083 29.7162 19.5222 33.3586 17.7079C30.824 19.1367 28.2799 20.5562 25.8485 21.9193C0.39845 36.1987 0.370292 36.2739 0.116824 37.2046C0.0135593 37.5712 0.0698869 37.9848 0.257641 38.3138C0.961717 39.5359 2.13518 39.0189 4.05966 38.1728C5.23312 37.6558 6.9229 36.8755 9.22289 35.7851C13.5037 33.7546 19.3334 30.9344 25.5011 27.945C30.5799 25.4821 36.3345 22.6901 41.7231 20.1144C35.1986 23.7994 27.9983 27.7946 22.0465 31.1036C8.41555 38.6742 1.51872 42.7603 1.356 43.3619C1.25273 43.7379 1.30906 44.1422 1.49682 44.4712C2.22906 45.7402 3.38374 45.242 5.89964 44.1328C7.42045 43.4653 9.57962 42.4595 12.5086 41.0588C17.9534 38.4548 25.1538 34.9202 32.7766 31.1788C38.841 28.1989 45.5157 24.9275 51.4299 22.0603C40.2774 28.4433 25.7922 36.4243 16.8363 41.3596C12.5274 43.7285 8.81922 45.7779 6.18128 47.2443C3.03327 48.9991 1.39355 50.1052 1.26212 50.5627C1.15886 50.9387 1.2058 51.3336 1.40294 51.672C2.21028 53.0633 3.5715 52.4616 7.63637 50.6567C10.1523 49.5381 13.6633 47.9024 18.3853 45.6368C21.1077 44.3302 24.0648 42.8919 27.1346 41.3878C4.39762 54.2007 3.17722 55.3194 2.89559 56.3158C2.79232 56.6825 2.84864 57.1243 3.0364 57.4627C3.80619 58.7976 5.12985 58.2148 8.01187 56.9363C9.84247 56.1278 12.4335 54.9058 15.9445 53.1949C22.4314 50.0363 31.1713 45.665 39.6108 41.4348C40.6623 40.9084 41.7418 40.3631 42.8308 39.8273C41.2819 40.7016 39.7423 41.557 38.2496 42.3937C5.50536 60.7529 5.44904 60.9597 5.1768 61.9468C5.07353 62.3134 5.12985 62.7364 5.31761 63.0654C6.10617 64.4285 7.59881 63.8551 11.1849 62.2946C13.5037 61.2887 16.7518 59.7846 21.1077 57.6883C26.1771 55.2536 32.1007 52.3394 38.2402 49.2843C34.5884 51.3712 31.0399 53.4017 27.7824 55.2818C11.2131 64.8233 11.1661 64.9925 10.9502 65.7916C10.847 66.1582 10.9033 66.5624 11.091 66.9008C11.8139 68.1511 13.1282 67.6059 14.94 66.8539C16.1698 66.3462 17.9534 65.5472 20.244 64.4755C22.5534 63.4039 25.426 62.0314 28.8244 60.3957C16.902 67.2017 15.2967 68.546 15.0339 69.4766C14.9212 69.8808 14.9775 70.2944 15.1747 70.6423C15.8412 71.7985 16.9771 71.3191 18.0849 70.8585C18.7702 70.5671 19.7934 70.1252 21.0983 69.533C23.4734 68.4613 26.806 66.9197 31.3027 64.8233C36.6349 62.3228 42.8778 59.3804 49.1018 56.4381C48.67 56.6731 48.2381 56.9081 47.8157 57.1431C21.0608 71.7515 19.8685 72.6634 19.5306 73.8666C19.4273 74.2427 19.4836 74.6939 19.6714 75.0323C20.3661 76.2356 21.211 75.8502 23.7269 74.7033C25.0505 74.1017 26.9375 73.218 29.5097 72.0053C33.0582 70.3226 37.4423 68.2263 42.1925 65.942C29.0966 73.218 27.2754 74.5623 26.9844 75.5963C26.8717 76.0006 26.9187 76.4142 27.1252 76.7714C27.895 78.0969 28.7962 77.8995 35.9309 74.8537C40.0051 73.1146 45.45 70.6611 50.7165 68.3015C51.214 68.0759 51.721 67.8503 52.2373 67.6247C51.5332 68.0195 50.8479 68.4049 50.2001 68.781C47.121 70.5295 44.2859 72.1275 42.23 73.3026C39.6515 74.7754 38.3028 75.728 38.1839 76.1604C38.0807 76.527 38.137 76.9312 38.3247 77.2602C38.5876 77.7209 39.0757 77.9747 39.5639 77.9747C39.808 77.9747 40.0521 77.9089 40.2774 77.7773C40.3525 77.7303 40.4182 77.6833 40.4839 77.6363C41.2349 77.1474 46.5108 74.1675 51.6083 71.2721C65.5897 63.3506 72.6649 59.089 72.8339 58.4874C72.9371 58.1208 72.8808 57.7165 72.6931 57.3875C71.9327 56.0714 71.0408 56.2688 64.0658 59.2488C60.0854 60.9503 54.725 63.3569 49.5524 65.6788C47.9002 66.4214 46.1822 67.1923 44.4549 67.9631C48.4353 65.754 52.6785 63.4415 56.4242 61.3921C77.6967 49.7637 77.753 49.5569 78.0347 48.5604C78.1379 48.1844 78.091 47.752 77.8938 47.4229C77.2367 46.2855 76.0257 46.7837 75.3685 47.0469C74.8992 47.2349 74.2326 47.5264 73.3408 47.9306C71.7449 48.645 69.4825 49.7073 66.4127 51.155C62.6482 52.9317 58.0858 55.1126 53.3263 57.4063C76.9645 44.4712 79.5742 42.7415 79.9404 41.4536C80.053 41.0494 80.0061 40.6358 79.7995 40.2785C79.133 39.1223 78.3163 39.4889 76.3543 40.4007L76.3918 40.3913ZM24.7501 4.51891C24.7783 4.64112 24.8346 4.77273 24.9003 4.88553C24.8252 4.76333 24.7783 4.64112 24.7501 4.51891ZM40.5965 77.5705C40.7092 77.4577 40.8031 77.326 40.8782 77.1944C40.8031 77.3354 40.7092 77.4671 40.5965 77.5705Z" fill="#F05525"/>
</svg>
