<svg width="113" height="84" viewBox="0 0 113 84" fill="none" xmlns="http://www.w3.org/2000/svg">
<path fill-rule="evenodd" clip-rule="evenodd" d="M0.406732 34.9937C0.594704 35.9911 2.74228 36.5947 8.57743 37.3453C22.2687 39.0021 37.1352 38.5756 49.5604 36.0676L55.2395 34.9644L57.0717 39.2859C60.745 47.6823 67.0858 56.5974 74.8316 64.2987C81.1348 70.6106 90.2888 76.4297 95.6726 77.5614C96.1695 77.6737 94.5633 78.2426 92.1494 78.8609C87.7891 79.933 86.4368 80.6705 85.8026 82.2239C85.0177 84.0931 86.8294 84.1719 95.208 82.7309C99.8513 81.9434 104.868 81.3895 106.596 81.5178C108.348 81.6096 110.109 81.6047 110.517 81.4534C111.669 81.109 112.614 79.3938 112.245 78.4355C112.08 77.9681 109.811 76.1008 106.689 73.9435C100.641 69.6524 98.7967 67.8505 94.9373 62.4868C93.4238 60.3299 91.8991 58.4236 91.5692 58.212C89.6267 56.9662 90.4514 63.02 92.7698 66.6732C93.6409 68.0571 95.2114 70.0444 96.2976 71.102C97.4164 72.1806 98.2317 73.1677 98.138 73.3139C98.0677 73.4235 96.7601 73.2039 95.2429 72.7467C90.9305 71.4769 83.7263 66.6504 78.7556 61.6572C73.5843 56.4839 69.291 51.1514 66.1184 46.0162C63.4378 41.718 59.697 34.0005 60.0486 33.4523C60.1424 33.3061 61.5023 32.4761 63.066 31.5704C64.6062 30.7013 66.5977 29.4511 67.4326 28.7945C74.8324 23.0636 76.9691 14.7311 72.9694 7.56963C71.6963 5.36051 70.9075 4.4935 68.7247 2.88731C65.4699 0.542007 63.475 -0.0667269 60.4675 0.428714C56.2449 1.12494 52.9164 5.18568 51.8297 10.9936C51.1305 14.8263 51.3185 19.1306 52.5267 25.3214L53.6063 30.8165L49.5537 31.5702C39.9499 33.3085 26.281 33.8841 12.631 33.1307C3.06886 32.6262 1.53715 32.6754 0.833973 33.7719C0.552702 34.2105 0.334516 34.7926 0.410808 34.9963L0.406732 34.9937ZM60.6484 4.5737C63.8081 3.1958 67.6956 4.96684 69.9059 8.86021C73.9022 15.7043 70.3288 23.3733 61.0531 27.9068L58.4944 29.1543L57.8576 27.4049C56.8658 24.7572 55.8809 16.847 56.1114 13.7453C56.5183 8.99725 58.1207 5.6921 60.6458 4.57777L60.6484 4.5737Z" fill="#7649B7"/>
</svg>
