<svg width="33" height="43" viewBox="0 0 33 43" fill="none" xmlns="http://www.w3.org/2000/svg">
<path fill-rule="evenodd" clip-rule="evenodd" d="M8.59688 0.419629C8.50632 0.659386 8.36004 1.76651 8.25091 2.91123C8.10463 4.57072 7.95839 5.21711 7.54044 6.15969C6.33768 8.74295 4.55211 9.88768 1.21549 10.2379C-0.00584283 10.3672 -0.370432 10.976 0.414382 11.5284C1.1992 12.0996 3.84155 11.6953 5.51799 10.7715C7.14102 9.86653 8.63404 7.92966 9.41885 5.68018C9.78339 4.64593 10.0922 1.08484 9.8554 0.494848C9.61856 -0.132751 8.83371 -0.170359 8.59688 0.421982V0.419629Z" fill="#DBFFC4"/>
<path fill-rule="evenodd" clip-rule="evenodd" d="M11.021 1.80176C10.7842 2.76078 11.093 7.41019 11.4761 8.6842C12.1146 10.7503 13.4637 11.9139 15.7949 12.3934C16.9791 12.6331 17.4528 12.5603 17.6176 12.0972C17.7987 11.6177 17.1811 11.1382 15.8506 10.7127C13.4822 9.99346 12.8252 8.86753 12.4049 4.80811C12.1309 2.15198 11.8941 1.30344 11.4761 1.30344C11.2578 1.30344 11.093 1.48913 11.021 1.80176Z" fill="#DBFFC4"/>
<path fill-rule="evenodd" clip-rule="evenodd" d="M2.16281 13.4088C2.07226 13.4817 2.01656 13.6862 2.01656 13.8695C2.01656 14.1281 2.29056 14.295 3.07305 14.4971C5.42517 15.1623 5.95221 15.4021 6.51876 15.9921C7.15729 16.6737 7.74011 18.0958 7.92122 19.3863C8.17663 21.1586 9.34224 22.1364 9.59765 20.7896C9.76251 19.8681 9.3608 17.7456 8.778 16.4904C8.17662 15.2164 6.90192 13.9635 5.91742 13.6674C5.02347 13.4088 2.32767 13.2067 2.16281 13.4088Z" fill="#DBFFC4"/>
<path fill-rule="evenodd" clip-rule="evenodd" d="M12.8623 14.8474C12.1704 15.16 11.4041 15.9921 11.1301 16.7113C10.6936 17.8913 10.949 21.4172 11.4761 21.4172C11.6224 21.4172 12.2052 20.9377 12.2238 20.8084C12.2238 20.7896 12.3143 19.9974 12.4049 19.0549C12.586 17.0263 12.8252 16.6009 14.0279 15.9733C14.5202 15.7335 14.9753 15.4373 15.031 15.3457C15.3398 14.8474 13.6819 14.4595 12.8623 14.8474Z" fill="#DBFFC4"/>
<path fill-rule="evenodd" clip-rule="evenodd" d="M25.821 18.8691C25.6748 19.1089 25.4751 19.9198 25.3474 20.6767C25.0734 22.4114 24.6182 23.4998 23.9797 23.9252C23.7243 24.0921 22.9581 24.3859 22.2847 24.5716C20.8823 24.9783 20.4249 25.3285 20.7174 25.808C21.2283 26.6025 23.7615 26.1042 25.0177 24.9595C25.9464 24.1109 26.4038 23.1871 26.7312 21.4712C27.0586 19.6989 27.0586 19.1089 26.6941 18.7587C26.311 18.352 26.1299 18.3896 25.8187 18.8691H25.821Z" fill="#DBFFC4"/>
<path fill-rule="evenodd" clip-rule="evenodd" d="M28.1174 19.5156C27.3164 21.0834 28.0617 24.5152 29.4851 25.8809C30.4696 26.8211 32.0183 27.2278 32.7102 26.7106C33.2744 26.2852 33.0028 25.7892 31.9997 25.4742C31.4889 25.3262 30.9061 25.0864 30.6878 24.9571C29.9402 24.5317 29.3945 23.2788 29.1019 21.3772C28.9556 20.3806 28.7931 19.4944 28.7188 19.3839C28.554 19.1066 28.2985 19.163 28.1174 19.5132V19.5156Z" fill="#DBFFC4"/>
<path fill-rule="evenodd" clip-rule="evenodd" d="M21.537 27.7449C21.2282 28.1327 21.7553 28.5018 23.3041 28.9813C24.2143 29.2774 24.7622 29.5713 25.0548 29.9215C25.4751 30.4198 25.893 31.8395 25.893 32.7445C25.893 33.445 26.4758 34.035 26.9681 33.8704C27.3883 33.7411 27.3883 33.6871 27.2954 32.4131C27.0772 29.7757 26.1832 28.3161 24.3977 27.7825C23.2321 27.4323 21.8087 27.4134 21.537 27.7449Z" fill="#DBFFC4"/>
<path fill-rule="evenodd" clip-rule="evenodd" d="M29.9587 28.9625C29.0647 29.5336 28.5725 30.6784 28.5563 32.2109C28.5377 33.4473 28.5562 33.5014 28.9765 33.5014C29.341 33.5014 29.4687 33.3181 29.9238 32.0252C30.1978 31.2143 30.5972 30.4198 30.7992 30.2717C30.9989 30.1236 31.3634 29.8463 31.584 29.6817C31.93 29.442 31.9672 29.3127 31.8023 29.0353C31.5283 28.5746 30.6529 28.537 29.961 28.9625H29.9587Z" fill="#DBFFC4"/>
<path fill-rule="evenodd" clip-rule="evenodd" d="M6.24711 30.032C6.15656 30.2153 5.93831 30.8265 5.79202 31.3788C5.42748 32.6528 4.55208 34.0162 3.78817 34.498C3.46077 34.7002 2.82225 34.9587 2.34858 35.0692C1.72862 35.2361 1.4732 35.3818 1.4732 35.6051C1.4732 36.1411 1.87493 36.362 2.78513 36.362C3.93449 36.362 4.88179 35.8637 5.81056 34.7754C6.99475 33.4285 7.85158 30.6619 7.30593 29.9967C6.99711 29.6277 6.44912 29.6465 6.24944 30.0343L6.24711 30.032Z" fill="#DBFFC4"/>
<path fill-rule="evenodd" clip-rule="evenodd" d="M8.70606 30.5867C8.34151 30.9369 8.74319 33.5766 9.326 34.7378C9.81825 35.7156 10.949 36.4349 12.0055 36.4349C12.7903 36.4537 12.8623 36.4161 12.8623 35.993C12.8623 35.6428 12.6812 35.4406 11.9683 35.0716C10.8375 34.4628 10.6936 34.223 10.1271 32.359C9.83449 31.3812 9.54424 30.7724 9.3074 30.6431C8.90571 30.4222 8.85234 30.4222 8.70606 30.5867Z" fill="#DBFFC4"/>
<path fill-rule="evenodd" clip-rule="evenodd" d="M2.7456 37.6525C2.45303 38.2049 2.87329 38.6491 3.94834 38.9429C5.22309 39.312 5.60621 39.7186 6.04506 41.2112C6.50016 42.779 6.64644 43 7.2664 43C7.7215 43 7.72149 42.9812 7.61236 41.8365C7.48466 40.4332 7.06672 39.1991 6.51874 38.588C6.00792 38.0356 4.89572 37.5373 3.80209 37.3704C3.05443 37.2599 2.92671 37.2787 2.7456 37.6478V37.6525Z" fill="#DBFFC4"/>
<path fill-rule="evenodd" clip-rule="evenodd" d="M10.4916 38.3529C9.46995 38.8325 8.88714 39.9396 8.86857 41.4157C8.84999 42.3371 8.90572 42.5416 9.16113 42.5957C9.41655 42.6521 9.63481 42.3371 10.0899 41.3052C10.7633 39.8103 10.9281 39.6458 11.8941 39.3308C12.7137 39.0534 12.8971 38.8137 12.5674 38.4634C12.1309 38.038 11.2741 37.9839 10.4893 38.3529H10.4916Z" fill="#DBFFC4"/>
</svg>
