<svg width="69" height="50" viewBox="0 0 69 50" fill="none" xmlns="http://www.w3.org/2000/svg">
<path fill-rule="evenodd" clip-rule="evenodd" d="M0.223826 18.9772C-0.558514 24.3659 2.88975 32.042 8.76001 38.0018C15.3768 44.6832 25.8221 50.0661 31.9085 49.926C35.0807 49.8522 37.6174 48.6501 38.7601 46.6961C40.5361 43.6588 38.9126 38.5985 35.0987 35.2314C33.5169 33.8313 30.286 32.1638 28.4604 31.8248C26.7333 31.4801 24.469 31.8912 23.5338 32.7381C21.6264 34.435 23.1578 37.7028 25.5617 37.0529C26.4457 36.8413 26.6022 36.3028 26.0596 35.6054L25.5393 34.9844L26.3918 34.881C27.5132 34.7448 30.0258 35.4257 31.3425 36.1956C35.2629 38.5198 37.7758 43.2449 36.3709 45.6474C34.305 49.1804 26.5122 47.9108 18.3439 42.6909C12.8868 39.2147 9.08622 35.6021 6.15379 31.1068C1.33466 23.6744 1.1492 17.7198 5.68133 14.0803C9.32259 11.1518 17.1823 11.0068 25.0985 13.7388L27.2871 14.4801L27.9828 16.3722C29.3937 20.2312 31.8741 23.2303 35.2418 25.1996C38.1164 26.8805 40.0073 26.7227 40.7132 24.7632C41.6558 22.122 37.9415 17.6095 32.006 14.1387L29.5799 12.72L29.7207 10.9685C29.825 9.54424 30.027 8.93384 30.8798 7.47555C31.7325 6.01726 32.103 5.60034 33.1955 4.97207C36.4197 3.18999 40.8727 3.52014 44.8279 5.83298L46.5012 6.81149L46.2967 8.08219C46.0446 9.70515 46.5415 12.3645 47.374 13.6432C48.2375 15.0316 50.229 16.1644 51.4637 16.003C52.1941 15.8916 52.4736 15.6784 52.9843 14.805C54.0855 12.9218 53.3885 10.4904 50.9197 7.68817C49.6346 6.20814 49.6484 6.18453 50.1732 5.44959C51.542 3.59621 54.1471 2.49386 56.7265 2.67528C57.5033 2.74937 59.5594 3.29 61.3178 3.90643C64.3447 4.94783 65.4446 5.11938 67.289 4.776C69.0075 4.48563 68.326 3.70697 65.777 3.04006C64.9846 2.83014 63.2873 2.21773 62.0047 1.6543C58.2843 0.0172841 55.7878 -0.305788 53.096 0.457259C51.3005 0.987679 49.8819 1.89689 48.5658 3.34113L47.4834 4.54196L45.8101 3.56345C42.2633 1.52115 38.4194 0.853739 34.8583 1.64692C32.2104 2.28076 30.4709 3.47391 28.9796 5.69918C27.8929 7.34093 27.5311 8.39295 27.058 11.3087C26.9966 11.6845 26.7762 11.6823 25.8698 11.3424C25.248 11.1055 23.5787 10.6678 22.1345 10.3267C14.7594 8.66784 8.89295 9.19001 5.00003 11.8447C3.50123 12.897 3.15988 13.2641 1.8857 15.3347C0.764888 17.1431 0.393991 17.9399 0.229077 18.9803L0.223826 18.9772ZM33.0533 17.9153C37.1908 20.9999 39.9196 25.091 36.5047 23.0941C34.4563 21.8963 31.665 18.7788 30.9555 16.9103C30.6944 16.2191 31.0151 16.375 33.0533 17.9153ZM49.8335 10.0271C51.3041 11.8339 51.7767 14.3241 50.5282 13.5941C50.245 13.4285 49.8249 12.9611 49.5674 12.5888C49.0828 11.7985 48.5258 9.45255 48.7467 9.07486C48.8295 8.93323 49.3034 9.36871 49.8335 10.0271Z" fill="#7649B7"/>
</svg>
