<svg width="104" height="11" viewBox="0 0 104 11" fill="none" xmlns="http://www.w3.org/2000/svg">
<path fill-rule="evenodd" clip-rule="evenodd" d="M77.8053 10.7097C79.9878 10.071 81.854 8.51979 83.4354 6.05618C83.8466 5.41746 84.2894 4.90042 84.3843 4.90042C84.5108 4.90042 84.922 5.38705 85.3016 5.93452C86.1556 7.21194 89.5716 9.61474 91.4022 10.223C93.0153 10.7705 95.4508 10.8009 97.1865 10.3143C100.508 9.341 105.311 2.92724 103.667 1.6194C103.097 1.16317 102.781 1.40649 101.294 3.53553C98.5426 7.45907 95.8541 9.00644 93.043 8.28029C90.8289 7.73282 88.2669 5.87749 86.721 3.74844C84.7283 1.01109 84.0008 1.13275 81.9765 4.60006C81.4388 5.5125 80.6164 6.63786 80.1103 7.09408C79.1298 8.00653 77.232 8.85816 76.1882 8.85816C73.6579 8.85816 70.9061 6.91161 69.2969 4.02219C67.7154 1.13277 66.7665 1.19359 64.9004 4.23509C63.3189 6.75954 62.2118 7.79363 60.4406 8.40193C58.8275 8.9494 57.8469 8.97982 56.2338 8.55401C54.3993 8.06737 53.1341 6.82037 51.9638 4.35676C51.0149 2.28854 50.8567 2.13645 50.0343 2.22769C49.4017 2.28852 49.0538 2.62309 48.5794 3.53554C47.4091 5.93832 46.4602 7.06368 45.1318 7.67198C43.234 8.49318 41.2729 8.40194 39.2842 7.45907C37.3231 6.51621 36.0896 5.14754 35.2989 3.10973C34.3816 0.676534 33.3378 0.706945 31.8196 3.20097C30.7125 4.99546 28.7515 6.63787 27.17 7.03327C26.0629 7.33742 25.462 7.30699 23.8488 6.88118C21.4133 6.24247 20.2431 5.29962 18.5351 2.62311C17.3648 0.798207 17.0801 0.494043 16.2893 0.494043C15.4986 0.494043 15.1506 0.798206 14.1069 2.28854C12.1774 4.96506 11.0704 5.6646 8.6982 5.6646C6.32596 5.6646 4.61796 4.72173 3.0681 2.56226C1.04379 -0.266328 -1.02748e-06 -0.752955 -8.6528e-07 1.10236C-7.3765e-07 2.56228 0.948905 4.26551 2.5304 5.63418C4.39655 7.24618 6.10455 7.94573 8.34631 7.94573C10.8451 7.94573 12.4898 7.15493 14.5734 4.96505C15.5539 3.93094 16.2814 3.38346 16.3763 3.62678C16.7559 4.78255 18.6853 7.00284 20.0137 7.85446C22.6074 9.52729 26.652 9.89228 29.1508 8.67568C29.7201 8.40194 30.9221 7.42865 31.8077 6.54662L33.4208 4.90423L34.3381 6.27289C35.3819 7.88489 37.8174 9.58812 39.8377 10.0748C41.6406 10.531 44.5505 10.2572 46.0965 9.49687C47.2668 8.91899 48.4687 7.82405 49.3859 6.48579L49.8604 5.78624L50.2716 6.72912C51.4735 9.49688 54.9212 11.2305 58.5546 10.8656C61.7492 10.5614 64.1175 9.01025 66.0786 5.99917C66.6796 5.02589 66.8693 4.90421 67.154 5.26919C67.3438 5.54292 67.9447 6.36412 68.4824 7.09408C70.7598 10.2268 74.4881 11.6563 77.7776 10.7135L77.8053 10.7097Z" fill="#DBFFC4"/>
</svg>
