<svg width="391" height="219" viewBox="0 0 391 219" fill="none" xmlns="http://www.w3.org/2000/svg">
<path fill-rule="evenodd" clip-rule="evenodd" d="M178.264 0.371894C176.899 0.522591 172.043 1.05001 167.624 1.5021C113.039 6.84348 62.8822 26.0825 34.0912 52.848C13.5696 71.9447 1.30771 94.3483 0.112826 115.094C-2.09676 152.082 28.2116 183.435 85.4427 203.512C116.955 214.563 145.993 219 186.78 219C236.51 219 273.732 212.085 311.285 195.843C354.291 177.198 382.731 148.926 389.977 117.581C391.598 110.439 391.257 96.8348 389.208 89.3837C377.885 48.4108 334.111 20.6658 268.535 12.9216C254.993 11.3393 220.246 11.1886 204.239 12.5449C177.069 14.9476 152.802 19.5355 127.852 27.0537C103.499 34.3457 90.1274 40.5829 70.3644 53.8191C57.6759 62.2414 60.5682 62.3922 77.4293 54.0452C95.8267 45.0201 105.955 40.742 119.924 36.1541C143.764 28.3346 167.444 23.1439 192.65 20.1383C211.56 17.8862 244.941 17.3588 261.29 19.0081C311.361 24.1235 348.753 40.7336 368.25 66.5196C385.624 89.4507 387.075 114.483 372.338 138.168C366.97 146.741 361.688 152.677 351.133 161.928C336.482 174.863 320.645 184.256 300.465 192.076C265.291 205.755 229.616 211.926 185.5 211.926C141.384 211.926 105.623 205.236 70.023 189.522C42.939 177.567 24.9778 162.983 15.523 145.393C9.98483 135.02 8.88478 130.507 8.88478 118.703C8.97013 106.295 10.9331 99.6813 18.5956 86.0014C42.4363 43.5215 96.775 16.53 174.86 8.56813C198.53 6.16535 237.534 6.46674 252.612 9.24626C255.505 9.7737 257.895 9.92441 257.895 9.62302C257.895 8.49279 250.744 5.33652 244.694 3.76257C234.386 1.05839 220.341 -0.0718278 199.734 0.00352083C189.34 0.0788694 179.725 0.304925 178.274 0.380274L178.264 0.371894Z" fill="#DBFFC4"/>
</svg>
