<svg width="21" height="22" viewBox="0 0 21 22" fill="none" xmlns="http://www.w3.org/2000/svg">
<path fill-rule="evenodd" clip-rule="evenodd" d="M13.1109 0.750937C12.9625 1.15232 12.7647 2.5926 12.6905 3.93842C12.5915 5.30786 12.4432 6.44119 12.369 6.48841C12.2948 6.53563 11.0335 6.65369 9.59912 6.72452L6.97765 6.8898L6.68082 4.17453C6.35932 1.17594 6.26043 0.727326 5.79055 0.727326C5.04862 0.727326 4.80131 1.5301 4.70238 4.17453L4.62819 6.81896L2.72395 6.98424C0.0777447 7.19674 0.12714 7.17313 0.0282166 7.62174C-0.0954376 8.21201 0.893854 8.58979 2.94651 8.73146L4.80133 8.87312L4.87552 11.0453L4.94971 13.2412H2.94651C1.28955 13.2412 0.893853 13.312 0.473429 13.7134C-0.565266 14.705 0.0529838 15.0828 2.84757 15.1773L5.04857 15.2481L5.24646 17.6092C5.5927 21.4342 6.1862 22.6118 7.29909 21.7146C7.62059 21.4548 7.67012 20.8882 7.59592 18.3146L7.52166 15.2451L10.0443 15.1743L12.5668 15.1035L12.6905 16.1896C12.7647 16.7799 12.8883 17.7243 12.9872 18.3146C13.0614 18.8812 13.3334 19.5896 13.5807 19.8965C14.0259 20.4159 14.0506 20.4159 14.4958 20.0146C14.8667 19.6604 14.9409 19.2118 14.9409 17.2993V15.009L17.5377 14.9382C20.1592 14.8438 21 14.6549 21 14.0882C21 13.3799 20.1839 13.1201 17.4388 13.0021L14.6937 12.884V8.4009L16.7463 8.21201C19.1452 7.9759 20.0108 7.73979 20.0108 7.24396C20.0108 6.48841 18.9968 6.15786 16.7463 6.15786H14.57L14.5947 3.32454C14.5947 1.76621 14.5453 0.396775 14.4463 0.255109C14.1248 -0.240722 13.3829 0.0189966 13.1109 0.750937ZM12.5421 10.8063L12.6163 12.9549L10.5636 13.1201C7.12599 13.4035 7.27441 13.4979 7.20022 10.9479L7.12603 8.77573L9.42598 8.68128C10.6873 8.65767 11.899 8.61045 12.0969 8.63406C12.3937 8.63406 12.4926 9.08267 12.5421 10.8063Z" fill="#7649B7"/>
</svg>
