<svg width="55" height="58" viewBox="0 0 55 58" fill="none" xmlns="http://www.w3.org/2000/svg">
<path fill-rule="evenodd" clip-rule="evenodd" d="M39.2793 0.585323C35.0603 2.48172 31.601 8.83237 30.4597 16.8261L30.2371 18.3425L29.1594 15.563C27.5411 11.4254 25.0359 6.84449 23.3222 4.91642C19.6721 0.810497 15.1352 0.996973 12.7253 5.35974C11.8066 7.00281 11.7748 7.22447 11.7748 11.0137C11.7748 16.1963 12.4108 17.8394 15.3931 20.8405L17.4884 22.9269L15.2659 23.1169C8.95159 23.6552 3.17793 26.9414 0.955389 31.269C-0.313121 33.7318 -0.313109 36.5782 0.9236 38.471C2.66913 41.0922 7.04706 42.1055 11.3296 40.8424C13.2977 40.2408 16.8842 38.5027 18.817 37.2079C19.5484 36.7013 20.2127 36.2932 20.3081 36.2932C20.3717 36.2932 19.8629 37.6196 19.1668 39.1993C15.8348 46.8764 15.8348 52.5972 19.1986 55.9115C21.6084 58.3427 24.0536 58.6277 27.2902 56.8897C31.5728 54.5816 34.3995 48.3893 35.0002 40.0191L35.2547 36.638L37.0638 38.7877C39.0319 41.1591 42.0459 43.3686 44.0777 43.9069C46.0458 44.4452 48.7418 44.0969 50.6464 43.0555C54.7381 40.8424 56.0738 36.4515 54.1056 31.9023C52.7417 28.7428 48.0458 25.4566 43.0318 24.1302C41.8905 23.8452 40.7774 23.5286 40.5265 23.4652C40.3039 23.4019 40.8764 22.7686 41.9541 21.9805C47.0952 18.2193 49.7277 13.167 49.2507 8.04777C49.028 5.58492 48.1729 3.40354 46.9009 2.04545C44.9964 0.0223934 41.8551 -0.57573 39.2863 0.592366L39.2793 0.585323ZM44.007 3.30151C44.6748 3.61816 45.2437 4.34294 45.7843 5.51455C46.4521 6.9993 46.5758 7.63261 46.4521 9.52549C46.2295 13.9164 43.5653 17.6142 38.0426 21.1853C33.7282 23.9965 33.8872 25.1048 38.7103 26.0196C44.5476 27.1243 49.1482 29.4007 51.1163 32.1485C51.9714 33.3483 52.0668 33.7599 52.0668 35.7513C52.0668 38.4358 51.3672 39.7025 49.2754 40.7439C45.2154 42.8303 40.8021 40.0473 35.5373 32.1485C34.3324 30.3471 33.1875 28.7357 32.9685 28.6091C32.6823 28.4191 32.7141 28.1341 33.1911 27.346C33.8271 26.3362 34.0462 24.1232 33.5727 23.4582C33.0957 22.7299 31.8908 22.3534 30.7495 22.5751L29.6082 22.7967L30.3078 22.1001C30.6576 21.7518 31.1028 21.4351 31.2901 21.4351C31.9579 21.4351 32.6858 19.6654 33.2265 16.5376C34.4632 9.80696 37.0037 4.97273 40.3358 3.17133C41.2545 2.66469 42.9046 2.72801 44.0176 3.29799L44.007 3.30151ZM19.1951 5.45122C21.2904 6.52432 23.5412 10.0955 26.7143 17.1744C27.8556 19.7639 28.9686 22.1036 29.1241 22.2936C29.3785 22.5786 29.3149 22.7053 28.9651 22.7053C28.7107 22.7053 28.0464 23.2119 27.5058 23.81C26.6825 24.7565 26.5235 25.1998 26.5235 26.4945C26.5235 28.5493 27.5376 29.4324 29.7601 29.274C31.1558 29.1791 31.2831 29.2424 31.2831 29.9073C31.2831 30.319 31.4102 30.8855 31.601 31.2021C32.2689 32.4652 32.6151 37.5527 32.2371 40.7439C31.3502 48.5476 28.5234 53.7935 24.6225 54.9616C23.4175 55.3099 23.1631 55.3099 22.149 54.7399C17.7393 52.3686 19.0078 43.8084 25.2903 33.57C26.5588 31.5469 26.8768 30.7588 26.7178 30.1255C26.4316 29.0524 25.2585 29.0841 23.9264 30.2205C21.831 32.0219 17.7393 34.9597 15.5804 36.2228C9.8067 39.5723 4.50652 39.699 2.9518 36.5395C2.41118 35.4347 2.37937 35.2447 2.85639 33.6016C3.77509 30.5055 7.07535 27.916 11.9303 26.4629C13.9939 25.8612 15.0715 25.7346 19.8629 25.7346C22.9087 25.7029 25.6048 25.5763 25.8274 25.4496C26.3998 25.0696 26.3044 23.8065 25.6684 23.2682C25.3504 23.0149 23.8911 22.4168 22.3999 21.9418C20.9088 21.4668 19.0361 20.647 18.2128 20.1404C16.5626 19.0673 14.9762 16.9492 14.4037 14.9895C13.7677 12.8398 13.9267 9.4903 14.7535 7.69242C15.863 5.16623 17.2587 4.46959 19.1951 5.4477V5.45122ZM30.6823 25.8612C29.8908 26.5579 29.064 26.681 29.064 26.1779C29.064 25.8296 30.2053 25.2631 30.9686 25.2631C31.2866 25.2631 31.223 25.4531 30.6823 25.8648V25.8612Z" fill="#DBFFC4"/>
</svg>
