<svg width="36" height="34" viewBox="0 0 36 34" fill="none" xmlns="http://www.w3.org/2000/svg">
<path fill-rule="evenodd" clip-rule="evenodd" d="M11.4221 0.351154C7.57016 1.19516 3.44599 4.5269 1.66984 8.17964C-2.45434 16.7276 1.37291 28.1839 9.72025 32.2849C12.7337 33.7765 14.3366 34.1002 18.0153 33.9757C20.4596 33.8761 21.4961 33.7018 23.0771 33.2064C27.8913 31.6153 32.6067 27.8131 34.3856 24.0857C35.6448 21.5011 36.1397 19.3897 35.9665 17.3751C35.8181 15.5598 34.9052 12.4052 34.5588 12.4052C34.4103 12.4052 34.3114 12.4799 34.3114 12.5795C34.1876 17.4748 34.0639 18.9165 33.5965 20.3582C32.362 24.3347 29.6456 27.3399 25.1282 29.7751C15.4749 35.019 5.12864 30.2732 2.41218 19.362C0.806499 12.8009 3.69621 6.01843 9.2501 3.30932C13.0279 1.49402 17.1025 1.64345 20.2121 3.7327C24.7048 6.74068 25.2244 13.1745 21.3477 17.3502C18.7797 20.1091 16.0632 20.3582 13.619 18.0199C11.4964 16.033 11.1005 12.6266 12.7309 10.4903C13.5447 9.39722 14.606 8.87421 15.989 8.87421C16.9513 8.87421 17.2482 8.99874 17.8174 9.6435C18.8787 10.8611 18.7055 12.6515 17.4215 13.6947C17.1493 13.9438 16.7313 14.143 16.5086 14.143C15.3979 14.143 15.2988 15.9085 16.4096 16.4287C17.3224 16.8521 18.2848 16.4536 19.5193 15.1614C22.0625 12.502 21.4687 8.60026 18.2601 6.91225C17.4215 6.48886 14.8782 6.51377 13.7922 6.98696C12.434 7.58468 11.0757 8.92402 10.4598 10.291C9.67074 11.9569 9.64597 14.7629 10.3608 16.7276C11.8675 20.729 16.3849 22.8155 20.039 21.1745C21.4467 20.5298 23.4208 18.7394 24.4078 17.1731C26.0877 14.4889 26.6294 10.6369 25.766 7.65663C24.1109 2.01702 18.0126 -1.09057 11.4221 0.351154Z" fill="#DBFFC4"/>
</svg>
