<svg width="12" height="18" viewBox="0 0 12 18" fill="none" xmlns="http://www.w3.org/2000/svg">
<path fill-rule="evenodd" clip-rule="evenodd" d="M8.09725 1.18241C7.36474 1.93527 6.63222 2.973 6.10092 4.05368C5.63293 4.98967 5.20564 5.62044 5.16495 5.47801C4.39174 3.01369 4.12722 2.36256 3.63888 1.56901C2.37733 -0.406964 0.340318 -0.0180945 0.0351045 2.28118C-0.148023 3.56307 0.381006 5.96634 1.72394 10.0788C2.35472 11.9734 3.06688 14.3134 3.2907 15.2697C3.7587 17.1213 4.20635 17.6526 5.12199 17.3271C5.63068 17.1439 5.83414 16.7573 7.66768 12.421C8.44089 10.5694 9.60296 7.86093 10.2541 6.414C11.1697 4.31594 11.4342 3.48168 11.5156 2.40326C11.6377 0.571979 11.3122 0 10.0913 0C9.3181 0 9.13497 0.122079 8.09499 1.18015L8.09725 1.18241ZM9.60298 2.85091C9.4402 3.4003 8.40246 5.84426 7.30143 8.28596C6.22301 10.7299 5.24407 12.9071 5.16268 13.1309C4.91851 13.7414 2.16933 5.4147 2.0676 3.76655L1.98621 2.54569L2.4949 3.60376C2.77976 4.19384 3.24775 5.5594 3.53262 6.63782C3.79713 7.71624 4.1227 8.73588 4.24478 8.89866C4.57035 9.28526 5.22146 9.22421 5.38424 8.79692C5.46563 8.61379 5.77085 8.08475 6.05572 7.6371C6.36093 7.18946 6.93066 6.13139 7.33761 5.29488C8.07012 3.72812 9.39497 1.83354 9.72053 1.83354C9.82227 1.83354 9.76123 2.28118 9.59845 2.85091H9.60298Z" fill="#7649B7"/>
</svg>
